SplineFontDB: 3.2
FontName: FiraSans-MediumItalic
FullName: Fira Sans Medium Italic
FamilyName: Fira Sans Medium
Weight: Medium
Copyright: Digitized data copyright 2012-2016, The Mozilla Foundation and Telefonica S.A.
Version: 4.203
ItalicAngle: -8
UnderlinePosition: -100
UnderlineWidth: 50
Ascent: 800
Descent: 200
InvalidEm: 0
sfntRevision: 0x000433f7
LayerCount: 2
Layer: 0 1 "Back" 1
Layer: 1 1 "Fore" 0
XUID: [1021 743 -1709312059 6544100]
StyleMap: 0x0001
FSType: 0
OS2Version: 4
OS2_WeightWidthSlopeOnly: 0
OS2_UseTypoMetrics: 1
CreationTime: 1476948552
ModificationTime: 1480667555
PfmFamily: 17
TTFWeight: 500
TTFWidth: 5
LineGap: 0
VLineGap: 0
Panose: 2 11 6 3 5 0 0 2 0 4
OS2TypoAscent: 935
OS2TypoAOffset: 0
OS2TypoDescent: -265
OS2TypoDOffset: 0
OS2TypoLinegap: 0
OS2WinAscent: 935
OS2WinAOffset: 0
OS2WinDescent: 265
OS2WinDOffset: 0
HheadAscent: 935
HheadAOffset: 0
HheadDescent: -265
HheadDOffset: 0
OS2SubXSize: 650
OS2SubYSize: 600
OS2SubXOff: -11
OS2SubYOff: 75
OS2SupXSize: 650
OS2SupYSize: 600
OS2SupXOff: 49
OS2SupYOff: 350
OS2StrikeYSize: 50
OS2StrikeYPos: 317
OS2CapHeight: 691
OS2XHeight: 529
OS2Vendor: 'CTDB'
OS2CodePages: 2000019f.00000000
OS2UnicodeRanges: 600002ff.00000001.00000000.00000000
Lookup: 1 0 0 "'aalt' Access All Alternates lookup 0" { "'aalt' Access All Alternates lookup 0 subtable"  } ['aalt' ('DFLT' <'dflt' > 'cyrl' <'dflt' > 'grek' <'dflt' > 'latn' <'AFK ' 'CAT ' 'EWE ' 'MOL ' 'PLK ' 'ROM ' 'TRK ' 'dflt' > ) ]
Lookup: 3 0 0 "'aalt' Access All Alternates lookup 1" { "'aalt' Access All Alternates lookup 1 subtable"  } ['aalt' ('DFLT' <'dflt' > 'cyrl' <'dflt' > 'grek' <'dflt' > 'latn' <'AFK ' 'CAT ' 'EWE ' 'MOL ' 'PLK ' 'ROM ' 'TRK ' 'dflt' > ) ]
Lookup: 1 0 0 "'locl' Localized Forms in Latin lookup 2" { "'locl' Localized Forms in Latin lookup 2 subtable"  } ['locl' ('latn' <'TAT ' > ) ]
Lookup: 1 0 0 "'locl' Localized Forms in Latin lookup 3" { "'locl' Localized Forms in Latin lookup 3 subtable"  } ['locl' ('latn' <'TRK ' > ) ]

StartChar: .notdef
Encoding: 65536 -1 0
Width: 658
GlyphClass: 1
Flags: W
LayerCount: 2
Fore
SplineSet
647 1050 m 1,0,-1
 449 -350 l 1,1,-1
 35 -350 l 1,2,-1
 232 1050 l 1,3,-1
 647 1050 l 1,0,-1
586 998 m 1,4,-1
 280 998 l 1,5,-1
 97 -298 l 1,6,-1
 403 -298 l 1,7,-1
 586 998 l 1,4,-1
417.5 425.5 m 128,-1,9
 441 400 441 400 441 359 c 0,10,11
 441 350 441 350 439 332 c 0,12,13
 432 280 432 280 407 252.5 c 128,-1,14
 382 225 382 225 332 218 c 1,15,-1
 323 171 l 2,16,17
 322 160 322 160 314.5 154.5 c 128,-1,18
 307 149 307 149 299 149 c 0,19,20
 288 149 288 149 280.5 156.5 c 128,-1,21
 273 164 273 164 274 175 c 2,22,-1
 284 257 l 1,23,24
 337 260 337 260 359.5 278 c 128,-1,25
 382 296 382 296 387 338 c 0,26,27
 389 352 389 352 389 359 c 0,28,29
 389 403 389 403 339 403 c 0,30,31
 309 403 309 403 286 390 c 1,32,-1
 274 389 l 2,33,34
 262 389 262 389 255 396.5 c 128,-1,35
 248 404 248 404 250 416 c 0,36,37
 252 433 252 433 281 442 c 128,-1,38
 310 451 310 451 343 451 c 0,39,8
 394 451 394 451 417.5 425.5 c 128,-1,9
313.5 109 m 128,-1,41
 323 98 323 98 321 81 c 0,42,43
 319 67 319 67 308.5 57.5 c 128,-1,44
 298 48 298 48 284 48 c 0,45,46
 268 48 268 48 259 60 c 128,-1,47
 250 72 250 72 253 89 c 0,48,49
 254 102 254 102 264 111 c 128,-1,50
 274 120 274 120 288 120 c 0,51,40
 304 120 304 120 313.5 109 c 128,-1,41
EndSplineSet
EndChar

StartChar: A
Encoding: 65 65 3
Width: 574
GlyphClass: 2
Flags: W
AnchorPoint: "Anchor-18" 0 0 basechar 0
AnchorPoint: "Anchor-17" 0 0 basechar 0
AnchorPoint: "Anchor-16" 347 691 basechar 0
AnchorPoint: "Anchor-15" 493 0 basechar 0
AnchorPoint: "Anchor-14" 249 0 basechar 0
LayerCount: 2
Fore
SplineSet
405 0 m 1,0,-1
 385 160 l 1,1,-1
 157 160 l 1,2,-1
 93 0 l 1,3,-1
 -43 0 l 1,4,-1
 267 691 l 1,5,-1
 427 691 l 1,6,-1
 542 0 l 1,7,-1
 405 0 l 1,0,-1
197 260 m 1,8,-1
 373 260 l 1,9,-1
 332 595 l 1,10,-1
 197 260 l 1,8,-1
EndSplineSet
Substitution2: "Single Substitution lookup 44 subtable" ordfeminine
Substitution2: "'c2sc' Capitals to Small Capitals lookup 27 subtable" a.sc
AlternateSubs2: "'aalt' Access All Alternates lookup 1 subtable" ordfeminine a.sc
Position2: "'cpsp' Capital Spacing lookup 0 subtable" dx=5 dy=0 dh=10 dv=0
EndChar

StartChar: uni1EAE
Encoding: 7854 7854 6
Width: 574
GlyphClass: 2
Flags: W
AnchorPoint: "Anchor-18" 0 0 basechar 0
AnchorPoint: "Anchor-17" 0 0 basechar 0
AnchorPoint: "Anchor-16" 377 898 basechar 0
AnchorPoint: "Anchor-15" 493 0 basechar 0
AnchorPoint: "Anchor-14" 0 0 basechar 0
LayerCount: 2
Fore
SplineSet
534 1020 m 1,0,-1
 371 886 l 1,1,-1
 325 931 l 1,2,-1
 469 1090 l 1,3,-1
 534 1020 l 1,0,-1
251 780 m 128,-1,5
 213 822 213 822 215 885 c 1,6,-1
 288 895 l 1,7,8
 301 830 301 830 363 830 c 0,9,10
 397 830 397 830 422.5 848.5 c 128,-1,11
 448 867 448 867 461 898 c 1,12,-1
 536 880 l 1,13,14
 521 818 521 818 472.5 778 c 128,-1,15
 424 738 424 738 357 738 c 0,16,4
 289 738 289 738 251 780 c 128,-1,5
405 0 m 1,17,-1
 385 160 l 1,18,-1
 157 160 l 1,19,-1
 93 0 l 1,20,-1
 -43 0 l 1,21,-1
 267 691 l 1,22,-1
 427 691 l 1,23,-1
 542 0 l 1,24,-1
 405 0 l 1,17,-1
197 260 m 1,25,-1
 373 260 l 1,26,-1
 332 595 l 1,27,-1
 197 260 l 1,25,-1
EndSplineSet
Substitution2: "'c2sc' Capitals to Small Capitals lookup 27 subtable" uni1EAF.sc
Substitution2: "'aalt' Access All Alternates lookup 0 subtable" uni1EAF.sc
Position2: "'cpsp' Capital Spacing lookup 0 subtable" dx=5 dy=0 dh=10 dv=0
EndChar

StartChar: uni1EB0
Encoding: 7856 7856 8
Width: 574
GlyphClass: 2
Flags: W
AnchorPoint: "Anchor-18" 0 0 basechar 0
AnchorPoint: "Anchor-17" 0 0 basechar 0
AnchorPoint: "Anchor-16" 375 898 basechar 0
AnchorPoint: "Anchor-15" 493 0 basechar 0
AnchorPoint: "Anchor-14" 0 0 basechar 0
LayerCount: 2
Fore
SplineSet
418 927 m 1,0,-1
 366 886 l 1,1,-1
 238 1023 l 1,2,-1
 316 1088 l 1,3,-1
 418 927 l 1,0,-1
249 780 m 128,-1,5
 211 822 211 822 213 885 c 1,6,-1
 286 895 l 1,7,8
 299 830 299 830 361 830 c 0,9,10
 395 830 395 830 420.5 848.5 c 128,-1,11
 446 867 446 867 459 898 c 1,12,-1
 534 880 l 1,13,14
 519 818 519 818 470.5 778 c 128,-1,15
 422 738 422 738 355 738 c 0,16,4
 287 738 287 738 249 780 c 128,-1,5
405 0 m 1,17,-1
 385 160 l 1,18,-1
 157 160 l 1,19,-1
 93 0 l 1,20,-1
 -43 0 l 1,21,-1
 267 691 l 1,22,-1
 427 691 l 1,23,-1
 542 0 l 1,24,-1
 405 0 l 1,17,-1
197 260 m 1,25,-1
 373 260 l 1,26,-1
 332 595 l 1,27,-1
 197 260 l 1,25,-1
EndSplineSet
Substitution2: "'c2sc' Capitals to Small Capitals lookup 27 subtable" uni1EB1.sc
Substitution2: "'aalt' Access All Alternates lookup 0 subtable" uni1EB1.sc
Position2: "'cpsp' Capital Spacing lookup 0 subtable" dx=5 dy=0 dh=10 dv=0
EndChar

StartChar: uni1EB4
Encoding: 7860 7860 10
Width: 574
GlyphClass: 2
Flags: W
AnchorPoint: "Anchor-18" 0 0 basechar 0
AnchorPoint: "Anchor-17" 0 0 basechar 0
AnchorPoint: "Anchor-16" 391 1060 basechar 0
AnchorPoint: "Anchor-15" 493 0 basechar 0
AnchorPoint: "Anchor-14" 0 0 basechar 0
LayerCount: 2
Fore
SplineSet
303 960 m 128,-1,1
 289 949 289 949 272 925 c 1,2,-1
 209 961 l 1,3,4
 234 1006 234 1006 267.5 1033 c 128,-1,5
 301 1060 301 1060 339 1060 c 0,6,7
 360 1060 360 1060 375.5 1053 c 128,-1,8
 391 1046 391 1046 408 1033 c 0,9,10
 421 1024 421 1024 428.5 1020 c 128,-1,11
 436 1016 436 1016 445 1016 c 0,12,13
 462 1016 462 1016 475.5 1026.5 c 128,-1,14
 489 1037 489 1037 504 1059 c 1,15,-1
 569 1024 l 1,16,17
 542 977 542 977 509.5 951 c 128,-1,18
 477 925 477 925 442 925 c 0,19,20
 421 925 421 925 405 932.5 c 128,-1,21
 389 940 389 940 371 953 c 0,22,23
 348 971 348 971 334 971 c 0,24,0
 317 971 317 971 303 960 c 128,-1,1
424.5 848.5 m 128,-1,26
 450 867 450 867 463 898 c 1,27,-1
 538 880 l 1,28,29
 523 818 523 818 474.5 778 c 128,-1,30
 426 738 426 738 359 738 c 0,31,32
 291 738 291 738 253 780 c 128,-1,33
 215 822 215 822 217 885 c 1,34,-1
 290 895 l 1,35,36
 303 830 303 830 365 830 c 0,37,25
 399 830 399 830 424.5 848.5 c 128,-1,26
267 691 m 1,38,-1
 427 691 l 1,39,-1
 542 0 l 1,40,-1
 405 0 l 1,41,-1
 385 160 l 1,42,-1
 157 160 l 1,43,-1
 93 0 l 1,44,-1
 -43 0 l 1,45,-1
 267 691 l 1,38,-1
197 260 m 1,46,-1
 373 260 l 1,47,-1
 332 595 l 1,48,-1
 197 260 l 1,46,-1
EndSplineSet
Substitution2: "'c2sc' Capitals to Small Capitals lookup 27 subtable" uni1EB5.sc
Substitution2: "'aalt' Access All Alternates lookup 0 subtable" uni1EB5.sc
Position2: "'cpsp' Capital Spacing lookup 0 subtable" dx=5 dy=0 dh=10 dv=0
EndChar

StartChar: uni1EA4
Encoding: 7844 7844 13
Width: 574
GlyphClass: 2
Flags: W
AnchorPoint: "Anchor-18" 0 0 basechar 0
AnchorPoint: "Anchor-17" 461 772 basechar 0
AnchorPoint: "Anchor-16" 371 895 basechar 0
AnchorPoint: "Anchor-15" 493 0 basechar 0
AnchorPoint: "Anchor-14" 0 0 basechar 0
LayerCount: 2
Fore
SplineSet
668 990 m 1,0,-1
 505 856 l 1,1,-1
 459 901 l 1,2,-1
 603 1060 l 1,3,-1
 668 990 l 1,0,-1
361 802 m 1,4,-1
 222 719 l 1,5,-1
 178 774 l 1,6,-1
 331 895 l 1,7,-1
 410 895 l 1,8,-1
 530 774 l 1,9,-1
 479 719 l 1,10,-1
 361 802 l 1,4,-1
267 691 m 1,11,-1
 427 691 l 1,12,-1
 542 0 l 1,13,-1
 405 0 l 1,14,-1
 385 160 l 1,15,-1
 157 160 l 1,16,-1
 93 0 l 1,17,-1
 -43 0 l 1,18,-1
 267 691 l 1,11,-1
197 260 m 1,19,-1
 373 260 l 1,20,-1
 332 595 l 1,21,-1
 197 260 l 1,19,-1
EndSplineSet
Substitution2: "'c2sc' Capitals to Small Capitals lookup 27 subtable" uni1EA5.sc
Substitution2: "'aalt' Access All Alternates lookup 0 subtable" uni1EA5.sc
Position2: "'cpsp' Capital Spacing lookup 0 subtable" dx=5 dy=0 dh=10 dv=0
EndChar

StartChar: uni1EA6
Encoding: 7846 7846 15
Width: 574
GlyphClass: 2
Flags: W
AnchorPoint: "Anchor-18" 0 0 basechar 0
AnchorPoint: "Anchor-17" 458 772 basechar 0
AnchorPoint: "Anchor-16" 368 895 basechar 0
AnchorPoint: "Anchor-15" 493 0 basechar 0
AnchorPoint: "Anchor-14" 0 0 basechar 0
LayerCount: 2
Fore
SplineSet
272 897 m 1,0,-1
 220 856 l 1,1,-1
 92 993 l 1,2,-1
 170 1058 l 1,3,-1
 272 897 l 1,0,-1
219 719 m 1,4,-1
 175 774 l 1,5,-1
 328 895 l 1,6,-1
 407 895 l 1,7,-1
 527 774 l 1,8,-1
 476 719 l 1,9,-1
 358 802 l 1,10,-1
 219 719 l 1,4,-1
405 0 m 1,11,-1
 385 160 l 1,12,-1
 157 160 l 1,13,-1
 93 0 l 1,14,-1
 -43 0 l 1,15,-1
 267 691 l 1,16,-1
 427 691 l 1,17,-1
 542 0 l 1,18,-1
 405 0 l 1,11,-1
197 260 m 1,19,-1
 373 260 l 1,20,-1
 332 595 l 1,21,-1
 197 260 l 1,19,-1
EndSplineSet
Substitution2: "'c2sc' Capitals to Small Capitals lookup 27 subtable" uni1EA7.sc
Substitution2: "'aalt' Access All Alternates lookup 0 subtable" uni1EA7.sc
Position2: "'cpsp' Capital Spacing lookup 0 subtable" dx=5 dy=0 dh=10 dv=0
EndChar

StartChar: uni1EAA
Encoding: 7850 7850 17
Width: 574
GlyphClass: 2
Flags: W
AnchorPoint: "Anchor-18" 0 0 basechar 0
AnchorPoint: "Anchor-17" 458 772 basechar 0
AnchorPoint: "Anchor-16" 386 1057 basechar 0
AnchorPoint: "Anchor-15" 493 0 basechar 0
AnchorPoint: "Anchor-14" 0 0 basechar 0
LayerCount: 2
Fore
SplineSet
298 957 m 128,-1,1
 284 946 284 946 267 922 c 1,2,-1
 204 958 l 1,3,4
 229 1003 229 1003 262.5 1030 c 128,-1,5
 296 1057 296 1057 334 1057 c 0,6,7
 355 1057 355 1057 370.5 1050 c 128,-1,8
 386 1043 386 1043 403 1030 c 0,9,10
 416 1021 416 1021 423.5 1017 c 128,-1,11
 431 1013 431 1013 440 1013 c 0,12,13
 457 1013 457 1013 470.5 1023.5 c 128,-1,14
 484 1034 484 1034 499 1056 c 1,15,-1
 564 1021 l 1,16,17
 537 974 537 974 504.5 948 c 128,-1,18
 472 922 472 922 437 922 c 0,19,20
 416 922 416 922 400 929.5 c 128,-1,21
 384 937 384 937 366 950 c 0,22,23
 343 968 343 968 329 968 c 0,24,0
 312 968 312 968 298 957 c 128,-1,1
358 802 m 1,25,-1
 219 719 l 1,26,-1
 175 774 l 1,27,-1
 328 895 l 1,28,-1
 407 895 l 1,29,-1
 527 774 l 1,30,-1
 476 719 l 1,31,-1
 358 802 l 1,25,-1
267 691 m 1,32,-1
 427 691 l 1,33,-1
 542 0 l 1,34,-1
 405 0 l 1,35,-1
 385 160 l 1,36,-1
 157 160 l 1,37,-1
 93 0 l 1,38,-1
 -43 0 l 1,39,-1
 267 691 l 1,32,-1
197 260 m 1,40,-1
 373 260 l 1,41,-1
 332 595 l 1,42,-1
 197 260 l 1,40,-1
EndSplineSet
Substitution2: "'c2sc' Capitals to Small Capitals lookup 27 subtable" uni1EAB.sc
Substitution2: "'aalt' Access All Alternates lookup 0 subtable" uni1EAB.sc
Position2: "'cpsp' Capital Spacing lookup 0 subtable" dx=5 dy=0 dh=10 dv=0
EndChar

StartChar: uni2C6D
Encoding: 11373 11373 27
Width: 675
GlyphClass: 2
Flags: W
AnchorPoint: "Anchor-18" 0 0 basechar 0
AnchorPoint: "Anchor-17" 0 0 basechar 0
AnchorPoint: "Anchor-16" 401 691 basechar 0
AnchorPoint: "Anchor-15" 0 0 basechar 0
AnchorPoint: "Anchor-14" 304 0 basechar 0
LayerCount: 2
Fore
SplineSet
572 115 m 0,1,2
 572 98 572 98 578.5 88.5 c 128,-1,3
 585 79 585 79 603 72 c 1,4,-1
 567 -13 l 1,5,6
 473 -3 473 -3 451 69 c 1,7,8
 377 -15 377 -15 276 -15 c 0,9,10
 171 -15 171 -15 109.5 57 c 128,-1,11
 48 129 48 129 48 260 c 0,12,13
 48 376 48 376 89.5 478.5 c 128,-1,14
 131 581 131 581 205 643.5 c 128,-1,15
 279 706 279 706 371 706 c 256,16,17
 463 706 463 706 520 633 c 1,18,-1
 539 691 l 1,19,-1
 652 691 l 1,20,-1
 574 138 l 2,21,0
 572 120 572 120 572 115 c 0,1,2
447 152 m 1,23,-1
 501 544 l 1,24,25
 478 574 478 574 450.5 589.5 c 128,-1,26
 423 605 423 605 384 605 c 0,27,28
 322 605 322 605 276.5 555 c 128,-1,29
 231 505 231 505 207 424.5 c 128,-1,30
 183 344 183 344 183 256 c 0,31,32
 183 85 183 85 307 85 c 0,33,22
 385 85 385 85 447 152 c 1,23,-1
EndSplineSet
Substitution2: "'c2sc' Capitals to Small Capitals lookup 27 subtable" uni2C6D.sc
Substitution2: "'aalt' Access All Alternates lookup 0 subtable" uni2C6D.sc
Position2: "'cpsp' Capital Spacing lookup 0 subtable" dx=5 dy=0 dh=10 dv=0
EndChar

StartChar: Aogonek
Encoding: 260 260 29
Width: 574
GlyphClass: 2
Flags: W
AnchorPoint: "Anchor-18" 0 0 basechar 0
AnchorPoint: "Anchor-17" 0 0 basechar 0
AnchorPoint: "Anchor-16" 347 691 basechar 0
AnchorPoint: "Anchor-15" 493 0 basechar 0
AnchorPoint: "Anchor-14" 249 0 basechar 0
LayerCount: 2
Fore
SplineSet
347 -119 m 0,1,2
 347 -154 347 -154 393 -154 c 0,3,4
 418 -154 418 -154 455 -146 c 1,5,-1
 437 -232 l 1,6,7
 400 -239 400 -239 372 -239 c 0,8,9
 316 -239 316 -239 282 -211.5 c 128,-1,10
 248 -184 248 -184 248 -139 c 0,11,12
 248 -35 248 -35 402 23 c 1,13,-1
 385 160 l 1,14,-1
 157 160 l 1,15,-1
 93 0 l 1,16,-1
 -43 0 l 1,17,-1
 267 691 l 1,18,-1
 427 691 l 1,19,-1
 542 0 l 1,20,-1
 485 0 l 1,21,0
 347 -54 347 -54 347 -119 c 0,1,2
197 260 m 1,22,-1
 373 260 l 1,23,-1
 332 595 l 1,24,-1
 197 260 l 1,22,-1
EndSplineSet
Substitution2: "'c2sc' Capitals to Small Capitals lookup 27 subtable" aogonek.sc
Substitution2: "'aalt' Access All Alternates lookup 0 subtable" aogonek.sc
Position2: "'cpsp' Capital Spacing lookup 0 subtable" dx=5 dy=0 dh=10 dv=0
EndChar

StartChar: uni023A
Encoding: 570 570 32
Width: 574
GlyphClass: 2
Flags: W
AnchorPoint: "Anchor-18" 0 0 basechar 0
AnchorPoint: "Anchor-17" 0 0 basechar 0
AnchorPoint: "Anchor-16" 347 691 basechar 0
AnchorPoint: "Anchor-15" 0 0 basechar 0
AnchorPoint: "Anchor-14" 250 0 basechar 0
LayerCount: 2
Fore
SplineSet
416 0 m 1,0,-1
 394 160 l 1,1,-1
 269 160 l 1,2,-1
 175 -72 l 1,3,-1
 124 -60 l 1,4,-1
 213 160 l 1,5,-1
 150 160 l 1,6,-1
 84 0 l 1,7,-1
 -43 0 l 1,8,-1
 267 691 l 1,9,-1
 427 691 l 1,10,-1
 428 688 l 1,11,-1
 454 753 l 1,12,-1
 505 741 l 1,13,-1
 444 590 l 1,14,-1
 542 0 l 1,15,-1
 416 0 l 1,0,-1
189 254 m 1,16,-1
 251 254 l 1,17,-1
 348 493 l 1,18,-1
 333 605 l 1,19,-1
 189 254 l 1,16,-1
307 254 m 1,20,-1
 381 254 l 1,21,-1
 363 390 l 1,22,-1
 307 254 l 1,20,-1
EndSplineSet
Substitution2: "'c2sc' Capitals to Small Capitals lookup 27 subtable" uni2C65.sc
Substitution2: "'aalt' Access All Alternates lookup 0 subtable" uni2C65.sc
Position2: "'cpsp' Capital Spacing lookup 0 subtable" dx=5 dy=0 dh=10 dv=0
EndChar

StartChar: AE
Encoding: 198 198 34
Width: 821
GlyphClass: 2
Flags: W
AnchorPoint: "Anchor-18" 0 0 basechar 0
AnchorPoint: "Anchor-17" 0 0 basechar 0
AnchorPoint: "Anchor-16" 534 691 basechar 0
AnchorPoint: "Anchor-15" 0 0 basechar 0
AnchorPoint: "Anchor-14" 373 0 basechar 0
LayerCount: 2
Fore
SplineSet
774 593 m 1,0,-1
 488 593 l 1,1,-1
 505 399 l 1,2,-1
 751 399 l 1,3,-1
 738 301 l 1,4,-1
 513 301 l 1,5,-1
 531 99 l 1,6,-1
 757 99 l 1,7,-1
 743 0 l 1,8,-1
 414 0 l 1,9,-1
 403 160 l 1,10,-1
 164 160 l 1,11,-1
 86 0 l 1,12,-1
 -54 0 l 1,13,-1
 307 691 l 1,14,-1
 802 691 l 1,15,-1
 774 593 l 1,0,-1
213 260 m 1,16,-1
 397 260 l 1,17,-1
 375 591 l 1,18,-1
 213 260 l 1,16,-1
EndSplineSet
Substitution2: "'c2sc' Capitals to Small Capitals lookup 27 subtable" ae.sc
Substitution2: "'aalt' Access All Alternates lookup 0 subtable" ae.sc
Position2: "'cpsp' Capital Spacing lookup 0 subtable" dx=5 dy=0 dh=10 dv=0
EndChar

StartChar: B
Encoding: 66 66 37
Width: 605
GlyphClass: 2
Flags: W
AnchorPoint: "Anchor-18" 0 0 basechar 0
AnchorPoint: "Anchor-17" 0 0 basechar 0
AnchorPoint: "Anchor-16" 338 691 basechar 0
AnchorPoint: "Anchor-15" 0 0 basechar 0
AnchorPoint: "Anchor-14" 270 0 basechar 0
LayerCount: 2
Fore
SplineSet
525 320.5 m 128,-1,1
 563 287 563 287 563 220 c 0,2,3
 563 120 563 120 490 60 c 128,-1,4
 417 0 417 0 250 0 c 2,5,-1
 43 0 l 1,6,-1
 140 691 l 1,7,-1
 337 691 l 2,8,9
 450 691 450 691 514 653 c 128,-1,10
 578 615 578 615 578 535 c 0,11,12
 578 466 578 466 534.5 423 c 128,-1,13
 491 380 491 380 425 365 c 1,14,0
 487 354 487 354 525 320.5 c 128,-1,1
256 594 m 1,15,-1
 230 407 l 1,16,-1
 309 407 l 2,17,18
 372 407 372 407 408 438 c 128,-1,19
 444 469 444 469 444 524 c 0,20,21
 444 563 444 563 416.5 578.5 c 128,-1,22
 389 594 389 594 339 594 c 2,23,-1
 256 594 l 1,15,-1
390.5 133 m 128,-1,25
 428 167 428 167 428 228 c 0,26,27
 428 315 428 315 310 315 c 2,28,-1
 217 315 l 1,29,-1
 187 99 l 1,30,-1
 259 99 l 2,31,24
 353 99 353 99 390.5 133 c 128,-1,25
EndSplineSet
Substitution2: "'c2sc' Capitals to Small Capitals lookup 27 subtable" b.sc
Substitution2: "'aalt' Access All Alternates lookup 0 subtable" b.sc
Position2: "'cpsp' Capital Spacing lookup 0 subtable" dx=5 dy=0 dh=10 dv=0
EndChar

StartChar: uniA7B4
Encoding: 42932 42932 40
Width: 604
GlyphClass: 2
Flags: W
AnchorPoint: "Anchor-18" 0 0 basechar 0
AnchorPoint: "Anchor-17" 0 0 basechar 0
AnchorPoint: "Anchor-16" 362 691 basechar 0
AnchorPoint: "Anchor-15" 0 0 basechar 0
AnchorPoint: "Anchor-14" 0 0 basechar 0
LayerCount: 2
Fore
SplineSet
564 226 m 0,1,2
 564 155 564 155 528 104 c 128,-1,3
 492 53 492 53 429.5 26.5 c 128,-1,4
 367 0 367 0 289 0 c 0,5,6
 233 0 233 0 176 15 c 1,7,-1
 145 -206 l 1,8,-1
 14 -206 l 1,9,-1
 140 691 l 1,10,-1
 337 691 l 2,11,12
 450 691 450 691 514 653 c 128,-1,13
 578 615 578 615 578 534 c 0,14,15
 578 465 578 465 535 422.5 c 128,-1,16
 492 380 492 380 428 365 c 1,17,0
 564 339 564 339 564 226 c 0,1,2
389.5 133 m 128,-1,19
 429 167 429 167 429 229 c 0,20,21
 429 315 429 315 316 315 c 2,22,-1
 274 315 l 1,23,-1
 297 407 l 1,24,-1
 316 407 l 2,25,26
 372 407 372 407 408 436 c 128,-1,27
 444 465 444 465 444 521 c 0,28,29
 444 562 444 562 416.5 578 c 128,-1,30
 389 594 389 594 339 594 c 2,31,-1
 257 594 l 1,32,-1
 189 109 l 1,33,34
 239 99 239 99 282 99 c 0,35,18
 350 99 350 99 389.5 133 c 128,-1,19
EndSplineSet
Substitution2: "'c2sc' Capitals to Small Capitals lookup 27 subtable" uniA7B4.sc
Substitution2: "'aalt' Access All Alternates lookup 0 subtable" uniA7B4.sc
Position2: "'cpsp' Capital Spacing lookup 0 subtable" dx=5 dy=0 dh=10 dv=0
EndChar

StartChar: uni0181
Encoding: 385 385 41
Width: 718
GlyphClass: 2
Flags: W
AnchorPoint: "Anchor-18" 0 0 basechar 0
AnchorPoint: "Anchor-17" 0 0 basechar 0
AnchorPoint: "Anchor-16" 452 691 basechar 0
AnchorPoint: "Anchor-15" 0 0 basechar 0
AnchorPoint: "Anchor-14" 384 0 basechar 0
LayerCount: 2
Fore
SplineSet
639 320.5 m 128,-1,1
 677 287 677 287 677 220 c 0,2,3
 677 120 677 120 604 60 c 128,-1,4
 531 0 531 0 364 0 c 2,5,-1
 157 0 l 1,6,-1
 240 593 l 1,7,-1
 213 593 l 2,8,9
 185 593 185 593 170 577 c 128,-1,10
 155 561 155 561 155 530 c 0,11,12
 155 507 155 507 164 479 c 1,13,-1
 72 442 l 1,14,15
 47 490 47 490 47 535 c 0,16,17
 47 607 47 607 95 649 c 128,-1,18
 143 691 143 691 226 691 c 2,19,-1
 451 691 l 2,20,21
 564 691 564 691 628 653 c 128,-1,22
 692 615 692 615 692 535 c 0,23,24
 692 466 692 466 648.5 423 c 128,-1,25
 605 380 605 380 539 365 c 1,26,0
 601 354 601 354 639 320.5 c 128,-1,1
370 594 m 1,27,-1
 344 407 l 1,28,-1
 423 407 l 2,29,30
 486 407 486 407 522 438 c 128,-1,31
 558 469 558 469 558 524 c 0,32,33
 558 563 558 563 530.5 578.5 c 128,-1,34
 503 594 503 594 453 594 c 2,35,-1
 370 594 l 1,27,-1
504.5 133 m 128,-1,37
 542 167 542 167 542 228 c 0,38,39
 542 315 542 315 424 315 c 2,40,-1
 331 315 l 1,41,-1
 301 99 l 1,42,-1
 373 99 l 2,43,36
 467 99 467 99 504.5 133 c 128,-1,37
EndSplineSet
Substitution2: "'ss02' Style Set 2 lookup 35 subtable" uni0181.ss02
Substitution2: "'c2sc' Capitals to Small Capitals lookup 27 subtable" uni0253.sc
AlternateSubs2: "'aalt' Access All Alternates lookup 1 subtable" uni0253.sc uni0181.ss02
Position2: "'cpsp' Capital Spacing lookup 0 subtable" dx=5 dy=0 dh=10 dv=0
EndChar

StartChar: uni0243
Encoding: 579 579 42
Width: 616
GlyphClass: 2
Flags: W
AnchorPoint: "Anchor-18" 0 0 basechar 0
AnchorPoint: "Anchor-17" 0 0 basechar 0
AnchorPoint: "Anchor-16" 349 691 basechar 0
AnchorPoint: "Anchor-15" 0 0 basechar 0
AnchorPoint: "Anchor-14" 281 0 basechar 0
LayerCount: 2
Fore
SplineSet
536 320.5 m 128,-1,1
 574 287 574 287 574 220 c 0,2,3
 574 120 574 120 501 60 c 128,-1,4
 428 0 428 0 261 0 c 2,5,-1
 54 0 l 1,6,-1
 78 172 l 1,7,-1
 3 172 l 1,8,-1
 14 248 l 1,9,-1
 89 248 l 1,10,-1
 151 691 l 1,11,-1
 348 691 l 2,12,13
 461 691 461 691 525 653 c 128,-1,14
 589 615 589 615 589 535 c 0,15,16
 589 466 589 466 545.5 423 c 128,-1,17
 502 380 502 380 436 365 c 1,18,0
 498 354 498 354 536 320.5 c 128,-1,1
267 594 m 1,19,-1
 241 407 l 1,20,-1
 320 407 l 2,21,22
 383 407 383 407 419 438 c 128,-1,23
 455 469 455 469 455 524 c 0,24,25
 455 563 455 563 427.5 578.5 c 128,-1,26
 400 594 400 594 350 594 c 2,27,-1
 267 594 l 1,19,-1
401.5 133 m 128,-1,29
 439 167 439 167 439 228 c 0,30,31
 439 315 439 315 321 315 c 2,32,-1
 228 315 l 1,33,-1
 219 248 l 1,34,-1
 354 248 l 1,35,-1
 342 172 l 1,36,-1
 208 172 l 1,37,-1
 198 99 l 1,38,-1
 270 99 l 2,39,28
 364 99 364 99 401.5 133 c 128,-1,29
EndSplineSet
Substitution2: "'c2sc' Capitals to Small Capitals lookup 27 subtable" uni0180.sc
Substitution2: "'aalt' Access All Alternates lookup 0 subtable" uni0180.sc
Position2: "'cpsp' Capital Spacing lookup 0 subtable" dx=5 dy=0 dh=10 dv=0
EndChar

StartChar: C
Encoding: 67 67 44
Width: 560
GlyphClass: 2
Flags: W
AnchorPoint: "Anchor-18" 0 0 basechar 0
AnchorPoint: "Anchor-17" 0 0 basechar 0
AnchorPoint: "Anchor-16" 407 691 basechar 0
AnchorPoint: "Anchor-15" 0 0 basechar 0
AnchorPoint: "Anchor-14" 303 0 basechar 0
LayerCount: 2
Fore
SplineSet
591 629 m 1,1,-1
 519 559 l 1,2,3
 490 582 490 582 461 593 c 128,-1,4
 432 604 432 604 398 604 c 0,5,6
 323 604 323 604 275 551 c 128,-1,7
 227 498 227 498 206 420.5 c 128,-1,8
 185 343 185 343 185 265 c 0,9,10
 185 176 185 176 221 133.5 c 128,-1,11
 257 91 257 91 320 91 c 0,12,13
 361 91 361 91 395 106 c 128,-1,14
 429 121 429 121 468 149 c 1,15,-1
 521 67 l 1,16,17
 479 31 479 31 424.5 8 c 128,-1,18
 370 -15 370 -15 304 -15 c 0,19,20
 187 -15 187 -15 118 59 c 128,-1,21
 49 133 49 133 49 269 c 0,22,23
 49 371 49 371 85 471.5 c 128,-1,24
 121 572 121 572 199 639 c 128,-1,25
 277 706 277 706 394 706 c 0,26,0
 514 706 514 706 591 629 c 1,1,-1
EndSplineSet
Substitution2: "'c2sc' Capitals to Small Capitals lookup 27 subtable" c.sc
Substitution2: "'aalt' Access All Alternates lookup 0 subtable" c.sc
Position2: "'cpsp' Capital Spacing lookup 0 subtable" dx=5 dy=0 dh=10 dv=0
EndChar

StartChar: Ccedilla
Encoding: 199 199 47
Width: 560
GlyphClass: 2
Flags: W
AnchorPoint: "Anchor-18" 0 0 basechar 0
AnchorPoint: "Anchor-17" 0 0 basechar 0
AnchorPoint: "Anchor-16" 407 691 basechar 0
AnchorPoint: "Anchor-15" 0 0 basechar 0
AnchorPoint: "Anchor-14" 297 -253 basechar 0
LayerCount: 2
Fore
SplineSet
340 -13 m 1,1,-1
 333 -52 l 1,2,3
 376 -56 376 -56 398 -79 c 128,-1,4
 420 -102 420 -102 420 -138 c 0,5,6
 420 -167 420 -167 404 -193.5 c 128,-1,7
 388 -220 388 -220 355 -236.5 c 128,-1,8
 322 -253 322 -253 274 -253 c 0,9,10
 214 -253 214 -253 173 -223 c 1,11,-1
 211 -162 l 1,12,13
 238 -178 238 -178 272 -178 c 0,14,15
 295 -178 295 -178 309.5 -168.5 c 128,-1,16
 324 -159 324 -159 325 -141 c 0,17,18
 325 -121 325 -121 306.5 -113.5 c 128,-1,19
 288 -106 288 -106 241 -106 c 1,20,-1
 264 -13 l 1,21,22
 164 0 164 0 106.5 73 c 128,-1,23
 49 146 49 146 49 269 c 0,24,25
 49 371 49 371 85 471.5 c 128,-1,26
 121 572 121 572 199 639 c 128,-1,27
 277 706 277 706 394 706 c 0,28,29
 514 706 514 706 591 629 c 1,30,-1
 519 559 l 1,31,32
 490 582 490 582 461 593 c 128,-1,33
 432 604 432 604 398 604 c 0,34,35
 323 604 323 604 275 551 c 128,-1,36
 227 498 227 498 206 420.5 c 128,-1,37
 185 343 185 343 185 265 c 0,38,39
 185 176 185 176 221 133.5 c 128,-1,40
 257 91 257 91 320 91 c 0,41,42
 361 91 361 91 395 106 c 128,-1,43
 429 121 429 121 468 149 c 1,44,-1
 521 67 l 1,45,0
 440 -3 440 -3 340 -13 c 1,1,-1
EndSplineSet
Substitution2: "'c2sc' Capitals to Small Capitals lookup 27 subtable" ccedilla.sc
Substitution2: "'aalt' Access All Alternates lookup 0 subtable" ccedilla.sc
Position2: "'cpsp' Capital Spacing lookup 0 subtable" dx=5 dy=0 dh=10 dv=0
EndChar

StartChar: uniA7B3
Encoding: 42931 42931 50
Width: 545
GlyphClass: 2
Flags: W
AnchorPoint: "Anchor-18" 0 0 basechar 0
AnchorPoint: "Anchor-17" 0 0 basechar 0
AnchorPoint: "Anchor-16" 332 691 basechar 0
AnchorPoint: "Anchor-15" 0 0 basechar 0
AnchorPoint: "Anchor-14" 0 0 basechar 0
LayerCount: 2
Fore
SplineSet
587 691 m 1,0,-1
 351 298 l 1,1,-1
 487 -147 l 1,2,-1
 349 -147 l 1,3,-1
 263 207 l 1,4,-1
 87 -147 l 1,5,-1
 -58 -147 l 1,6,-1
 197 297 l 1,7,-1
 76 691 l 1,8,-1
 215 691 l 1,9,-1
 285 382 l 1,10,-1
 443 691 l 1,11,-1
 587 691 l 1,0,-1
EndSplineSet
Substitution2: "'c2sc' Capitals to Small Capitals lookup 27 subtable" uniA7B3.sc
Substitution2: "'aalt' Access All Alternates lookup 0 subtable" uniA7B3.sc
Position2: "'cpsp' Capital Spacing lookup 0 subtable" dx=5 dy=0 dh=10 dv=0
EndChar

StartChar: uni0187
Encoding: 391 391 51
Width: 568
GlyphClass: 2
Flags: W
AnchorPoint: "Anchor-18" 0 0 basechar 0
AnchorPoint: "Anchor-17" 0 0 basechar 0
AnchorPoint: "Anchor-16" 354 741 basechar 0
AnchorPoint: "Anchor-15" 0 0 basechar 0
AnchorPoint: "Anchor-14" 247 0 basechar 0
LayerCount: 2
Fore
SplineSet
780 803 m 1,1,-1
 730 725 l 1,2,3
 713 736 713 736 699 740.5 c 128,-1,4
 685 745 685 745 665 745 c 0,5,6
 637 745 637 745 619 728 c 128,-1,7
 601 711 601 711 597 676 c 2,8,-1
 590 629 l 1,9,-1
 529 566 l 1,10,11
 467 604 467 604 400 604 c 0,12,13
 324 604 324 604 275.5 551 c 128,-1,14
 227 498 227 498 206 420.5 c 128,-1,15
 185 343 185 343 185 265 c 0,16,17
 185 176 185 176 221 133.5 c 128,-1,18
 257 91 257 91 320 91 c 0,19,20
 361 91 361 91 394 106 c 128,-1,21
 427 121 427 121 468 150 c 1,22,-1
 521 67 l 1,23,24
 479 31 479 31 424.5 8 c 128,-1,25
 370 -15 370 -15 306 -15 c 0,26,27
 186 -15 186 -15 117 58.5 c 128,-1,28
 48 132 48 132 48 269 c 0,29,30
 48 369 48 369 85.5 470.5 c 128,-1,31
 123 572 123 572 199 639 c 128,-1,32
 275 706 275 706 384 706 c 0,33,34
 438 706 438 706 481 687 c 1,35,36
 492 762 492 762 537.5 802.5 c 128,-1,37
 583 843 583 843 659 843 c 0,38,0
 728 843 728 843 780 803 c 1,1,-1
EndSplineSet
Substitution2: "'c2sc' Capitals to Small Capitals lookup 27 subtable" uni0188.sc
Substitution2: "'aalt' Access All Alternates lookup 0 subtable" uni0188.sc
Position2: "'cpsp' Capital Spacing lookup 0 subtable" dx=5 dy=0 dh=10 dv=0
EndChar

StartChar: uni023B
Encoding: 571 571 52
Width: 560
GlyphClass: 2
Flags: W
AnchorPoint: "Anchor-18" 0 0 basechar 0
AnchorPoint: "Anchor-17" 0 0 basechar 0
AnchorPoint: "Anchor-16" 340 691 basechar 0
AnchorPoint: "Anchor-15" 0 0 basechar 0
AnchorPoint: "Anchor-14" 243 0 basechar 0
LayerCount: 2
Fore
SplineSet
395 106 m 128,-1,1
 429 121 429 121 468 149 c 1,2,-1
 521 67 l 1,3,4
 479 31 479 31 424.5 8 c 128,-1,5
 370 -15 370 -15 304 -15 c 0,6,7
 260 -15 260 -15 226 -5 c 1,8,-1
 199 -72 l 1,9,-1
 147 -60 l 1,10,-1
 177 14 l 1,11,12
 116 46 116 46 82.5 111 c 128,-1,13
 49 176 49 176 49 269 c 0,14,15
 49 371 49 371 85 471.5 c 128,-1,16
 121 572 121 572 199 639 c 128,-1,17
 277 706 277 706 394 706 c 0,18,19
 427 706 427 706 457 700 c 1,20,-1
 478 753 l 1,21,-1
 529 741 l 1,22,-1
 507 686 l 1,23,24
 552 668 552 668 591 629 c 1,25,-1
 519 559 l 1,26,27
 491 581 491 581 468 590 c 1,28,-1
 269 99 l 1,29,30
 293 91 293 91 320 91 c 0,31,0
 361 91 361 91 395 106 c 128,-1,1
224 130 m 1,33,-1
 417 603 l 1,34,35
 411 604 411 604 398 604 c 0,36,37
 323 604 323 604 275 551 c 128,-1,38
 227 498 227 498 206 420.5 c 128,-1,39
 185 343 185 343 185 265 c 0,40,32
 185 172 185 172 224 130 c 1,33,-1
EndSplineSet
Substitution2: "'c2sc' Capitals to Small Capitals lookup 27 subtable" uni023C.sc
Substitution2: "'aalt' Access All Alternates lookup 0 subtable" uni023C.sc
Position2: "'cpsp' Capital Spacing lookup 0 subtable" dx=5 dy=0 dh=10 dv=0
EndChar

StartChar: D
Encoding: 68 68 53
Width: 641
GlyphClass: 2
Flags: W
AnchorPoint: "Anchor-18" 332 346 basechar 0
AnchorPoint: "Anchor-17" 0 0 basechar 0
AnchorPoint: "Anchor-16" 355 691 basechar 0
AnchorPoint: "Anchor-15" 0 0 basechar 0
AnchorPoint: "Anchor-14" 251 0 basechar 0
LayerCount: 2
Fore
SplineSet
531 634 m 128,-1,1
 615 577 615 577 615 429 c 0,2,3
 615 310 615 310 576.5 213.5 c 128,-1,4
 538 117 538 117 452.5 58.5 c 128,-1,5
 367 0 367 0 231 0 c 2,6,-1
 43 0 l 1,7,-1
 140 691 l 1,8,-1
 307 691 l 2,9,0
 447 691 447 691 531 634 c 128,-1,1
257 592 m 1,10,-1
 188 99 l 1,11,-1
 250 99 l 2,12,13
 334 99 334 99 386 148 c 128,-1,14
 438 197 438 197 459.5 272 c 128,-1,15
 481 347 481 347 481 430 c 0,16,17
 481 525 481 525 438 558.5 c 128,-1,18
 395 592 395 592 318 592 c 2,19,-1
 257 592 l 1,10,-1
EndSplineSet
Substitution2: "'c2sc' Capitals to Small Capitals lookup 27 subtable" d.sc
Substitution2: "'aalt' Access All Alternates lookup 0 subtable" d.sc
Position2: "'cpsp' Capital Spacing lookup 0 subtable" dx=5 dy=0 dh=10 dv=0
EndChar

StartChar: Eth
Encoding: 208 208 57
Width: 650
GlyphClass: 2
Flags: W
AnchorPoint: "Anchor-18" 342 346 basechar 0
AnchorPoint: "Anchor-17" 0 0 basechar 0
AnchorPoint: "Anchor-16" 365 691 basechar 0
AnchorPoint: "Anchor-15" 0 0 basechar 0
AnchorPoint: "Anchor-14" 261 0 basechar 0
LayerCount: 2
Fore
SplineSet
541 634 m 128,-1,1
 625 577 625 577 625 429 c 0,2,3
 625 310 625 310 586.5 213.5 c 128,-1,4
 548 117 548 117 462.5 58.5 c 128,-1,5
 377 0 377 0 241 0 c 2,6,-1
 53 0 l 1,7,-1
 97 310 l 1,8,-1
 22 310 l 1,9,-1
 33 396 l 1,10,-1
 109 396 l 1,11,-1
 150 691 l 1,12,-1
 317 691 l 2,13,0
 457 691 457 691 541 634 c 128,-1,1
396 148 m 128,-1,15
 448 197 448 197 469.5 272 c 128,-1,16
 491 347 491 347 491 430 c 0,17,18
 491 525 491 525 448 558.5 c 128,-1,19
 405 592 405 592 328 592 c 2,20,-1
 267 592 l 1,21,-1
 240 396 l 1,22,-1
 383 396 l 1,23,-1
 371 310 l 1,24,-1
 228 310 l 1,25,-1
 198 99 l 1,26,-1
 260 99 l 2,27,14
 344 99 344 99 396 148 c 128,-1,15
EndSplineSet
Substitution2: "'c2sc' Capitals to Small Capitals lookup 27 subtable" eth.sc
Substitution2: "'aalt' Access All Alternates lookup 0 subtable" eth.sc
Position2: "'cpsp' Capital Spacing lookup 0 subtable" dx=5 dy=0 dh=10 dv=0
EndChar

StartChar: uni018A
Encoding: 394 394 63
Width: 754
GlyphClass: 2
Flags: W
AnchorPoint: "Anchor-18" 446 346 basechar 0
AnchorPoint: "Anchor-17" 0 0 basechar 0
AnchorPoint: "Anchor-16" 469 691 basechar 0
AnchorPoint: "Anchor-15" 0 0 basechar 0
AnchorPoint: "Anchor-14" 365 0 basechar 0
LayerCount: 2
Fore
SplineSet
645 634 m 128,-1,1
 729 577 729 577 729 429 c 0,2,3
 729 310 729 310 690.5 213.5 c 128,-1,4
 652 117 652 117 566.5 58.5 c 128,-1,5
 481 0 481 0 345 0 c 2,6,-1
 157 0 l 1,7,-1
 240 593 l 1,8,-1
 213 593 l 2,9,10
 185 593 185 593 170 577 c 128,-1,11
 155 561 155 561 155 530 c 0,12,13
 155 507 155 507 164 479 c 1,14,-1
 72 442 l 1,15,16
 47 490 47 490 47 535 c 0,17,18
 47 607 47 607 95 649 c 128,-1,19
 143 691 143 691 226 691 c 2,20,-1
 421 691 l 2,21,0
 561 691 561 691 645 634 c 128,-1,1
500 148 m 128,-1,23
 552 197 552 197 573.5 272 c 128,-1,24
 595 347 595 347 595 430 c 0,25,26
 595 525 595 525 552 558.5 c 128,-1,27
 509 592 509 592 432 592 c 2,28,-1
 371 592 l 1,29,-1
 302 99 l 1,30,-1
 364 99 l 2,31,22
 448 99 448 99 500 148 c 128,-1,23
EndSplineSet
Substitution2: "'c2sc' Capitals to Small Capitals lookup 27 subtable" uni0257.sc
Substitution2: "'aalt' Access All Alternates lookup 0 subtable" uni0257.sc
Position2: "'cpsp' Capital Spacing lookup 0 subtable" dx=5 dy=0 dh=10 dv=0
EndChar

StartChar: uni018B
Encoding: 395 395 65
Width: 583
GlyphClass: 2
Flags: W
AnchorPoint: "Anchor-18" 0 0 basechar 0
AnchorPoint: "Anchor-17" 0 0 basechar 0
AnchorPoint: "Anchor-16" 351 691 basechar 0
AnchorPoint: "Anchor-15" 0 0 basechar 0
AnchorPoint: "Anchor-14" 254 0 basechar 0
LayerCount: 2
Fore
SplineSet
562 690 m 1,0,-1
 465 0 l 1,1,-1
 248 0 l 2,2,3
 142 0 142 0 78.5 49 c 128,-1,4
 15 98 15 98 15 202 c 0,5,6
 15 315 15 315 95 377 c 128,-1,7
 175 439 175 439 313 439 c 2,8,-1
 397 439 l 1,9,-1
 418 588 l 1,10,-1
 152 588 l 1,11,-1
 166 691 l 1,12,-1
 563 691 l 1,13,-1
 562 690 l 1,0,-1
349 99 m 1,14,-1
 383 343 l 1,15,-1
 310 343 l 2,16,17
 231 343 231 343 192 306.5 c 128,-1,18
 153 270 153 270 153 204 c 0,19,20
 153 148 153 148 181 123.5 c 128,-1,21
 209 99 209 99 270 99 c 2,22,-1
 349 99 l 1,14,-1
EndSplineSet
Substitution2: "'c2sc' Capitals to Small Capitals lookup 27 subtable" uni018C.sc
Substitution2: "'aalt' Access All Alternates lookup 0 subtable" uni018C.sc
Position2: "'cpsp' Capital Spacing lookup 0 subtable" dx=5 dy=0 dh=10 dv=0
EndChar

StartChar: E
Encoding: 69 69 68
Width: 523
GlyphClass: 2
Flags: W
AnchorPoint: "Anchor-18" 0 0 basechar 0
AnchorPoint: "Anchor-17" 0 0 basechar 0
AnchorPoint: "Anchor-16" 341 691 basechar 0
AnchorPoint: "Anchor-15" 413 0 basechar 0
AnchorPoint: "Anchor-14" 243 0 basechar 0
LayerCount: 2
Fore
SplineSet
536 691 m 1,0,-1
 508 593 l 1,1,-1
 257 593 l 1,2,-1
 229 400 l 1,3,-1
 448 400 l 1,4,-1
 435 302 l 1,5,-1
 216 302 l 1,6,-1
 188 99 l 1,7,-1
 457 99 l 1,8,-1
 443 0 l 1,9,-1
 43 0 l 1,10,-1
 140 691 l 1,11,-1
 536 691 l 1,0,-1
EndSplineSet
Substitution2: "'c2sc' Capitals to Small Capitals lookup 27 subtable" e.sc
Substitution2: "'aalt' Access All Alternates lookup 0 subtable" e.sc
Position2: "'cpsp' Capital Spacing lookup 0 subtable" dx=5 dy=0 dh=10 dv=0
EndChar

StartChar: uni0228
Encoding: 552 552 72
Width: 523
GlyphClass: 2
Flags: W
AnchorPoint: "Anchor-18" 0 0 basechar 0
AnchorPoint: "Anchor-17" 0 0 basechar 0
AnchorPoint: "Anchor-16" 341 691 basechar 0
AnchorPoint: "Anchor-15" 413 0 basechar 0
AnchorPoint: "Anchor-14" 243 0 basechar 0
LayerCount: 2
Fore
SplineSet
257 593 m 1,0,-1
 229 400 l 1,1,-1
 448 400 l 1,2,-1
 435 302 l 1,3,-1
 216 302 l 1,4,-1
 188 99 l 1,5,-1
 457 99 l 1,6,-1
 443 0 l 1,7,-1
 281 0 l 1,8,-1
 272 -52 l 1,9,10
 316 -56 316 -56 337.5 -79 c 128,-1,11
 359 -102 359 -102 359 -137 c 0,12,13
 359 -165 359 -165 343.5 -191.5 c 128,-1,14
 328 -218 328 -218 294.5 -235.5 c 128,-1,15
 261 -253 261 -253 211 -253 c 0,16,17
 153 -253 153 -253 112 -223 c 1,18,-1
 150 -163 l 1,19,20
 177 -178 177 -178 212 -178 c 0,21,22
 236 -178 236 -178 250 -168.5 c 128,-1,23
 264 -159 264 -159 264 -141 c 0,24,25
 264 -121 264 -121 245.5 -113.5 c 128,-1,26
 227 -106 227 -106 180 -106 c 1,27,-1
 206 0 l 1,28,-1
 43 0 l 1,29,-1
 140 691 l 1,30,-1
 536 691 l 1,31,-1
 508 593 l 1,32,-1
 257 593 l 1,0,-1
EndSplineSet
Substitution2: "'c2sc' Capitals to Small Capitals lookup 27 subtable" uni0229.sc
Substitution2: "'aalt' Access All Alternates lookup 0 subtable" uni0229.sc
Position2: "'cpsp' Capital Spacing lookup 0 subtable" dx=5 dy=0 dh=10 dv=0
EndChar

StartChar: uni1EBE
Encoding: 7870 7870 74
Width: 523
GlyphClass: 2
Flags: W
AnchorPoint: "Anchor-18" 0 0 basechar 0
AnchorPoint: "Anchor-17" 455 772 basechar 0
AnchorPoint: "Anchor-16" 365 895 basechar 0
AnchorPoint: "Anchor-15" 413 0 basechar 0
AnchorPoint: "Anchor-14" 0 0 basechar 0
LayerCount: 2
Fore
SplineSet
597 1060 m 1,0,-1
 662 990 l 1,1,-1
 499 856 l 1,2,-1
 453 901 l 1,3,-1
 597 1060 l 1,0,-1
216 719 m 1,4,-1
 172 774 l 1,5,-1
 325 895 l 1,6,-1
 404 895 l 1,7,-1
 524 774 l 1,8,-1
 473 719 l 1,9,-1
 355 802 l 1,10,-1
 216 719 l 1,4,-1
536 691 m 1,11,-1
 508 593 l 1,12,-1
 257 593 l 1,13,-1
 229 400 l 1,14,-1
 448 400 l 1,15,-1
 435 302 l 1,16,-1
 216 302 l 1,17,-1
 188 99 l 1,18,-1
 457 99 l 1,19,-1
 443 0 l 1,20,-1
 43 0 l 1,21,-1
 140 691 l 1,22,-1
 536 691 l 1,11,-1
EndSplineSet
Substitution2: "'c2sc' Capitals to Small Capitals lookup 27 subtable" uni1EBF.sc
Substitution2: "'aalt' Access All Alternates lookup 0 subtable" uni1EBF.sc
Position2: "'cpsp' Capital Spacing lookup 0 subtable" dx=5 dy=0 dh=10 dv=0
EndChar

StartChar: uni1EC0
Encoding: 7872 7872 76
Width: 523
GlyphClass: 2
Flags: W
AnchorPoint: "Anchor-18" 0 0 basechar 0
AnchorPoint: "Anchor-17" 452 772 basechar 0
AnchorPoint: "Anchor-16" 362 895 basechar 0
AnchorPoint: "Anchor-15" 413 0 basechar 0
AnchorPoint: "Anchor-14" 0 0 basechar 0
LayerCount: 2
Fore
SplineSet
164 1058 m 1,0,-1
 266 897 l 1,1,-1
 214 856 l 1,2,-1
 86 993 l 1,3,-1
 164 1058 l 1,0,-1
213 719 m 1,4,-1
 169 774 l 1,5,-1
 322 895 l 1,6,-1
 401 895 l 1,7,-1
 521 774 l 1,8,-1
 470 719 l 1,9,-1
 352 802 l 1,10,-1
 213 719 l 1,4,-1
536 691 m 1,11,-1
 508 593 l 1,12,-1
 257 593 l 1,13,-1
 229 400 l 1,14,-1
 448 400 l 1,15,-1
 435 302 l 1,16,-1
 216 302 l 1,17,-1
 188 99 l 1,18,-1
 457 99 l 1,19,-1
 443 0 l 1,20,-1
 43 0 l 1,21,-1
 140 691 l 1,22,-1
 536 691 l 1,11,-1
EndSplineSet
Substitution2: "'c2sc' Capitals to Small Capitals lookup 27 subtable" uni1EC1.sc
Substitution2: "'aalt' Access All Alternates lookup 0 subtable" uni1EC1.sc
Position2: "'cpsp' Capital Spacing lookup 0 subtable" dx=5 dy=0 dh=10 dv=0
EndChar

StartChar: uni1EC4
Encoding: 7876 7876 78
Width: 523
GlyphClass: 2
Flags: W
AnchorPoint: "Anchor-18" 0 0 basechar 0
AnchorPoint: "Anchor-17" 452 772 basechar 0
AnchorPoint: "Anchor-16" 380 1057 basechar 0
AnchorPoint: "Anchor-15" 413 0 basechar 0
AnchorPoint: "Anchor-14" 0 0 basechar 0
LayerCount: 2
Fore
SplineSet
394 929.5 m 128,-1,1
 378 937 378 937 360 950 c 0,2,3
 337 968 337 968 323 968 c 0,4,5
 306 968 306 968 292 957 c 128,-1,6
 278 946 278 946 261 922 c 1,7,-1
 198 958 l 1,8,9
 223 1003 223 1003 256.5 1030 c 128,-1,10
 290 1057 290 1057 328 1057 c 0,11,12
 349 1057 349 1057 364.5 1050 c 128,-1,13
 380 1043 380 1043 397 1030 c 0,14,15
 410 1021 410 1021 417.5 1017 c 128,-1,16
 425 1013 425 1013 434 1013 c 0,17,18
 451 1013 451 1013 464.5 1023.5 c 128,-1,19
 478 1034 478 1034 493 1056 c 1,20,-1
 558 1021 l 1,21,22
 531 974 531 974 498.5 948 c 128,-1,23
 466 922 466 922 431 922 c 0,24,0
 410 922 410 922 394 929.5 c 128,-1,1
213 719 m 1,25,-1
 169 774 l 1,26,-1
 322 895 l 1,27,-1
 401 895 l 1,28,-1
 521 774 l 1,29,-1
 470 719 l 1,30,-1
 352 802 l 1,31,-1
 213 719 l 1,25,-1
536 691 m 1,32,-1
 508 593 l 1,33,-1
 257 593 l 1,34,-1
 229 400 l 1,35,-1
 448 400 l 1,36,-1
 435 302 l 1,37,-1
 216 302 l 1,38,-1
 188 99 l 1,39,-1
 457 99 l 1,40,-1
 443 0 l 1,41,-1
 43 0 l 1,42,-1
 140 691 l 1,43,-1
 536 691 l 1,32,-1
EndSplineSet
Substitution2: "'c2sc' Capitals to Small Capitals lookup 27 subtable" uni1EC5.sc
Substitution2: "'aalt' Access All Alternates lookup 0 subtable" uni1EC5.sc
Position2: "'cpsp' Capital Spacing lookup 0 subtable" dx=5 dy=0 dh=10 dv=0
EndChar

StartChar: Eogonek
Encoding: 280 280 87
Width: 523
GlyphClass: 2
Flags: W
AnchorPoint: "Anchor-18" 0 0 basechar 0
AnchorPoint: "Anchor-17" 0 0 basechar 0
AnchorPoint: "Anchor-16" 341 691 basechar 0
AnchorPoint: "Anchor-15" 413 0 basechar 0
AnchorPoint: "Anchor-14" 243 0 basechar 0
LayerCount: 2
Fore
SplineSet
257 593 m 1,0,-1
 229 400 l 1,1,-1
 448 400 l 1,2,-1
 435 302 l 1,3,-1
 216 302 l 1,4,-1
 188 99 l 1,5,-1
 457 99 l 1,6,-1
 443 0 l 1,7,-1
 405 0 l 1,8,9
 267 -54 267 -54 267 -119 c 0,10,11
 267 -154 267 -154 313 -154 c 0,12,13
 338 -154 338 -154 375 -146 c 1,14,-1
 357 -232 l 1,15,16
 320 -239 320 -239 292 -239 c 0,17,18
 236 -239 236 -239 202 -211.5 c 128,-1,19
 168 -184 168 -184 168 -139 c 0,20,21
 168 -54 168 -54 269 0 c 1,22,-1
 43 0 l 1,23,-1
 140 691 l 1,24,-1
 536 691 l 1,25,-1
 508 593 l 1,26,-1
 257 593 l 1,0,-1
EndSplineSet
Substitution2: "'c2sc' Capitals to Small Capitals lookup 27 subtable" eogonek.sc
Substitution2: "'aalt' Access All Alternates lookup 0 subtable" eogonek.sc
Position2: "'cpsp' Capital Spacing lookup 0 subtable" dx=5 dy=0 dh=10 dv=0
EndChar

StartChar: uni0190
Encoding: 400 400 88
Width: 525
GlyphClass: 2
Flags: W
AnchorPoint: "Anchor-18" 0 0 basechar 0
AnchorPoint: "Anchor-17" 0 0 basechar 0
AnchorPoint: "Anchor-16" 343 691 basechar 0
AnchorPoint: "Anchor-15" 0 0 basechar 0
AnchorPoint: "Anchor-14" 252 0 basechar 0
LayerCount: 2
Fore
SplineSet
456.5 683.5 m 128,-1,1
 508 661 508 661 551 616 c 1,2,-1
 478 547 l 1,3,4
 418 606 418 606 343 606 c 0,5,6
 285 606 285 606 254 575.5 c 128,-1,7
 223 545 223 545 223 498 c 0,8,9
 223 457 223 457 249.5 435.5 c 128,-1,10
 276 414 276 414 325 414 c 2,11,-1
 396 414 l 1,12,-1
 367 315 l 1,13,-1
 316 315 l 2,14,15
 242 315 242 315 200.5 281.5 c 128,-1,16
 159 248 159 248 159 185 c 0,17,18
 159 137 159 137 188 112.5 c 128,-1,19
 217 88 217 88 272 88 c 0,20,21
 318 88 318 88 356.5 104.5 c 128,-1,22
 395 121 395 121 431 153 c 1,23,-1
 496 79 l 1,24,25
 399 -15 399 -15 255 -15 c 0,26,27
 186 -15 186 -15 133 8.5 c 128,-1,28
 80 32 80 32 51 75.5 c 128,-1,29
 22 119 22 119 22 175 c 0,30,31
 22 258 22 258 74 308.5 c 128,-1,32
 126 359 126 359 214 369 c 1,33,34
 154 383 154 383 122 418 c 128,-1,35
 90 453 90 453 90 507 c 0,36,37
 90 565 90 565 123 610.5 c 128,-1,38
 156 656 156 656 212.5 681 c 128,-1,39
 269 706 269 706 336 706 c 0,40,0
 405 706 405 706 456.5 683.5 c 128,-1,1
EndSplineSet
Substitution2: "'c2sc' Capitals to Small Capitals lookup 27 subtable" uni025B.sc
Substitution2: "'aalt' Access All Alternates lookup 0 subtable" uni025B.sc
Position2: "'cpsp' Capital Spacing lookup 0 subtable" dx=5 dy=0 dh=10 dv=0
EndChar

StartChar: uni018E
Encoding: 398 398 89
Width: 522
GlyphClass: 2
Flags: W
LayerCount: 2
Fore
SplineSet
107 691 m 1,0,-1
 501 691 l 1,1,-1
 405 0 l 1,2,-1
 5 0 l 1,3,-1
 18 99 l 1,4,-1
 287 99 l 1,5,-1
 316 302 l 1,6,-1
 97 302 l 1,7,-1
 110 400 l 1,8,-1
 329 400 l 1,9,-1
 357 593 l 1,10,-1
 93 593 l 1,11,-1
 107 691 l 1,0,-1
EndSplineSet
Substitution2: "'c2sc' Capitals to Small Capitals lookup 27 subtable" uni0258.sc
Substitution2: "'aalt' Access All Alternates lookup 0 subtable" uni0258.sc
Position2: "'cpsp' Capital Spacing lookup 0 subtable" dx=5 dy=0 dh=10 dv=0
EndChar

StartChar: uni0246
Encoding: 582 582 91
Width: 523
GlyphClass: 2
Flags: W
AnchorPoint: "Anchor-18" 0 0 basechar 0
AnchorPoint: "Anchor-17" 0 0 basechar 0
AnchorPoint: "Anchor-16" 321 691 basechar 0
AnchorPoint: "Anchor-15" 413 0 basechar 0
AnchorPoint: "Anchor-14" 224 0 basechar 0
LayerCount: 2
Fore
SplineSet
508 593 m 1,0,-1
 454 593 l 1,1,-1
 376 400 l 1,2,-1
 448 400 l 1,3,-1
 435 302 l 1,4,-1
 336 302 l 1,5,-1
 253 99 l 1,6,-1
 457 99 l 1,7,-1
 443 0 l 1,8,-1
 213 0 l 1,9,-1
 184 -72 l 1,10,-1
 132 -60 l 1,11,-1
 156 0 l 1,12,-1
 43 0 l 1,13,-1
 140 691 l 1,14,-1
 437 691 l 1,15,-1
 462 753 l 1,16,-1
 514 741 l 1,17,-1
 494 691 l 1,18,-1
 536 691 l 1,19,-1
 508 593 l 1,0,-1
319 400 m 1,20,-1
 397 593 l 1,21,-1
 257 593 l 1,22,-1
 229 400 l 1,23,-1
 319 400 l 1,20,-1
197 99 m 1,24,-1
 279 302 l 1,25,-1
 216 302 l 1,26,-1
 188 99 l 1,27,-1
 197 99 l 1,24,-1
EndSplineSet
Substitution2: "'c2sc' Capitals to Small Capitals lookup 27 subtable" uni0247.sc
Substitution2: "'aalt' Access All Alternates lookup 0 subtable" uni0247.sc
Position2: "'cpsp' Capital Spacing lookup 0 subtable" dx=5 dy=0 dh=10 dv=0
EndChar

StartChar: uni01B7
Encoding: 439 439 93
Width: 529
GlyphClass: 2
Flags: W
AnchorPoint: "Anchor-18" 0 0 basechar 0
AnchorPoint: "Anchor-17" 0 0 basechar 0
AnchorPoint: "Anchor-16" 315 691 basechar 0
AnchorPoint: "Anchor-15" 0 0 basechar 0
AnchorPoint: "Anchor-14" 227 0 basechar 0
LayerCount: 2
Fore
SplineSet
511 593 m 1,0,-1
 295 400 l 1,1,2
 390 397 390 397 439 353.5 c 128,-1,3
 488 310 488 310 488 231 c 0,4,5
 488 156 488 156 450.5 100.5 c 128,-1,6
 413 45 413 45 348 15 c 128,-1,7
 283 -15 283 -15 202 -15 c 0,8,9
 125 -15 125 -15 72.5 10 c 128,-1,10
 20 35 20 35 -15 84 c 1,11,-1
 62 150 l 1,12,13
 91 116 91 116 123 101.5 c 128,-1,14
 155 87 155 87 201 87 c 0,15,16
 269 87 269 87 311 125 c 128,-1,17
 353 163 353 163 353 227 c 0,18,19
 353 276 353 276 323 296.5 c 128,-1,20
 293 317 293 317 230 317 c 2,21,-1
 135 317 l 1,22,-1
 136 318 l 1,23,-1
 147 398 l 1,24,-1
 358 591 l 1,25,-1
 91 591 l 1,26,-1
 105 691 l 1,27,-1
 524 691 l 1,28,-1
 511 593 l 1,0,-1
EndSplineSet
Substitution2: "'c2sc' Capitals to Small Capitals lookup 27 subtable" uni0292.sc
Substitution2: "'aalt' Access All Alternates lookup 0 subtable" uni0292.sc
Position2: "'cpsp' Capital Spacing lookup 0 subtable" dx=5 dy=0 dh=10 dv=0
EndChar

StartChar: uni01B8
Encoding: 440 440 95
Width: 531
GlyphClass: 2
Flags: W
AnchorPoint: "Anchor-18" 0 0 basechar 0
AnchorPoint: "Anchor-17" 0 0 basechar 0
AnchorPoint: "Anchor-16" 326 691 basechar 0
AnchorPoint: "Anchor-15" 0 0 basechar 0
AnchorPoint: "Anchor-14" 229 0 basechar 0
LayerCount: 2
Fore
SplineSet
530 591 m 1,0,-1
 253 591 l 1,1,-1
 418 397 l 1,2,-1
 408 317 l 1,3,-1
 406 318 l 1,4,-1
 407 317 l 1,5,-1
 316 317 l 2,6,7
 243 317 243 317 201 280.5 c 128,-1,8
 159 244 159 244 159 181 c 0,9,10
 159 136 159 136 186 111.5 c 128,-1,11
 213 87 213 87 264 87 c 256,12,13
 315 87 315 87 353.5 102.5 c 128,-1,14
 392 118 392 118 431 152 c 1,15,-1
 495 80 l 1,16,17
 446 33 446 33 387 9 c 128,-1,18
 328 -15 328 -15 250 -15 c 0,19,20
 144 -15 144 -15 83.5 37.5 c 128,-1,21
 23 90 23 90 23 177 c 0,22,23
 23 244 23 244 56 294.5 c 128,-1,24
 89 345 89 345 147.5 372.5 c 128,-1,25
 206 400 206 400 280 400 c 1,26,-1
 111 593 l 1,27,-1
 124 691 l 1,28,-1
 544 691 l 1,29,-1
 530 591 l 1,0,-1
EndSplineSet
Substitution2: "'c2sc' Capitals to Small Capitals lookup 27 subtable" uni01B9.sc
Substitution2: "'aalt' Access All Alternates lookup 0 subtable" uni01B9.sc
Position2: "'cpsp' Capital Spacing lookup 0 subtable" dx=5 dy=0 dh=10 dv=0
EndChar

StartChar: F
Encoding: 70 70 96
Width: 482
GlyphClass: 2
Flags: W
AnchorPoint: "Anchor-18" 0 0 basechar 0
AnchorPoint: "Anchor-17" 0 0 basechar 0
AnchorPoint: "Anchor-16" 333 691 basechar 0
AnchorPoint: "Anchor-15" 0 0 basechar 0
AnchorPoint: "Anchor-14" 108 0 basechar 0
LayerCount: 2
Fore
SplineSet
526 691 m 1,0,-1
 499 593 l 1,1,-1
 257 593 l 1,2,-1
 228 386 l 1,3,-1
 438 386 l 1,4,-1
 425 288 l 1,5,-1
 214 288 l 1,6,-1
 174 0 l 1,7,-1
 43 0 l 1,8,-1
 140 691 l 1,9,-1
 526 691 l 1,0,-1
EndSplineSet
Substitution2: "'c2sc' Capitals to Small Capitals lookup 27 subtable" f.sc
Substitution2: "'aalt' Access All Alternates lookup 0 subtable" f.sc
Position2: "'cpsp' Capital Spacing lookup 0 subtable" dx=5 dy=0 dh=10 dv=0
EndChar

StartChar: uni0191
Encoding: 401 401 98
Width: 482
GlyphClass: 2
Flags: W
AnchorPoint: "Anchor-18" 0 0 basechar 0
AnchorPoint: "Anchor-17" 0 0 basechar 0
AnchorPoint: "Anchor-16" 333 691 basechar 0
AnchorPoint: "Anchor-15" 0 0 basechar 0
AnchorPoint: "Anchor-14" 108 0 basechar 0
LayerCount: 2
Fore
SplineSet
257 593 m 1,0,-1
 228 386 l 1,1,-1
 438 386 l 1,2,-1
 425 288 l 1,3,-1
 214 288 l 1,4,-1
 174 0 l 1,5,-1
 173 0 l 1,6,-1
 167 -46 l 2,7,8
 154 -132 154 -132 102.5 -175 c 128,-1,9
 51 -218 51 -218 -30 -218 c 0,10,11
 -102 -218 -102 -218 -154 -176 c 1,12,-1
 -100 -97 l 1,13,14
 -83 -108 -83 -108 -69 -113 c 128,-1,15
 -55 -118 -55 -118 -34 -118 c 0,16,17
 26 -118 26 -118 36 -49 c 2,18,-1
 43 0 l 1,19,-1
 140 691 l 1,20,-1
 526 691 l 1,21,-1
 499 593 l 1,22,-1
 257 593 l 1,0,-1
EndSplineSet
Substitution2: "'c2sc' Capitals to Small Capitals lookup 27 subtable" uni0191.sc
Substitution2: "'aalt' Access All Alternates lookup 0 subtable" uni0191.sc
Position2: "'cpsp' Capital Spacing lookup 0 subtable" dx=5 dy=0 dh=10 dv=0
EndChar

StartChar: G
Encoding: 71 71 99
Width: 630
GlyphClass: 2
Flags: W
AnchorPoint: "Anchor-18" 0 0 basechar 0
AnchorPoint: "Anchor-17" 0 0 basechar 0
AnchorPoint: "Anchor-16" 411 691 basechar 0
AnchorPoint: "Anchor-15" 0 0 basechar 0
AnchorPoint: "Anchor-14" 304 0 basechar 0
LayerCount: 2
Fore
SplineSet
623 622 m 1,1,-1
 547 555 l 1,2,3
 513 582 513 582 482.5 594 c 128,-1,4
 452 606 452 606 411 606 c 0,5,6
 331 606 331 606 280 551.5 c 128,-1,7
 229 497 229 497 206 414.5 c 128,-1,8
 183 332 183 332 183 246 c 0,9,10
 183 162 183 162 216 124 c 128,-1,11
 249 86 249 86 316 86 c 0,12,13
 375 86 375 86 428 114 c 1,14,-1
 454 293 l 1,15,-1
 352 293 l 1,16,-1
 352 391 l 1,17,-1
 596 391 l 1,18,-1
 550 55 l 1,19,20
 438 -15 438 -15 305 -15 c 0,21,22
 181 -15 181 -15 114.5 55 c 128,-1,23
 48 125 48 125 48 259 c 0,24,25
 48 368 48 368 86.5 470.5 c 128,-1,26
 125 573 125 573 207 639.5 c 128,-1,27
 289 706 289 706 412 706 c 0,28,0
 541 706 541 706 623 622 c 1,1,-1
EndSplineSet
Substitution2: "'c2sc' Capitals to Small Capitals lookup 27 subtable" g.sc
Substitution2: "'aalt' Access All Alternates lookup 0 subtable" g.sc
Position2: "'cpsp' Capital Spacing lookup 0 subtable" dx=5 dy=0 dh=10 dv=0
EndChar

StartChar: uni0194
Encoding: 404 404 101
Width: 556
GlyphClass: 2
Flags: W
AnchorPoint: "Anchor-18" 0 0 basechar 0
AnchorPoint: "Anchor-17" 0 0 basechar 0
AnchorPoint: "Anchor-16" 338 691 basechar 0
AnchorPoint: "Anchor-15" 0 0 basechar 0
AnchorPoint: "Anchor-14" 0 0 basechar 0
LayerCount: 2
Fore
SplineSet
322 78 m 1,0,1
 344 29 344 29 354 -7 c 128,-1,2
 364 -43 364 -43 364 -80 c 0,3,4
 364 -146 364 -146 324 -182 c 128,-1,5
 284 -218 284 -218 214 -218 c 0,6,7
 154 -218 154 -218 123 -189 c 128,-1,8
 92 -160 92 -160 92 -112 c 0,9,10
 92 -71 92 -71 113.5 -27 c 128,-1,11
 135 17 135 17 182 82 c 1,12,-1
 55 691 l 1,13,-1
 191 691 l 1,14,-1
 264 170 l 1,15,-1
 485 691 l 1,16,-1
 621 691 l 1,17,-1
 322 78 l 1,0,1
243 8 m 1,19,20
 196 -65 196 -65 196 -102 c 0,21,22
 196 -128 196 -128 221 -128 c 0,23,24
 239 -128 239 -128 249 -115.5 c 128,-1,25
 259 -103 259 -103 259 -83 c 0,26,18
 259 -45 259 -45 243 8 c 1,19,20
EndSplineSet
Substitution2: "'c2sc' Capitals to Small Capitals lookup 27 subtable" uni0194.sc
Substitution2: "'aalt' Access All Alternates lookup 0 subtable" uni0194.sc
Position2: "'cpsp' Capital Spacing lookup 0 subtable" dx=5 dy=0 dh=10 dv=0
EndChar

StartChar: uni0193
Encoding: 403 403 107
Width: 601
GlyphClass: 2
Flags: W
AnchorPoint: "Anchor-18" 0 0 basechar 0
AnchorPoint: "Anchor-17" 0 0 basechar 0
AnchorPoint: "Anchor-16" 360 708 basechar 0
AnchorPoint: "Anchor-15" 0 0 basechar 0
AnchorPoint: "Anchor-14" 263 0 basechar 0
LayerCount: 2
Fore
SplineSet
813 803 m 1,1,-1
 763 725 l 1,2,3
 746 736 746 736 732 740.5 c 128,-1,4
 718 745 718 745 698 745 c 0,5,6
 670 745 670 745 652 728 c 128,-1,7
 634 711 634 711 630 676 c 2,8,-1
 623 622 l 1,9,-1
 555 562 l 1,10,11
 488 606 488 606 411 606 c 0,12,13
 331 606 331 606 280 551.5 c 128,-1,14
 229 497 229 497 206 414.5 c 128,-1,15
 183 332 183 332 183 246 c 0,16,17
 183 162 183 162 216 124 c 128,-1,18
 249 86 249 86 316 86 c 0,19,20
 375 86 375 86 428 114 c 1,21,-1
 454 293 l 1,22,-1
 351 293 l 1,23,-1
 352 391 l 1,24,-1
 595 391 l 1,25,-1
 549 55 l 1,26,27
 439 -15 439 -15 304 -15 c 0,28,29
 180 -15 180 -15 113.5 55 c 128,-1,30
 47 125 47 125 47 259 c 0,31,32
 47 367 47 367 87 470 c 128,-1,33
 127 573 127 573 207.5 639.5 c 128,-1,34
 288 706 288 706 404 706 c 0,35,36
 467 706 467 706 513 683 c 1,37,38
 524 760 524 760 570 801.5 c 128,-1,39
 616 843 616 843 692 843 c 0,40,0
 761 843 761 843 813 803 c 1,1,-1
EndSplineSet
Substitution2: "'c2sc' Capitals to Small Capitals lookup 27 subtable" uni0260.sc
Substitution2: "'aalt' Access All Alternates lookup 0 subtable" uni0260.sc
Position2: "'cpsp' Capital Spacing lookup 0 subtable" dx=5 dy=0 dh=10 dv=0
EndChar

StartChar: uni0241
Encoding: 577 577 108
Width: 489
GlyphClass: 2
Flags: W
AnchorPoint: "Anchor-18" 0 0 basechar 0
AnchorPoint: "Anchor-17" 0 0 basechar 0
AnchorPoint: "Anchor-16" 305 691 basechar 0
AnchorPoint: "Anchor-15" 0 0 basechar 0
AnchorPoint: "Anchor-14" 179 0 basechar 0
LayerCount: 2
Fore
SplineSet
159 325 m 1,0,-1
 222 343 l 2,1,2
 294 363 294 363 330 403 c 128,-1,3
 366 443 366 443 366 510 c 0,4,5
 366 556 366 556 342 581 c 128,-1,6
 318 606 318 606 271 606 c 0,7,8
 232 606 232 606 195 590.5 c 128,-1,9
 158 575 158 575 118 545 c 1,10,-1
 59 619 l 1,11,12
 110 662 110 662 166.5 684 c 128,-1,13
 223 706 223 706 291 706 c 0,14,15
 389 706 389 706 446 655 c 128,-1,16
 503 604 503 604 503 519 c 0,17,18
 503 335 503 335 309 283 c 2,19,-1
 283 276 l 1,20,-1
 244 0 l 1,21,-1
 114 0 l 1,22,-1
 159 325 l 1,0,-1
EndSplineSet
Substitution2: "'c2sc' Capitals to Small Capitals lookup 27 subtable" uni0294.sc
Substitution2: "'aalt' Access All Alternates lookup 0 subtable" uni0294.sc
Position2: "'cpsp' Capital Spacing lookup 0 subtable" dx=5 dy=0 dh=10 dv=0
EndChar

StartChar: uni01E4
Encoding: 484 484 109
Width: 654
GlyphClass: 2
Flags: W
AnchorPoint: "Anchor-18" 0 0 basechar 0
AnchorPoint: "Anchor-17" 0 0 basechar 0
AnchorPoint: "Anchor-16" 387 691 basechar 0
AnchorPoint: "Anchor-15" 0 0 basechar 0
AnchorPoint: "Anchor-14" 290 0 basechar 0
LayerCount: 2
Fore
SplineSet
635 173 m 1,0,-1
 566 173 l 1,1,-1
 550 55 l 1,2,3
 438 -15 438 -15 305 -15 c 0,4,5
 181 -15 181 -15 114.5 55 c 128,-1,6
 48 125 48 125 48 259 c 0,7,8
 48 368 48 368 86.5 470.5 c 128,-1,9
 125 573 125 573 207 639.5 c 128,-1,10
 289 706 289 706 412 706 c 0,11,12
 541 706 541 706 623 622 c 1,13,-1
 545 553 l 1,14,15
 513 581 513 581 482.5 593.5 c 128,-1,16
 452 606 452 606 411 606 c 0,17,18
 331 606 331 606 280 551.5 c 128,-1,19
 229 497 229 497 206 414.5 c 128,-1,20
 183 332 183 332 183 246 c 0,21,22
 183 162 183 162 216 124 c 128,-1,23
 249 86 249 86 316 86 c 0,24,25
 379 86 379 86 432 114 c 1,26,-1
 440 173 l 1,27,-1
 336 173 l 1,28,-1
 348 260 l 1,29,-1
 452 260 l 1,30,-1
 459 310 l 1,31,-1
 353 310 l 1,32,-1
 353 399 l 1,33,-1
 597 399 l 1,34,-1
 578 260 l 1,35,-1
 647 260 l 1,36,-1
 635 173 l 1,0,-1
EndSplineSet
Substitution2: "'c2sc' Capitals to Small Capitals lookup 27 subtable" uni01E5.sc
Substitution2: "'aalt' Access All Alternates lookup 0 subtable" uni01E5.sc
Position2: "'cpsp' Capital Spacing lookup 0 subtable" dx=5 dy=0 dh=10 dv=0
EndChar

StartChar: uni021C
Encoding: 540 540 110
Width: 506
GlyphClass: 2
Flags: W
AnchorPoint: "Anchor-18" 0 0 basechar 0
AnchorPoint: "Anchor-17" 0 0 basechar 0
AnchorPoint: "Anchor-16" 313 691 basechar 0
AnchorPoint: "Anchor-15" 0 0 basechar 0
AnchorPoint: "Anchor-14" 0 0 basechar 0
LayerCount: 2
Fore
SplineSet
435 659.5 m 128,-1,1
 488 613 488 613 488 538 c 0,2,3
 488 467 488 467 445 422 c 128,-1,4
 402 377 402 377 321 358 c 1,5,6
 386 353 386 353 425.5 317.5 c 128,-1,7
 465 282 465 282 465 219 c 0,8,9
 465 91 465 91 339.5 9 c 128,-1,10
 214 -73 214 -73 18 -108 c 1,11,-1
 17 -8 l 1,12,13
 165 28 165 28 246 80.5 c 128,-1,14
 327 133 327 133 327 220 c 0,15,16
 327 264 327 264 298 284.5 c 128,-1,17
 269 305 269 305 208 305 c 2,18,-1
 138 305 l 1,19,-1
 167 404 l 1,20,-1
 220 404 l 2,21,22
 279 404 279 404 316 438 c 128,-1,23
 353 472 353 472 353 529 c 0,24,25
 353 606 353 606 267 606 c 0,26,27
 194 606 194 606 110 547 c 1,28,-1
 53 619 l 1,29,30
 107 663 107 663 164.5 684.5 c 128,-1,31
 222 706 222 706 287 706 c 0,32,0
 382 706 382 706 435 659.5 c 128,-1,1
EndSplineSet
Substitution2: "'c2sc' Capitals to Small Capitals lookup 27 subtable" uni021D.sc
Substitution2: "'aalt' Access All Alternates lookup 0 subtable" uni021D.sc
Position2: "'cpsp' Capital Spacing lookup 0 subtable" dx=5 dy=0 dh=10 dv=0
EndChar

StartChar: H
Encoding: 72 72 111
Width: 664
GlyphClass: 2
Flags: W
AnchorPoint: "Anchor-18" 343 346 basechar 0
AnchorPoint: "Anchor-17" 0 0 basechar 0
AnchorPoint: "Anchor-16" 392 691 basechar 0
AnchorPoint: "Anchor-15" 0 0 basechar 0
AnchorPoint: "Anchor-14" 300 0 basechar 0
LayerCount: 2
Fore
SplineSet
173 0 m 1,0,-1
 43 0 l 1,1,-1
 140 691 l 1,2,-1
 271 691 l 1,3,-1
 231 414 l 1,4,-1
 474 414 l 1,5,-1
 513 691 l 1,6,-1
 644 691 l 1,7,-1
 547 0 l 1,8,-1
 416 0 l 1,9,-1
 459 309 l 1,10,-1
 217 309 l 1,11,-1
 173 0 l 1,0,-1
EndSplineSet
Substitution2: "'c2sc' Capitals to Small Capitals lookup 27 subtable" h.sc
Substitution2: "'aalt' Access All Alternates lookup 0 subtable" h.sc
Position2: "'cpsp' Capital Spacing lookup 0 subtable" dx=5 dy=0 dh=10 dv=0
EndChar

StartChar: Hbar
Encoding: 294 294 112
Width: 678
GlyphClass: 2
Flags: W
AnchorPoint: "Anchor-18" 348 346 basechar 0
AnchorPoint: "Anchor-17" 0 0 basechar 0
AnchorPoint: "Anchor-16" 397 691 basechar 0
AnchorPoint: "Anchor-15" 0 0 basechar 0
AnchorPoint: "Anchor-14" 305 0 basechar 0
LayerCount: 2
Fore
SplineSet
697 585 m 1,0,-1
 685 504 l 1,1,-1
 623 504 l 1,2,-1
 552 0 l 1,3,-1
 421 0 l 1,4,-1
 464 309 l 1,5,-1
 222 309 l 1,6,-1
 178 0 l 1,7,-1
 48 0 l 1,8,-1
 119 504 l 1,9,-1
 58 504 l 1,10,-1
 69 585 l 1,11,-1
 130 585 l 1,12,-1
 145 691 l 1,13,-1
 276 691 l 1,14,-1
 261 585 l 1,15,-1
 503 585 l 1,16,-1
 518 691 l 1,17,-1
 649 691 l 1,18,-1
 634 585 l 1,19,-1
 697 585 l 1,0,-1
479 414 m 1,20,-1
 492 504 l 1,21,-1
 249 504 l 1,22,-1
 236 414 l 1,23,-1
 479 414 l 1,20,-1
EndSplineSet
Substitution2: "'c2sc' Capitals to Small Capitals lookup 27 subtable" hbar.sc
Substitution2: "'aalt' Access All Alternates lookup 0 subtable" hbar.sc
Position2: "'cpsp' Capital Spacing lookup 0 subtable" dx=5 dy=0 dh=10 dv=0
EndChar

StartChar: uniA7AA
Encoding: 42922 42922 116
Width: 778
GlyphClass: 2
Flags: W
AnchorPoint: "Anchor-18" 457 346 basechar 0
AnchorPoint: "Anchor-17" 0 0 basechar 0
AnchorPoint: "Anchor-16" 506 691 basechar 0
AnchorPoint: "Anchor-15" 0 0 basechar 0
AnchorPoint: "Anchor-14" 414 0 basechar 0
LayerCount: 2
Fore
SplineSet
758 691 m 1,0,-1
 661 0 l 1,1,-1
 530 0 l 1,2,-1
 573 309 l 1,3,-1
 331 309 l 1,4,-1
 287 0 l 1,5,-1
 157 0 l 1,6,-1
 240 593 l 1,7,-1
 213 593 l 2,8,9
 185 593 185 593 170 577 c 128,-1,10
 155 561 155 561 155 530 c 0,11,12
 155 507 155 507 164 479 c 1,13,-1
 72 442 l 1,14,15
 47 490 47 490 47 535 c 0,16,17
 47 607 47 607 95 649 c 128,-1,18
 143 691 143 691 226 691 c 2,19,-1
 385 691 l 1,20,-1
 345 414 l 1,21,-1
 588 414 l 1,22,-1
 627 691 l 1,23,-1
 758 691 l 1,0,-1
EndSplineSet
Substitution2: "'c2sc' Capitals to Small Capitals lookup 27 subtable" uniA7AA.sc
Substitution2: "'aalt' Access All Alternates lookup 0 subtable" uniA7AA.sc
Position2: "'cpsp' Capital Spacing lookup 0 subtable" dx=5 dy=0 dh=10 dv=0
EndChar

StartChar: uni01F6
Encoding: 502 502 118
Width: 946
GlyphClass: 2
Flags: W
AnchorPoint: "Anchor-18" 0 0 basechar 0
AnchorPoint: "Anchor-17" 0 0 basechar 0
AnchorPoint: "Anchor-16" 533 691 basechar 0
AnchorPoint: "Anchor-15" 0 0 basechar 0
AnchorPoint: "Anchor-14" 436 0 basechar 0
LayerCount: 2
Fore
SplineSet
484 31 m 128,-1,1
 439 77 439 77 439 145 c 0,2,3
 439 153 439 153 441 173 c 2,4,-1
 459 309 l 1,5,-1
 217 309 l 1,6,-1
 174 0 l 1,7,-1
 43 0 l 1,8,-1
 140 691 l 1,9,-1
 271 691 l 1,10,-1
 231 414 l 1,11,-1
 474 414 l 1,12,-1
 513 691 l 1,13,-1
 644 691 l 1,14,-1
 572 175 l 2,15,16
 570 157 570 157 570 148 c 0,17,18
 570 82 570 82 629 82 c 0,19,20
 715 82 715 82 747 186 c 128,-1,21
 779 290 779 290 779 428 c 0,22,23
 779 487 779 487 774 529 c 1,24,-1
 894 529 l 1,25,26
 902 467 902 467 902 407 c 0,27,28
 902 215 902 215 838.5 100 c 128,-1,29
 775 -15 775 -15 619 -15 c 0,30,0
 529 -15 529 -15 484 31 c 128,-1,1
EndSplineSet
Substitution2: "'c2sc' Capitals to Small Capitals lookup 27 subtable" uni01F6.sc
Substitution2: "'aalt' Access All Alternates lookup 0 subtable" uni01F6.sc
Position2: "'cpsp' Capital Spacing lookup 0 subtable" dx=5 dy=0 dh=10 dv=0
EndChar

StartChar: I
Encoding: 73 73 119
Width: 291
GlyphClass: 2
Flags: W
AnchorPoint: "Anchor-18" 0 0 basechar 0
AnchorPoint: "Anchor-17" 0 0 basechar 0
AnchorPoint: "Anchor-16" 205 691 basechar 0
AnchorPoint: "Anchor-15" 154 0 basechar 0
AnchorPoint: "Anchor-14" 108 0 basechar 0
LayerCount: 2
Fore
SplineSet
271 691 m 1,0,-1
 174 0 l 1,1,-1
 43 0 l 1,2,-1
 140 691 l 1,3,-1
 271 691 l 1,0,-1
EndSplineSet
Substitution2: "'c2sc' Capitals to Small Capitals lookup 27 subtable" i.sc
Substitution2: "'aalt' Access All Alternates lookup 0 subtable" i.sc
Position2: "'cpsp' Capital Spacing lookup 0 subtable" dx=5 dy=0 dh=10 dv=0
EndChar

StartChar: Iogonek
Encoding: 302 302 134
Width: 291
GlyphClass: 2
Flags: W
AnchorPoint: "Anchor-18" 0 0 basechar 0
AnchorPoint: "Anchor-17" 0 0 basechar 0
AnchorPoint: "Anchor-16" 205 691 basechar 0
AnchorPoint: "Anchor-15" 154 0 basechar 0
AnchorPoint: "Anchor-14" 108 0 basechar 0
LayerCount: 2
Fore
SplineSet
271 691 m 1,0,-1
 174 0 l 1,1,-1
 146 0 l 1,2,3
 8 -54 8 -54 8 -119 c 0,4,5
 8 -154 8 -154 54 -154 c 0,6,7
 79 -154 79 -154 116 -146 c 1,8,-1
 98 -232 l 1,9,10
 61 -239 61 -239 33 -239 c 0,11,12
 -23 -239 -23 -239 -57 -211.5 c 128,-1,13
 -91 -184 -91 -184 -91 -139 c 0,14,15
 -91 -41 -91 -41 45 16 c 1,16,-1
 140 691 l 1,17,-1
 271 691 l 1,0,-1
EndSplineSet
Substitution2: "'c2sc' Capitals to Small Capitals lookup 27 subtable" iogonek.sc
Substitution2: "'aalt' Access All Alternates lookup 0 subtable" iogonek.sc
Position2: "'cpsp' Capital Spacing lookup 0 subtable" dx=5 dy=0 dh=10 dv=0
EndChar

StartChar: uni0196
Encoding: 406 406 135
Width: 369
GlyphClass: 2
Flags: W
AnchorPoint: "Anchor-18" 0 0 basechar 0
AnchorPoint: "Anchor-17" 0 0 basechar 0
AnchorPoint: "Anchor-16" 196 691 basechar 0
AnchorPoint: "Anchor-15" 0 0 basechar 0
AnchorPoint: "Anchor-14" 146 0 basechar 0
LayerCount: 2
Fore
SplineSet
340 24 m 1,0,1
 282 -15 282 -15 209 -15 c 256,2,3
 136 -15 136 -15 94.5 21.5 c 128,-1,4
 53 58 53 58 53 127 c 0,5,6
 53 150 53 150 55 162 c 2,7,-1
 61 203 l 1,8,-1
 131 691 l 1,9,-1
 262 691 l 1,10,-1
 192 203 l 1,11,-1
 184 149 l 2,12,13
 183 143 183 143 183 132 c 0,14,15
 183 85 183 85 229 85 c 0,16,17
 251 85 251 85 266.5 90 c 128,-1,18
 282 95 282 95 303 106 c 1,19,-1
 340 24 l 1,0,1
EndSplineSet
Substitution2: "'c2sc' Capitals to Small Capitals lookup 27 subtable" uni0196.sc
Substitution2: "'aalt' Access All Alternates lookup 0 subtable" uni0196.sc
Position2: "'cpsp' Capital Spacing lookup 0 subtable" dx=5 dy=0 dh=10 dv=0
EndChar

StartChar: uni0197
Encoding: 407 407 136
Width: 322
GlyphClass: 2
Flags: W
AnchorPoint: "Anchor-18" 0 0 basechar 0
AnchorPoint: "Anchor-17" 0 0 basechar 0
AnchorPoint: "Anchor-16" 222 691 basechar 0
AnchorPoint: "Anchor-15" 171 0 basechar 0
AnchorPoint: "Anchor-14" 125 0 basechar 0
LayerCount: 2
Fore
SplineSet
331 409 m 1,0,-1
 317 310 l 1,1,-1
 235 310 l 1,2,-1
 191 0 l 1,3,-1
 60 0 l 1,4,-1
 104 310 l 1,5,-1
 18 310 l 1,6,-1
 32 409 l 1,7,-1
 117 409 l 1,8,-1
 157 691 l 1,9,-1
 288 691 l 1,10,-1
 248 409 l 1,11,-1
 331 409 l 1,0,-1
EndSplineSet
Substitution2: "'c2sc' Capitals to Small Capitals lookup 27 subtable" uni0268.sc
Substitution2: "'aalt' Access All Alternates lookup 0 subtable" uni0268.sc
Position2: "'cpsp' Capital Spacing lookup 0 subtable" dx=5 dy=0 dh=10 dv=0
EndChar

StartChar: J
Encoding: 74 74 138
Width: 306
GlyphClass: 2
Flags: W
AnchorPoint: "Anchor-18" 0 0 basechar 0
AnchorPoint: "Anchor-17" 0 0 basechar 0
AnchorPoint: "Anchor-16" 224 691 basechar 0
AnchorPoint: "Anchor-15" 0 0 basechar 0
AnchorPoint: "Anchor-14" 0 0 basechar 0
LayerCount: 2
Fore
SplineSet
206 99 m 2,0,1
 191 -12 191 -12 132 -68 c 128,-1,2
 73 -124 73 -124 -28 -155 c 1,3,-1
 -53 -59 l 1,4,5
 -7 -42 -7 -42 19 -20 c 128,-1,6
 45 2 45 2 57.5 32 c 128,-1,7
 70 62 70 62 76 108 c 2,8,-1
 159 691 l 1,9,-1
 289 691 l 1,10,-1
 206 99 l 2,0,1
EndSplineSet
Substitution2: "'c2sc' Capitals to Small Capitals lookup 27 subtable" j.sc
Substitution2: "'aalt' Access All Alternates lookup 0 subtable" j.sc
Position2: "'cpsp' Capital Spacing lookup 0 subtable" dx=5 dy=0 dh=10 dv=0
EndChar

StartChar: uniA7B2
Encoding: 42930 42930 140
Width: 343
GlyphClass: 2
Flags: W
AnchorPoint: "Anchor-18" 0 0 basechar 0
AnchorPoint: "Anchor-17" 0 0 basechar 0
AnchorPoint: "Anchor-16" 257 691 basechar 0
AnchorPoint: "Anchor-15" 0 0 basechar 0
AnchorPoint: "Anchor-14" 0 0 basechar 0
LayerCount: 2
Fore
SplineSet
296 -105 m 1,0,1
 260 -88 260 -88 210 -75 c 1,2,3
 187 -148 187 -148 137.5 -183 c 128,-1,4
 88 -218 88 -218 5 -218 c 0,5,6
 -60 -218 -60 -218 -95.5 -189 c 128,-1,7
 -131 -160 -131 -160 -131 -109 c 0,8,9
 -131 -50 -131 -50 -84.5 -16 c 128,-1,10
 -38 18 -38 18 33 18 c 0,11,12
 76 18 76 18 98 15 c 1,13,-1
 192 691 l 1,14,-1
 323 691 l 1,15,-1
 225 -4 l 2,16,17
 225 -7 225 -7 224 -8 c 1,18,19
 273 -21 273 -21 327 -48 c 1,20,-1
 296 -105 l 1,0,1
60 -122.5 m 128,-1,22
 79 -101 79 -101 88 -52 c 1,23,24
 60 -50 60 -50 32 -50 c 0,25,26
 -3 -50 -3 -50 -22.5 -65.5 c 128,-1,27
 -42 -81 -42 -81 -42 -105 c 0,28,29
 -42 -144 -42 -144 3 -144 c 0,30,21
 41 -144 41 -144 60 -122.5 c 128,-1,22
EndSplineSet
Substitution2: "'c2sc' Capitals to Small Capitals lookup 27 subtable" uniA7B2.sc
Substitution2: "'aalt' Access All Alternates lookup 0 subtable" uniA7B2.sc
Position2: "'cpsp' Capital Spacing lookup 0 subtable" dx=5 dy=0 dh=10 dv=0
EndChar

StartChar: uni0248
Encoding: 584 584 141
Width: 322
GlyphClass: 2
Flags: W
AnchorPoint: "Anchor-18" 0 0 basechar 0
AnchorPoint: "Anchor-17" 0 0 basechar 0
AnchorPoint: "Anchor-16" 226 691 basechar 0
AnchorPoint: "Anchor-15" 0 0 basechar 0
AnchorPoint: "Anchor-14" 0 0 basechar 0
LayerCount: 2
Fore
SplineSet
320 292 m 1,0,-1
 235 292 l 1,1,-1
 208 99 l 2,2,3
 193 -12 193 -12 134 -68 c 128,-1,4
 75 -124 75 -124 -26 -155 c 1,5,-1
 -51 -59 l 1,6,7
 -5 -42 -5 -42 21 -20 c 128,-1,8
 47 2 47 2 59.5 32 c 128,-1,9
 72 62 72 62 78 108 c 2,10,-1
 104 292 l 1,11,-1
 21 292 l 1,12,-1
 35 394 l 1,13,-1
 119 394 l 1,14,-1
 161 691 l 1,15,-1
 291 691 l 1,16,-1
 249 394 l 1,17,-1
 334 394 l 1,18,-1
 320 292 l 1,0,-1
EndSplineSet
Substitution2: "'c2sc' Capitals to Small Capitals lookup 27 subtable" uni0249.sc
Substitution2: "'aalt' Access All Alternates lookup 0 subtable" uni0249.sc
Position2: "'cpsp' Capital Spacing lookup 0 subtable" dx=5 dy=0 dh=10 dv=0
EndChar

StartChar: K
Encoding: 75 75 142
Width: 605
GlyphClass: 2
Flags: W
AnchorPoint: "Anchor-18" 0 0 basechar 0
AnchorPoint: "Anchor-17" 0 0 basechar 0
AnchorPoint: "Anchor-16" 385 691 basechar 0
AnchorPoint: "Anchor-15" 0 0 basechar 0
AnchorPoint: "Anchor-14" 279 0 basechar 0
LayerCount: 2
Fore
SplineSet
43 0 m 1,0,-1
 140 691 l 1,1,-1
 271 691 l 1,2,-1
 174 0 l 1,3,-1
 43 0 l 1,0,-1
423 0 m 1,4,-1
 231 369 l 1,5,-1
 510 691 l 1,6,-1
 654 691 l 1,7,-1
 371 369 l 1,8,-1
 575 0 l 1,9,-1
 423 0 l 1,4,-1
EndSplineSet
Substitution2: "'c2sc' Capitals to Small Capitals lookup 27 subtable" k.sc
Substitution2: "'aalt' Access All Alternates lookup 0 subtable" k.sc
Position2: "'cpsp' Capital Spacing lookup 0 subtable" dx=5 dy=0 dh=10 dv=0
EndChar

StartChar: uni0198
Encoding: 408 408 145
Width: 635
GlyphClass: 2
Flags: W
AnchorPoint: "Anchor-18" 0 0 basechar 0
AnchorPoint: "Anchor-17" 0 0 basechar 0
AnchorPoint: "Anchor-16" 378 691 basechar 0
AnchorPoint: "Anchor-15" 0 0 basechar 0
AnchorPoint: "Anchor-14" 280 0 basechar 0
LayerCount: 2
Fore
SplineSet
231 369 m 1,0,-1
 422 605 l 2,1,2
 467 662 467 662 503 684 c 128,-1,3
 539 706 539 706 591 706 c 0,4,5
 626 706 626 706 651 695 c 128,-1,6
 676 684 676 684 698 664 c 1,7,-1
 646 592 l 1,8,9
 633 600 633 600 623 603.5 c 128,-1,10
 613 607 613 607 600 607 c 0,11,12
 580 607 580 607 563.5 596 c 128,-1,13
 547 585 547 585 519 551 c 2,14,-1
 371 371 l 1,15,-1
 575 0 l 1,16,-1
 422 0 l 1,17,-1
 231 369 l 1,0,-1
43 0 m 1,18,-1
 140 691 l 1,19,-1
 271 691 l 1,20,-1
 174 0 l 1,21,-1
 43 0 l 1,18,-1
EndSplineSet
Substitution2: "'c2sc' Capitals to Small Capitals lookup 27 subtable" uni0199.sc
Substitution2: "'aalt' Access All Alternates lookup 0 subtable" uni0199.sc
Position2: "'cpsp' Capital Spacing lookup 0 subtable" dx=5 dy=0 dh=10 dv=0
EndChar

StartChar: L
Encoding: 76 76 146
Width: 499
GlyphClass: 2
Flags: W
AnchorPoint: "Anchor-18" 408 395 basechar 0
AnchorPoint: "Anchor-17" 294 691 basechar 0
AnchorPoint: "Anchor-16" 205 691 basechar 0
AnchorPoint: "Anchor-15" 0 0 basechar 0
AnchorPoint: "Anchor-14" 238 0 basechar 0
LayerCount: 2
Fore
SplineSet
271 691 m 1,0,-1
 189 108 l 1,1,-1
 461 108 l 1,2,-1
 432 0 l 1,3,-1
 43 0 l 1,4,-1
 140 691 l 1,5,-1
 271 691 l 1,0,-1
EndSplineSet
Substitution2: "'c2sc' Capitals to Small Capitals lookup 27 subtable" l.sc
Substitution2: "'aalt' Access All Alternates lookup 0 subtable" l.sc
Position2: "'cpsp' Capital Spacing lookup 0 subtable" dx=5 dy=0 dh=10 dv=0
EndChar

StartChar: uni023D
Encoding: 573 573 149
Width: 512
GlyphClass: 2
Flags: W
AnchorPoint: "Anchor-18" 420 395 basechar 0
AnchorPoint: "Anchor-17" 306 691 basechar 0
AnchorPoint: "Anchor-16" 217 691 basechar 0
AnchorPoint: "Anchor-15" 0 0 basechar 0
AnchorPoint: "Anchor-14" 250 0 basechar 0
LayerCount: 2
Fore
SplineSet
201 108 m 1,0,-1
 473 108 l 1,1,-1
 444 0 l 1,2,-1
 55 0 l 1,3,-1
 99 312 l 1,4,-1
 19 312 l 1,5,-1
 33 414 l 1,6,-1
 113 414 l 1,7,-1
 152 691 l 1,8,-1
 283 691 l 1,9,-1
 244 414 l 1,10,-1
 332 414 l 1,11,-1
 318 312 l 1,12,-1
 230 312 l 1,13,-1
 201 108 l 1,0,-1
EndSplineSet
Substitution2: "'c2sc' Capitals to Small Capitals lookup 27 subtable" uni019A.sc
Substitution2: "'aalt' Access All Alternates lookup 0 subtable" uni019A.sc
Position2: "'cpsp' Capital Spacing lookup 0 subtable" dx=5 dy=0 dh=10 dv=0
EndChar

StartChar: uniA7AD
Encoding: 42925 42925 150
Width: 581
GlyphClass: 2
Flags: W
AnchorPoint: "Anchor-18" 490 395 basechar 0
AnchorPoint: "Anchor-17" 376 691 basechar 0
AnchorPoint: "Anchor-16" 287 691 basechar 0
AnchorPoint: "Anchor-15" 0 0 basechar 0
AnchorPoint: "Anchor-14" 320 0 basechar 0
LayerCount: 2
Fore
SplineSet
543 108 m 1,0,-1
 514 0 l 1,1,-1
 125 0 l 1,2,-1
 161 255 l 1,3,4
 92 258 92 258 56.5 288 c 128,-1,5
 21 318 21 318 21 369 c 0,6,7
 21 424 21 424 58.5 457 c 128,-1,8
 96 490 96 490 155 490 c 0,9,10
 180 490 180 490 193 486 c 1,11,-1
 222 691 l 1,12,-1
 353 691 l 1,13,-1
 303 337 l 1,14,15
 342 338 342 338 374.5 342 c 128,-1,16
 407 346 407 346 414 347 c 1,17,-1
 417 272 l 1,18,19
 343 260 343 260 292 258 c 1,20,-1
 271 108 l 1,21,-1
 543 108 l 1,0,-1
172 335 m 1,22,-1
 183 416 l 1,23,-1
 183 414 l 1,24,25
 172 417 172 417 158 417 c 0,26,27
 138 417 138 417 126 405.5 c 128,-1,28
 114 394 114 394 114 373 c 0,29,30
 114 335 114 335 171 335 c 2,31,-1
 172 335 l 1,22,-1
EndSplineSet
Substitution2: "'c2sc' Capitals to Small Capitals lookup 27 subtable" uniA7AD.sc
Substitution2: "'aalt' Access All Alternates lookup 0 subtable" uniA7AD.sc
Position2: "'cpsp' Capital Spacing lookup 0 subtable" dx=5 dy=0 dh=10 dv=0
EndChar

StartChar: Lslash
Encoding: 321 321 157
Width: 522
GlyphClass: 2
Flags: W
AnchorPoint: "Anchor-18" 431 395 basechar 0
AnchorPoint: "Anchor-17" 317 691 basechar 0
AnchorPoint: "Anchor-16" 228 691 basechar 0
AnchorPoint: "Anchor-15" 0 0 basechar 0
AnchorPoint: "Anchor-14" 261 0 basechar 0
LayerCount: 2
Fore
SplineSet
212 108 m 1,0,-1
 484 108 l 1,1,-1
 455 0 l 1,2,-1
 66 0 l 1,3,-1
 99 237 l 1,4,-1
 50 209 l 1,5,-1
 15 284 l 1,6,-1
 114 341 l 1,7,-1
 163 691 l 1,8,-1
 294 691 l 1,9,-1
 256 424 l 1,10,-1
 411 513 l 1,11,-1
 447 438 l 1,12,-1
 242 319 l 1,13,-1
 212 108 l 1,0,-1
EndSplineSet
Substitution2: "'c2sc' Capitals to Small Capitals lookup 27 subtable" lslash.sc
Substitution2: "'aalt' Access All Alternates lookup 0 subtable" lslash.sc
Position2: "'cpsp' Capital Spacing lookup 0 subtable" dx=5 dy=0 dh=10 dv=0
EndChar

StartChar: M
Encoding: 77 77 158
Width: 774
GlyphClass: 2
Flags: W
AnchorPoint: "Anchor-18" 0 0 basechar 0
AnchorPoint: "Anchor-17" 0 0 basechar 0
AnchorPoint: "Anchor-16" 440 691 basechar 0
AnchorPoint: "Anchor-15" 0 0 basechar 0
AnchorPoint: "Anchor-14" 355 0 basechar 0
LayerCount: 2
Fore
SplineSet
690 0 m 1,0,-1
 563 0 l 1,1,-1
 586 292 l 2,2,3
 598 459 598 459 616 578 c 1,4,-1
 422 75 l 1,5,-1
 297 75 l 1,6,-1
 234 576 l 1,7,8
 227 457 227 457 191 283 c 2,9,-1
 136 0 l 1,10,-1
 9 0 l 1,11,-1
 160 691 l 1,12,-1
 321 691 l 1,13,-1
 377 202 l 1,14,-1
 558 691 l 1,15,-1
 733 691 l 1,16,-1
 690 0 l 1,0,-1
EndSplineSet
Substitution2: "'c2sc' Capitals to Small Capitals lookup 27 subtable" m.sc
Substitution2: "'aalt' Access All Alternates lookup 0 subtable" m.sc
Position2: "'cpsp' Capital Spacing lookup 0 subtable" dx=5 dy=0 dh=10 dv=0
EndChar

StartChar: uni019C
Encoding: 412 412 161
Width: 911
GlyphClass: 2
Flags: W
AnchorPoint: "Anchor-18" 0 0 basechar 0
AnchorPoint: "Anchor-17" 0 0 basechar 0
AnchorPoint: "Anchor-16" 516 691 basechar 0
AnchorPoint: "Anchor-15" 0 0 basechar 0
AnchorPoint: "Anchor-14" 418 0 basechar 0
LayerCount: 2
Fore
SplineSet
891 691 m 1,0,-1
 794 0 l 1,1,-1
 680 0 l 1,2,-1
 680 70 l 1,3,4
 640 25 640 25 600.5 5 c 128,-1,5
 561 -15 561 -15 515 -15 c 0,6,7
 463 -15 463 -15 429 10 c 128,-1,8
 395 35 395 35 380 80 c 1,9,10
 338 31 338 31 293.5 8 c 128,-1,11
 249 -15 249 -15 199 -15 c 0,12,13
 130 -15 130 -15 93 28.5 c 128,-1,14
 56 72 56 72 56 144 c 0,15,16
 56 164 56 164 59 185 c 2,17,-1
 130 691 l 1,18,-1
 261 691 l 1,19,-1
 189 185 l 2,20,21
 187 167 187 167 187 159 c 0,22,23
 187 124 187 124 201.5 105.5 c 128,-1,24
 216 87 216 87 244 87 c 0,25,26
 279 87 279 87 307.5 106 c 128,-1,27
 336 125 336 125 372 168 c 1,28,-1
 374 185 l 1,29,-1
 445 691 l 1,30,-1
 576 691 l 1,31,-1
 505 185 l 2,32,33
 503 165 503 165 503 157 c 0,34,35
 503 123 503 123 517.5 105 c 128,-1,36
 532 87 532 87 560 87 c 0,37,38
 594 87 594 87 623 106 c 128,-1,39
 652 125 652 125 687 167 c 1,40,-1
 760 691 l 1,41,-1
 891 691 l 1,0,-1
EndSplineSet
Substitution2: "'c2sc' Capitals to Small Capitals lookup 27 subtable" uni026F.sc
Substitution2: "'aalt' Access All Alternates lookup 0 subtable" uni026F.sc
Position2: "'cpsp' Capital Spacing lookup 0 subtable" dx=5 dy=0 dh=10 dv=0
EndChar

StartChar: N
Encoding: 78 78 162
Width: 664
GlyphClass: 2
Flags: W
AnchorPoint: "Anchor-18" 0 0 basechar 0
AnchorPoint: "Anchor-17" 0 0 basechar 0
AnchorPoint: "Anchor-16" 400 691 basechar 0
AnchorPoint: "Anchor-15" 0 0 basechar 0
AnchorPoint: "Anchor-14" 296 0 basechar 0
LayerCount: 2
Fore
SplineSet
547 0 m 1,0,-1
 380 0 l 1,1,-1
 221 580 l 1,2,3
 222 508 222 508 217.5 438 c 128,-1,4
 213 368 213 368 200 276 c 2,5,-1
 162 0 l 1,6,-1
 43 0 l 1,7,-1
 140 691 l 1,8,-1
 307 691 l 1,9,-1
 468 111 l 1,10,11
 467 135 467 135 467 180 c 0,12,13
 467 274 467 274 480 373 c 2,14,-1
 526 691 l 1,15,-1
 644 691 l 1,16,-1
 547 0 l 1,0,-1
EndSplineSet
Substitution2: "'c2sc' Capitals to Small Capitals lookup 27 subtable" n.sc
Substitution2: "'aalt' Access All Alternates lookup 0 subtable" n.sc
Position2: "'cpsp' Capital Spacing lookup 0 subtable" dx=5 dy=0 dh=10 dv=0
EndChar

StartChar: Eng
Encoding: 330 330 171
Width: 664
GlyphClass: 2
Flags: W
AnchorPoint: "Anchor-18" 0 0 basechar 0
AnchorPoint: "Anchor-17" 0 0 basechar 0
AnchorPoint: "Anchor-16" 400 691 basechar 0
AnchorPoint: "Anchor-15" 0 0 basechar 0
AnchorPoint: "Anchor-14" 296 0 basechar 0
LayerCount: 2
Fore
SplineSet
644 691 m 1,0,-1
 547 0 l 1,1,-1
 541 -46 l 2,2,3
 528 -132 528 -132 476.5 -175 c 128,-1,4
 425 -218 425 -218 344 -218 c 0,5,6
 272 -218 272 -218 220 -176 c 1,7,-1
 274 -97 l 1,8,9
 291 -108 291 -108 305 -113 c 128,-1,10
 319 -118 319 -118 340 -118 c 0,11,12
 400 -118 400 -118 410 -49 c 2,13,-1
 417 0 l 1,14,-1
 380 0 l 1,15,-1
 221 580 l 1,16,17
 222 508 222 508 217.5 438 c 128,-1,18
 213 368 213 368 200 276 c 2,19,-1
 162 0 l 1,20,-1
 43 0 l 1,21,-1
 140 691 l 1,22,-1
 307 691 l 1,23,-1
 468 111 l 1,24,25
 467 135 467 135 467 180 c 0,26,27
 467 274 467 274 480 373 c 2,28,-1
 526 691 l 1,29,-1
 644 691 l 1,0,-1
EndSplineSet
Substitution2: "'ss01' Style Set 1 lookup 34 subtable" Eng.ss01
Substitution2: "'salt' Stylistic Alternatives lookup 33 subtable" Eng.ss01
Substitution2: "'c2sc' Capitals to Small Capitals lookup 27 subtable" eng.sc
AlternateSubs2: "'aalt' Access All Alternates lookup 1 subtable" eng.sc Eng.ss01
Position2: "'cpsp' Capital Spacing lookup 0 subtable" dx=5 dy=0 dh=10 dv=0
EndChar

StartChar: uni019D
Encoding: 413 413 172
Width: 664
GlyphClass: 2
Flags: W
AnchorPoint: "Anchor-18" 0 0 basechar 0
AnchorPoint: "Anchor-17" 0 0 basechar 0
AnchorPoint: "Anchor-16" 400 691 basechar 0
AnchorPoint: "Anchor-15" 0 0 basechar 0
AnchorPoint: "Anchor-14" 296 0 basechar 0
LayerCount: 2
Fore
SplineSet
644 691 m 1,0,-1
 547 0 l 1,1,-1
 380 0 l 1,2,-1
 221 580 l 1,3,4
 222 508 222 508 217.5 438 c 128,-1,5
 213 368 213 368 200 276 c 2,6,-1
 162 0 l 1,7,-1
 155 -46 l 2,8,9
 143 -132 143 -132 94.5 -175 c 128,-1,10
 46 -218 46 -218 -30 -218 c 0,11,12
 -102 -218 -102 -218 -154 -176 c 1,13,-1
 -100 -101 l 1,14,15
 -82 -112 -82 -112 -68 -117 c 128,-1,16
 -54 -122 -54 -122 -34 -122 c 0,17,18
 -5 -122 -5 -122 13.5 -104 c 128,-1,19
 32 -86 32 -86 36 -49 c 2,20,-1
 43 0 l 1,21,-1
 140 691 l 1,22,-1
 307 691 l 1,23,-1
 468 111 l 1,24,25
 467 135 467 135 467 180 c 0,26,27
 467 274 467 274 480 373 c 2,28,-1
 526 691 l 1,29,-1
 644 691 l 1,0,-1
EndSplineSet
Substitution2: "'ss01' Style Set 1 lookup 34 subtable" uni019D.ss01
Substitution2: "'salt' Stylistic Alternatives lookup 33 subtable" uni019D.ss01
Substitution2: "'c2sc' Capitals to Small Capitals lookup 27 subtable" uni0272.sc
AlternateSubs2: "'aalt' Access All Alternates lookup 1 subtable" uni0272.sc uni019D.ss01
Position2: "'cpsp' Capital Spacing lookup 0 subtable" dx=5 dy=0 dh=10 dv=0
EndChar

StartChar: uni0220
Encoding: 544 544 174
Width: 651
GlyphClass: 2
Flags: W
AnchorPoint: "Anchor-18" 0 0 basechar 0
AnchorPoint: "Anchor-17" 0 0 basechar 0
AnchorPoint: "Anchor-16" 391 691 basechar 0
AnchorPoint: "Anchor-15" 0 0 basechar 0
AnchorPoint: "Anchor-14" 0 0 basechar 0
LayerCount: 2
Fore
SplineSet
574.5 662.5 m 128,-1,1
 616 619 616 619 616 547 c 0,2,3
 616 529 616 529 613 511 c 2,4,-1
 513 -206 l 1,5,-1
 383 -206 l 1,6,-1
 480 496 l 2,7,8
 483 514 483 514 483 529 c 0,9,10
 483 567 483 567 465.5 585.5 c 128,-1,11
 448 604 448 604 411 604 c 0,12,13
 367 604 367 604 330.5 584.5 c 128,-1,14
 294 565 294 565 247 524 c 1,15,-1
 173 0 l 1,16,-1
 43 0 l 1,17,-1
 140 691 l 1,18,-1
 254 691 l 1,19,-1
 254 623 l 1,20,21
 301 665 301 665 348.5 685.5 c 128,-1,22
 396 706 396 706 454 706 c 0,23,0
 533 706 533 706 574.5 662.5 c 128,-1,1
EndSplineSet
Substitution2: "'c2sc' Capitals to Small Capitals lookup 27 subtable" uni0220.sc
Substitution2: "'aalt' Access All Alternates lookup 0 subtable" uni0220.sc
Position2: "'cpsp' Capital Spacing lookup 0 subtable" dx=5 dy=0 dh=10 dv=0
EndChar

StartChar: O
Encoding: 79 79 176
Width: 683
GlyphClass: 2
Flags: W
AnchorPoint: "Anchor-18" 0 0 basechar 0
AnchorPoint: "Anchor-17" 617 691 basechar 0
AnchorPoint: "Anchor-16" 404 691 basechar 0
AnchorPoint: "Anchor-15" 416 0 basechar 0
AnchorPoint: "Anchor-14" 303 0 basechar 0
LayerCount: 2
Fore
SplineSet
590 632.5 m 128,-1,1
 658 559 658 559 658 424 c 0,2,3
 658 321 658 321 623 220.5 c 128,-1,4
 588 120 588 120 509 52.5 c 128,-1,5
 430 -15 430 -15 306 -15 c 0,6,7
 185 -15 185 -15 117 58.5 c 128,-1,8
 49 132 49 132 49 266 c 0,9,10
 49 368 49 368 84 468.5 c 128,-1,11
 119 569 119 569 198 637.5 c 128,-1,12
 277 706 277 706 401 706 c 0,13,0
 522 706 522 706 590 632.5 c 128,-1,1
269 548.5 m 128,-1,15
 222 492 222 492 203 412.5 c 128,-1,16
 184 333 184 333 184 258 c 0,17,18
 184 86 184 86 313 86 c 0,19,20
 391 86 391 86 437.5 142.5 c 128,-1,21
 484 199 484 199 503 278.5 c 128,-1,22
 522 358 522 358 522 434 c 0,23,24
 522 523 522 523 489.5 564 c 128,-1,25
 457 605 457 605 393 605 c 0,26,14
 316 605 316 605 269 548.5 c 128,-1,15
EndSplineSet
Substitution2: "Single Substitution lookup 44 subtable" ordmasculine
Substitution2: "'c2sc' Capitals to Small Capitals lookup 27 subtable" o.sc
AlternateSubs2: "'aalt' Access All Alternates lookup 1 subtable" ordmasculine o.sc
Position2: "'cpsp' Capital Spacing lookup 0 subtable" dx=5 dy=0 dh=10 dv=0
EndChar

StartChar: uni0222
Encoding: 546 546 177
Width: 643
GlyphClass: 2
Flags: W
AnchorPoint: "Anchor-18" 0 0 basechar 0
AnchorPoint: "Anchor-17" 0 0 basechar 0
AnchorPoint: "Anchor-16" 381 691 basechar 0
AnchorPoint: "Anchor-15" 0 0 basechar 0
AnchorPoint: "Anchor-14" 284 0 basechar 0
LayerCount: 2
Fore
SplineSet
561.5 451 m 128,-1,1
 532 413 532 413 481 390 c 1,2,3
 536 369 536 369 565.5 330 c 128,-1,4
 595 291 595 291 595 236 c 0,5,6
 595 166 595 166 556.5 109 c 128,-1,7
 518 52 518 52 447.5 18.5 c 128,-1,8
 377 -15 377 -15 286 -15 c 0,9,10
 207 -15 207 -15 150 11.5 c 128,-1,11
 93 38 93 38 63.5 83.5 c 128,-1,12
 34 129 34 129 34 186 c 0,13,14
 34 260 34 260 77.5 312.5 c 128,-1,15
 121 365 121 365 198 391 c 1,16,17
 123 430 123 430 123 519 c 0,18,19
 123 528 123 528 125 550 c 2,20,-1
 145 691 l 1,21,-1
 276 691 l 1,22,-1
 255 544 l 2,23,24
 252 528 252 528 252 512 c 0,25,26
 252 435 252 435 343 435 c 0,27,28
 401 435 401 435 431 466 c 128,-1,29
 461 497 461 497 468 548 c 2,30,-1
 489 691 l 1,31,-1
 620 691 l 1,32,-1
 599 545 l 2,33,0
 591 489 591 489 561.5 451 c 128,-1,1
414 126 m 128,-1,35
 458 166 458 166 458 234 c 0,36,37
 458 283 458 283 427 310 c 128,-1,38
 396 337 396 337 335 337 c 0,39,40
 259 337 259 337 215 297 c 128,-1,41
 171 257 171 257 171 189 c 0,42,43
 171 139 171 139 202 112.5 c 128,-1,44
 233 86 233 86 293 86 c 0,45,34
 370 86 370 86 414 126 c 128,-1,35
EndSplineSet
Substitution2: "'c2sc' Capitals to Small Capitals lookup 27 subtable" uni0223.sc
Substitution2: "'aalt' Access All Alternates lookup 0 subtable" uni0223.sc
Position2: "'cpsp' Capital Spacing lookup 0 subtable" dx=5 dy=0 dh=10 dv=0
EndChar

StartChar: uni1ED0
Encoding: 7888 7888 183
Width: 683
GlyphClass: 2
Flags: W
AnchorPoint: "Anchor-18" 0 0 basechar 0
AnchorPoint: "Anchor-17" 518 772 basechar 0
AnchorPoint: "Anchor-16" 428 895 basechar 0
AnchorPoint: "Anchor-15" 416 0 basechar 0
AnchorPoint: "Anchor-14" 0 0 basechar 0
LayerCount: 2
Fore
SplineSet
660 1060 m 1,0,-1
 725 990 l 1,1,-1
 562 856 l 1,2,-1
 516 901 l 1,3,-1
 660 1060 l 1,0,-1
279 719 m 1,4,-1
 235 774 l 1,5,-1
 388 895 l 1,6,-1
 467 895 l 1,7,-1
 587 774 l 1,8,-1
 536 719 l 1,9,-1
 418 802 l 1,10,-1
 279 719 l 1,4,-1
590 632.5 m 128,-1,12
 658 559 658 559 658 424 c 0,13,14
 658 321 658 321 623 220.5 c 128,-1,15
 588 120 588 120 509 52.5 c 128,-1,16
 430 -15 430 -15 306 -15 c 0,17,18
 185 -15 185 -15 117 58.5 c 128,-1,19
 49 132 49 132 49 266 c 0,20,21
 49 368 49 368 84 468.5 c 128,-1,22
 119 569 119 569 198 637.5 c 128,-1,23
 277 706 277 706 401 706 c 0,24,11
 522 706 522 706 590 632.5 c 128,-1,12
269 548.5 m 128,-1,26
 222 492 222 492 203 412.5 c 128,-1,27
 184 333 184 333 184 258 c 0,28,29
 184 86 184 86 313 86 c 0,30,31
 391 86 391 86 437.5 142.5 c 128,-1,32
 484 199 484 199 503 278.5 c 128,-1,33
 522 358 522 358 522 434 c 0,34,35
 522 523 522 523 489.5 564 c 128,-1,36
 457 605 457 605 393 605 c 0,37,25
 316 605 316 605 269 548.5 c 128,-1,26
EndSplineSet
Substitution2: "'c2sc' Capitals to Small Capitals lookup 27 subtable" uni1ED1.sc
Substitution2: "'aalt' Access All Alternates lookup 0 subtable" uni1ED1.sc
Position2: "'cpsp' Capital Spacing lookup 0 subtable" dx=5 dy=0 dh=10 dv=0
EndChar

StartChar: uni1ED2
Encoding: 7890 7890 185
Width: 683
GlyphClass: 2
Flags: W
AnchorPoint: "Anchor-18" 0 0 basechar 0
AnchorPoint: "Anchor-17" 515 772 basechar 0
AnchorPoint: "Anchor-16" 425 895 basechar 0
AnchorPoint: "Anchor-15" 416 0 basechar 0
AnchorPoint: "Anchor-14" 0 0 basechar 0
LayerCount: 2
Fore
SplineSet
227 1058 m 1,0,-1
 329 897 l 1,1,-1
 277 856 l 1,2,-1
 149 993 l 1,3,-1
 227 1058 l 1,0,-1
276 719 m 1,4,-1
 232 774 l 1,5,-1
 385 895 l 1,6,-1
 464 895 l 1,7,-1
 584 774 l 1,8,-1
 533 719 l 1,9,-1
 415 802 l 1,10,-1
 276 719 l 1,4,-1
590 632.5 m 128,-1,12
 658 559 658 559 658 424 c 0,13,14
 658 321 658 321 623 220.5 c 128,-1,15
 588 120 588 120 509 52.5 c 128,-1,16
 430 -15 430 -15 306 -15 c 0,17,18
 185 -15 185 -15 117 58.5 c 128,-1,19
 49 132 49 132 49 266 c 0,20,21
 49 368 49 368 84 468.5 c 128,-1,22
 119 569 119 569 198 637.5 c 128,-1,23
 277 706 277 706 401 706 c 0,24,11
 522 706 522 706 590 632.5 c 128,-1,12
269 548.5 m 128,-1,26
 222 492 222 492 203 412.5 c 128,-1,27
 184 333 184 333 184 258 c 0,28,29
 184 86 184 86 313 86 c 0,30,31
 391 86 391 86 437.5 142.5 c 128,-1,32
 484 199 484 199 503 278.5 c 128,-1,33
 522 358 522 358 522 434 c 0,34,35
 522 523 522 523 489.5 564 c 128,-1,36
 457 605 457 605 393 605 c 0,37,25
 316 605 316 605 269 548.5 c 128,-1,26
EndSplineSet
Substitution2: "'c2sc' Capitals to Small Capitals lookup 27 subtable" uni1ED3.sc
Substitution2: "'aalt' Access All Alternates lookup 0 subtable" uni1ED3.sc
Position2: "'cpsp' Capital Spacing lookup 0 subtable" dx=5 dy=0 dh=10 dv=0
EndChar

StartChar: uni1ED6
Encoding: 7894 7894 187
Width: 683
GlyphClass: 2
Flags: W
AnchorPoint: "Anchor-18" 0 0 basechar 0
AnchorPoint: "Anchor-17" 515 772 basechar 0
AnchorPoint: "Anchor-16" 443 1057 basechar 0
AnchorPoint: "Anchor-15" 416 0 basechar 0
AnchorPoint: "Anchor-14" 0 0 basechar 0
LayerCount: 2
Fore
SplineSet
457 929.5 m 128,-1,1
 441 937 441 937 423 950 c 0,2,3
 400 968 400 968 386 968 c 0,4,5
 369 968 369 968 355 957 c 128,-1,6
 341 946 341 946 324 922 c 1,7,-1
 261 958 l 1,8,9
 286 1003 286 1003 319.5 1030 c 128,-1,10
 353 1057 353 1057 391 1057 c 0,11,12
 412 1057 412 1057 427.5 1050 c 128,-1,13
 443 1043 443 1043 460 1030 c 0,14,15
 473 1021 473 1021 480.5 1017 c 128,-1,16
 488 1013 488 1013 497 1013 c 0,17,18
 514 1013 514 1013 527.5 1023.5 c 128,-1,19
 541 1034 541 1034 556 1056 c 1,20,-1
 621 1021 l 1,21,22
 594 974 594 974 561.5 948 c 128,-1,23
 529 922 529 922 494 922 c 0,24,0
 473 922 473 922 457 929.5 c 128,-1,1
276 719 m 1,25,-1
 232 774 l 1,26,-1
 385 895 l 1,27,-1
 464 895 l 1,28,-1
 584 774 l 1,29,-1
 533 719 l 1,30,-1
 415 802 l 1,31,-1
 276 719 l 1,25,-1
590 632.5 m 128,-1,33
 658 559 658 559 658 424 c 0,34,35
 658 321 658 321 623 220.5 c 128,-1,36
 588 120 588 120 509 52.5 c 128,-1,37
 430 -15 430 -15 306 -15 c 0,38,39
 185 -15 185 -15 117 58.5 c 128,-1,40
 49 132 49 132 49 266 c 0,41,42
 49 368 49 368 84 468.5 c 128,-1,43
 119 569 119 569 198 637.5 c 128,-1,44
 277 706 277 706 401 706 c 0,45,32
 522 706 522 706 590 632.5 c 128,-1,33
269 548.5 m 128,-1,47
 222 492 222 492 203 412.5 c 128,-1,48
 184 333 184 333 184 258 c 0,49,50
 184 86 184 86 313 86 c 0,51,52
 391 86 391 86 437.5 142.5 c 128,-1,53
 484 199 484 199 503 278.5 c 128,-1,54
 522 358 522 358 522 434 c 0,55,56
 522 523 522 523 489.5 564 c 128,-1,57
 457 605 457 605 393 605 c 0,58,46
 316 605 316 605 269 548.5 c 128,-1,47
EndSplineSet
Substitution2: "'c2sc' Capitals to Small Capitals lookup 27 subtable" uni1ED7.sc
Substitution2: "'aalt' Access All Alternates lookup 0 subtable" uni1ED7.sc
Position2: "'cpsp' Capital Spacing lookup 0 subtable" dx=5 dy=0 dh=10 dv=0
EndChar

StartChar: Ohorn
Encoding: 416 416 196
Width: 699
GlyphClass: 2
Flags: W
AnchorPoint: "Anchor-18" 0 0 basechar 0
AnchorPoint: "Anchor-17" 669 691 basechar 0
AnchorPoint: "Anchor-16" 404 691 basechar 0
AnchorPoint: "Anchor-15" 416 0 basechar 0
AnchorPoint: "Anchor-14" 303 0 basechar 0
LayerCount: 2
Fore
SplineSet
712 620.5 m 128,-1,1
 683 585 683 585 629 574 c 1,2,3
 658 511 658 511 658 424 c 0,4,5
 658 321 658 321 623 220.5 c 128,-1,6
 588 120 588 120 509 52.5 c 128,-1,7
 430 -15 430 -15 306 -15 c 0,8,9
 185 -15 185 -15 117 58.5 c 128,-1,10
 49 132 49 132 49 266 c 0,11,12
 49 368 49 368 84 468.5 c 128,-1,13
 119 569 119 569 198 637.5 c 128,-1,14
 277 706 277 706 401 706 c 0,15,16
 519 706 519 706 586 637 c 1,17,18
 619 640 619 640 634 659.5 c 128,-1,19
 649 679 649 679 649 714 c 0,20,21
 649 737 649 737 644 760 c 1,22,-1
 732 771 l 1,23,24
 741 746 741 746 741 714 c 0,25,0
 741 656 741 656 712 620.5 c 128,-1,1
437.5 142.5 m 128,-1,27
 484 199 484 199 503 278.5 c 128,-1,28
 522 358 522 358 522 434 c 0,29,30
 522 523 522 523 489.5 564 c 128,-1,31
 457 605 457 605 393 605 c 0,32,33
 316 605 316 605 269 548.5 c 128,-1,34
 222 492 222 492 203 412.5 c 128,-1,35
 184 333 184 333 184 258 c 0,36,37
 184 86 184 86 313 86 c 0,38,26
 391 86 391 86 437.5 142.5 c 128,-1,27
EndSplineSet
Substitution2: "'c2sc' Capitals to Small Capitals lookup 27 subtable" ohorn.sc
Substitution2: "'aalt' Access All Alternates lookup 0 subtable" ohorn.sc
Position2: "'cpsp' Capital Spacing lookup 0 subtable" dx=5 dy=0 dh=10 dv=0
EndChar

StartChar: uni1EDA
Encoding: 7898 7898 197
Width: 699
GlyphClass: 2
Flags: W
AnchorPoint: "Anchor-18" 0 0 basechar 0
AnchorPoint: "Anchor-17" 669 691 basechar 0
AnchorPoint: "Anchor-16" 427 936 basechar 0
AnchorPoint: "Anchor-15" 416 0 basechar 0
AnchorPoint: "Anchor-14" 303 0 basechar 0
LayerCount: 2
Fore
SplineSet
558 831 m 1,0,-1
 324 751 l 1,1,-1
 297 816 l 1,2,-1
 518 931 l 1,3,-1
 558 831 l 1,0,-1
712 620.5 m 128,-1,5
 683 585 683 585 629 574 c 1,6,7
 658 511 658 511 658 424 c 0,8,9
 658 321 658 321 623 220.5 c 128,-1,10
 588 120 588 120 509 52.5 c 128,-1,11
 430 -15 430 -15 306 -15 c 0,12,13
 185 -15 185 -15 117 58.5 c 128,-1,14
 49 132 49 132 49 266 c 0,15,16
 49 368 49 368 84 468.5 c 128,-1,17
 119 569 119 569 198 637.5 c 128,-1,18
 277 706 277 706 401 706 c 0,19,20
 519 706 519 706 586 637 c 1,21,22
 619 640 619 640 634 659.5 c 128,-1,23
 649 679 649 679 649 714 c 0,24,25
 649 737 649 737 644 760 c 1,26,-1
 732 771 l 1,27,28
 741 746 741 746 741 714 c 0,29,4
 741 656 741 656 712 620.5 c 128,-1,5
437.5 142.5 m 128,-1,31
 484 199 484 199 503 278.5 c 128,-1,32
 522 358 522 358 522 434 c 0,33,34
 522 523 522 523 489.5 564 c 128,-1,35
 457 605 457 605 393 605 c 0,36,37
 316 605 316 605 269 548.5 c 128,-1,38
 222 492 222 492 203 412.5 c 128,-1,39
 184 333 184 333 184 258 c 0,40,41
 184 86 184 86 313 86 c 0,42,30
 391 86 391 86 437.5 142.5 c 128,-1,31
EndSplineSet
Substitution2: "'c2sc' Capitals to Small Capitals lookup 27 subtable" uni1EDB.sc
Substitution2: "'aalt' Access All Alternates lookup 0 subtable" uni1EDB.sc
Position2: "'cpsp' Capital Spacing lookup 0 subtable" dx=5 dy=0 dh=10 dv=0
EndChar

StartChar: uni1EE2
Encoding: 7906 7906 198
Width: 699
GlyphClass: 2
Flags: W
AnchorPoint: "Anchor-18" 0 0 basechar 0
AnchorPoint: "Anchor-17" 669 691 basechar 0
AnchorPoint: "Anchor-16" 404 691 basechar 0
AnchorPoint: "Anchor-15" 416 0 basechar 0
AnchorPoint: "Anchor-14" 279 -221 basechar 0
LayerCount: 2
Fore
SplineSet
712 620.5 m 128,-1,1
 683 585 683 585 629 574 c 1,2,3
 658 511 658 511 658 424 c 0,4,5
 658 321 658 321 623 220.5 c 128,-1,6
 588 120 588 120 509 52.5 c 128,-1,7
 430 -15 430 -15 306 -15 c 0,8,9
 185 -15 185 -15 117 58.5 c 128,-1,10
 49 132 49 132 49 266 c 0,11,12
 49 368 49 368 84 468.5 c 128,-1,13
 119 569 119 569 198 637.5 c 128,-1,14
 277 706 277 706 401 706 c 0,15,16
 519 706 519 706 586 637 c 1,17,18
 619 640 619 640 634 659.5 c 128,-1,19
 649 679 649 679 649 714 c 0,20,21
 649 737 649 737 644 760 c 1,22,-1
 732 771 l 1,23,24
 741 746 741 746 741 714 c 0,25,0
 741 656 741 656 712 620.5 c 128,-1,1
437.5 142.5 m 128,-1,27
 484 199 484 199 503 278.5 c 128,-1,28
 522 358 522 358 522 434 c 0,29,30
 522 523 522 523 489.5 564 c 128,-1,31
 457 605 457 605 393 605 c 0,32,33
 316 605 316 605 269 548.5 c 128,-1,34
 222 492 222 492 203 412.5 c 128,-1,35
 184 333 184 333 184 258 c 0,36,37
 184 86 184 86 313 86 c 0,38,26
 391 86 391 86 437.5 142.5 c 128,-1,27
343 -85.5 m 128,-1,40
 363 -105 363 -105 363 -135 c 0,41,42
 363 -172 363 -172 338 -196.5 c 128,-1,43
 313 -221 313 -221 276 -221 c 0,44,45
 244 -221 244 -221 224 -201.5 c 128,-1,46
 204 -182 204 -182 204 -151 c 0,47,48
 204 -115 204 -115 229 -90.5 c 128,-1,49
 254 -66 254 -66 291 -66 c 0,50,39
 323 -66 323 -66 343 -85.5 c 128,-1,40
EndSplineSet
Substitution2: "'c2sc' Capitals to Small Capitals lookup 27 subtable" uni1EE3.sc
Substitution2: "'aalt' Access All Alternates lookup 0 subtable" uni1EE3.sc
Position2: "'cpsp' Capital Spacing lookup 0 subtable" dx=5 dy=0 dh=10 dv=0
EndChar

StartChar: uni1EDC
Encoding: 7900 7900 199
Width: 699
GlyphClass: 2
Flags: W
AnchorPoint: "Anchor-18" 0 0 basechar 0
AnchorPoint: "Anchor-17" 669 691 basechar 0
AnchorPoint: "Anchor-16" 427 936 basechar 0
AnchorPoint: "Anchor-15" 416 0 basechar 0
AnchorPoint: "Anchor-14" 303 0 basechar 0
LayerCount: 2
Fore
SplineSet
552 815 m 1,0,-1
 516 751 l 1,1,-1
 304 830 l 1,2,-1
 359 930 l 1,3,-1
 552 815 l 1,0,-1
712 620.5 m 128,-1,5
 683 585 683 585 629 574 c 1,6,7
 658 511 658 511 658 424 c 0,8,9
 658 321 658 321 623 220.5 c 128,-1,10
 588 120 588 120 509 52.5 c 128,-1,11
 430 -15 430 -15 306 -15 c 0,12,13
 185 -15 185 -15 117 58.5 c 128,-1,14
 49 132 49 132 49 266 c 0,15,16
 49 368 49 368 84 468.5 c 128,-1,17
 119 569 119 569 198 637.5 c 128,-1,18
 277 706 277 706 401 706 c 0,19,20
 519 706 519 706 586 637 c 1,21,22
 619 640 619 640 634 659.5 c 128,-1,23
 649 679 649 679 649 714 c 0,24,25
 649 737 649 737 644 760 c 1,26,-1
 732 771 l 1,27,28
 741 746 741 746 741 714 c 0,29,4
 741 656 741 656 712 620.5 c 128,-1,5
437.5 142.5 m 128,-1,31
 484 199 484 199 503 278.5 c 128,-1,32
 522 358 522 358 522 434 c 0,33,34
 522 523 522 523 489.5 564 c 128,-1,35
 457 605 457 605 393 605 c 0,36,37
 316 605 316 605 269 548.5 c 128,-1,38
 222 492 222 492 203 412.5 c 128,-1,39
 184 333 184 333 184 258 c 0,40,41
 184 86 184 86 313 86 c 0,42,30
 391 86 391 86 437.5 142.5 c 128,-1,31
EndSplineSet
Substitution2: "'c2sc' Capitals to Small Capitals lookup 27 subtable" uni1EDD.sc
Substitution2: "'aalt' Access All Alternates lookup 0 subtable" uni1EDD.sc
Position2: "'cpsp' Capital Spacing lookup 0 subtable" dx=5 dy=0 dh=10 dv=0
EndChar

StartChar: uni1EDE
Encoding: 7902 7902 200
Width: 699
GlyphClass: 2
Flags: W
AnchorPoint: "Anchor-18" 0 0 basechar 0
AnchorPoint: "Anchor-17" 669 691 basechar 0
AnchorPoint: "Anchor-16" 451 995 basechar 0
AnchorPoint: "Anchor-15" 416 0 basechar 0
AnchorPoint: "Anchor-14" 303 0 basechar 0
LayerCount: 2
Fore
SplineSet
367 909 m 1,1,-1
 348 971 l 1,2,3
 394 995 394 995 448 995 c 0,4,5
 500 995 500 995 528 969.5 c 128,-1,6
 556 944 556 944 556 903 c 0,7,8
 556 824 556 824 462 808 c 1,9,-1
 456 763 l 1,10,-1
 374 763 l 1,11,-1
 384 850 l 1,12,13
 423 854 423 854 442.5 864.5 c 128,-1,14
 462 875 462 875 462 897 c 0,15,16
 462 924 462 924 427 924 c 0,17,0
 399 924 399 924 367 909 c 1,1,-1
712 620.5 m 128,-1,19
 683 585 683 585 629 574 c 1,20,21
 658 511 658 511 658 424 c 0,22,23
 658 321 658 321 623 220.5 c 128,-1,24
 588 120 588 120 509 52.5 c 128,-1,25
 430 -15 430 -15 306 -15 c 0,26,27
 185 -15 185 -15 117 58.5 c 128,-1,28
 49 132 49 132 49 266 c 0,29,30
 49 368 49 368 84 468.5 c 128,-1,31
 119 569 119 569 198 637.5 c 128,-1,32
 277 706 277 706 401 706 c 0,33,34
 519 706 519 706 586 637 c 1,35,36
 619 640 619 640 634 659.5 c 128,-1,37
 649 679 649 679 649 714 c 0,38,39
 649 737 649 737 644 760 c 1,40,-1
 732 771 l 1,41,42
 741 746 741 746 741 714 c 0,43,18
 741 656 741 656 712 620.5 c 128,-1,19
437.5 142.5 m 128,-1,45
 484 199 484 199 503 278.5 c 128,-1,46
 522 358 522 358 522 434 c 0,47,48
 522 523 522 523 489.5 564 c 128,-1,49
 457 605 457 605 393 605 c 0,50,51
 316 605 316 605 269 548.5 c 128,-1,52
 222 492 222 492 203 412.5 c 128,-1,53
 184 333 184 333 184 258 c 0,54,55
 184 86 184 86 313 86 c 0,56,44
 391 86 391 86 437.5 142.5 c 128,-1,45
EndSplineSet
Substitution2: "'c2sc' Capitals to Small Capitals lookup 27 subtable" uni1EDF.sc
Substitution2: "'aalt' Access All Alternates lookup 0 subtable" uni1EDF.sc
Position2: "'cpsp' Capital Spacing lookup 0 subtable" dx=5 dy=0 dh=10 dv=0
EndChar

StartChar: uni1EE0
Encoding: 7904 7904 201
Width: 699
GlyphClass: 2
Flags: W
AnchorPoint: "Anchor-18" 0 0 basechar 0
AnchorPoint: "Anchor-17" 669 691 basechar 0
AnchorPoint: "Anchor-16" 428 910 basechar 0
AnchorPoint: "Anchor-15" 416 0 basechar 0
AnchorPoint: "Anchor-14" 303 0 basechar 0
LayerCount: 2
Fore
SplineSet
337.5 805.5 m 128,-1,1
 324 794 324 794 307 770 c 1,2,-1
 244 807 l 1,3,4
 269 853 269 853 302.5 881.5 c 128,-1,5
 336 910 336 910 374 910 c 0,6,7
 396 910 396 910 411.5 902.5 c 128,-1,8
 427 895 427 895 444 882 c 0,9,10
 456 873 456 873 464 868.5 c 128,-1,11
 472 864 472 864 481 864 c 0,12,13
 497 864 497 864 511 875 c 128,-1,14
 525 886 525 886 541 909 c 1,15,-1
 606 872 l 1,16,17
 579 824 579 824 546 797 c 128,-1,18
 513 770 513 770 478 770 c 0,19,20
 457 770 457 770 441.5 777.5 c 128,-1,21
 426 785 426 785 407 799 c 0,22,23
 398 806 398 806 388 811.5 c 128,-1,24
 378 817 378 817 369 817 c 0,25,0
 351 817 351 817 337.5 805.5 c 128,-1,1
712 620.5 m 128,-1,27
 683 585 683 585 629 574 c 1,28,29
 658 511 658 511 658 424 c 0,30,31
 658 321 658 321 623 220.5 c 128,-1,32
 588 120 588 120 509 52.5 c 128,-1,33
 430 -15 430 -15 306 -15 c 0,34,35
 185 -15 185 -15 117 58.5 c 128,-1,36
 49 132 49 132 49 266 c 0,37,38
 49 368 49 368 84 468.5 c 128,-1,39
 119 569 119 569 198 637.5 c 128,-1,40
 277 706 277 706 401 706 c 0,41,42
 519 706 519 706 586 637 c 1,43,44
 619 640 619 640 634 659.5 c 128,-1,45
 649 679 649 679 649 714 c 0,46,47
 649 737 649 737 644 760 c 1,48,-1
 732 771 l 1,49,50
 741 746 741 746 741 714 c 0,51,26
 741 656 741 656 712 620.5 c 128,-1,27
437.5 142.5 m 128,-1,53
 484 199 484 199 503 278.5 c 128,-1,54
 522 358 522 358 522 434 c 0,55,56
 522 523 522 523 489.5 564 c 128,-1,57
 457 605 457 605 393 605 c 0,58,59
 316 605 316 605 269 548.5 c 128,-1,60
 222 492 222 492 203 412.5 c 128,-1,61
 184 333 184 333 184 258 c 0,62,63
 184 86 184 86 313 86 c 0,64,52
 391 86 391 86 437.5 142.5 c 128,-1,53
EndSplineSet
Substitution2: "'c2sc' Capitals to Small Capitals lookup 27 subtable" uni1EE1.sc
Substitution2: "'aalt' Access All Alternates lookup 0 subtable" uni1EE1.sc
Position2: "'cpsp' Capital Spacing lookup 0 subtable" dx=5 dy=0 dh=10 dv=0
EndChar

StartChar: uni01A2
Encoding: 418 418 203
Width: 933
GlyphClass: 2
Flags: W
AnchorPoint: "Anchor-18" 0 0 basechar 0
AnchorPoint: "Anchor-17" 0 0 basechar 0
AnchorPoint: "Anchor-16" 526 691 basechar 0
AnchorPoint: "Anchor-15" 0 0 basechar 0
AnchorPoint: "Anchor-14" 0 0 basechar 0
LayerCount: 2
Fore
SplineSet
851 670 m 128,-1,1
 893 633 893 633 893 564 c 0,2,3
 893 546 893 546 890 528 c 2,4,-1
 787 -206 l 1,5,-1
 656 -206 l 1,6,-1
 760 533 l 2,7,8
 762 551 762 551 762 557 c 0,9,10
 762 584 762 584 749.5 597.5 c 128,-1,11
 737 611 737 611 708 611 c 0,12,13
 664 611 664 611 621 588 c 1,14,15
 658 520 658 520 658 424 c 0,16,17
 658 321 658 321 623 220.5 c 128,-1,18
 588 120 588 120 509 52.5 c 128,-1,19
 430 -15 430 -15 306 -15 c 0,20,21
 185 -15 185 -15 117 58.5 c 128,-1,22
 49 132 49 132 49 266 c 0,23,24
 49 368 49 368 84 468.5 c 128,-1,25
 119 569 119 569 198 637.5 c 128,-1,26
 277 706 277 706 401 706 c 0,27,28
 499 706 499 706 564 655 c 1,29,30
 641 707 641 707 730 707 c 0,31,0
 809 707 809 707 851 670 c 128,-1,1
437.5 142.5 m 128,-1,33
 484 199 484 199 503 278.5 c 128,-1,34
 522 358 522 358 522 434 c 0,35,36
 522 523 522 523 489.5 564 c 128,-1,37
 457 605 457 605 393 605 c 0,38,39
 316 605 316 605 269 548.5 c 128,-1,40
 222 492 222 492 203 412.5 c 128,-1,41
 184 333 184 333 184 258 c 0,42,43
 184 86 184 86 313 86 c 0,44,32
 391 86 391 86 437.5 142.5 c 128,-1,33
EndSplineSet
Substitution2: "'c2sc' Capitals to Small Capitals lookup 27 subtable" uni01A3.sc
Substitution2: "'aalt' Access All Alternates lookup 0 subtable" uni01A3.sc
Position2: "'cpsp' Capital Spacing lookup 0 subtable" dx=5 dy=0 dh=10 dv=0
EndChar

StartChar: uniA7B6
Encoding: 42934 42934 208
Width: 857
GlyphClass: 2
Flags: W
AnchorPoint: "Anchor-18" 0 0 basechar 0
AnchorPoint: "Anchor-17" 0 0 basechar 0
AnchorPoint: "Anchor-16" 488 691 basechar 0
AnchorPoint: "Anchor-15" 0 0 basechar 0
AnchorPoint: "Anchor-14" 391 0 basechar 0
LayerCount: 2
Fore
SplineSet
52 203 m 0,1,2
 52 322 52 322 89.5 450.5 c 128,-1,3
 127 579 127 579 191 691 c 1,4,-1
 315 691 l 1,5,6
 255 576 255 576 218 444 c 128,-1,7
 181 312 181 312 181 199 c 0,8,9
 181 137 181 137 198.5 111.5 c 128,-1,10
 216 86 216 86 255 86 c 0,11,12
 337 86 337 86 352 190 c 2,13,-1
 381 398 l 1,14,-1
 510 398 l 1,15,-1
 480 185 l 2,16,17
 477 167 477 167 477 153 c 0,18,19
 477 86 477 86 542 86 c 0,20,21
 623 86 623 86 656 199.5 c 128,-1,22
 689 313 689 313 689 457 c 0,23,24
 689 521 689 521 681.5 574.5 c 128,-1,25
 674 628 674 628 660 691 c 1,26,-1
 784 691 l 1,27,28
 818 579 818 579 818 454 c 0,29,30
 818 250 818 250 755.5 117.5 c 128,-1,31
 693 -15 693 -15 549 -15 c 0,32,33
 421 -15 421 -15 405 106 c 1,34,35
 355 -15 355 -15 234 -15 c 0,36,0
 52 -15 52 -15 52 203 c 0,1,2
EndSplineSet
Substitution2: "'c2sc' Capitals to Small Capitals lookup 27 subtable" uniA7B6.sc
Substitution2: "'aalt' Access All Alternates lookup 0 subtable" uniA7B6.sc
Position2: "'cpsp' Capital Spacing lookup 0 subtable" dx=5 dy=0 dh=10 dv=0
EndChar

StartChar: uni01EA
Encoding: 490 490 209
Width: 683
GlyphClass: 2
Flags: W
AnchorPoint: "Anchor-18" 0 0 basechar 0
AnchorPoint: "Anchor-17" 617 691 basechar 0
AnchorPoint: "Anchor-16" 404 691 basechar 0
AnchorPoint: "Anchor-15" 416 0 basechar 0
AnchorPoint: "Anchor-14" 303 0 basechar 0
LayerCount: 2
Fore
SplineSet
270 -119 m 0,1,2
 270 -154 270 -154 316 -154 c 0,3,4
 341 -154 341 -154 378 -146 c 1,5,-1
 360 -232 l 1,6,7
 323 -239 323 -239 295 -239 c 0,8,9
 239 -239 239 -239 205 -211.5 c 128,-1,10
 171 -184 171 -184 171 -139 c 0,11,12
 171 -62 171 -62 253 -11 c 1,13,14
 156 4 156 4 102.5 75.5 c 128,-1,15
 49 147 49 147 49 266 c 0,16,17
 49 368 49 368 84 468.5 c 128,-1,18
 119 569 119 569 198 637.5 c 128,-1,19
 277 706 277 706 401 706 c 0,20,21
 522 706 522 706 590 632.5 c 128,-1,22
 658 559 658 559 658 424 c 0,23,24
 658 336 658 336 632.5 248 c 128,-1,25
 607 160 607 160 549 91 c 128,-1,26
 491 22 491 22 401 -3 c 1,27,0
 270 -55 270 -55 270 -119 c 0,1,2
313 86 m 0,29,30
 391 86 391 86 437.5 142.5 c 128,-1,31
 484 199 484 199 503 278.5 c 128,-1,32
 522 358 522 358 522 434 c 0,33,34
 522 523 522 523 489.5 564 c 128,-1,35
 457 605 457 605 393 605 c 0,36,37
 316 605 316 605 269 548.5 c 128,-1,38
 222 492 222 492 203 412.5 c 128,-1,39
 184 333 184 333 184 258 c 0,40,28
 184 86 184 86 313 86 c 0,29,30
EndSplineSet
Substitution2: "'c2sc' Capitals to Small Capitals lookup 27 subtable" uni01EB.sc
Substitution2: "'aalt' Access All Alternates lookup 0 subtable" uni01EB.sc
Position2: "'cpsp' Capital Spacing lookup 0 subtable" dx=5 dy=0 dh=10 dv=0
EndChar

StartChar: uni01EC
Encoding: 492 492 210
Width: 683
GlyphClass: 2
Flags: W
AnchorPoint: "Anchor-18" 0 0 basechar 0
AnchorPoint: "Anchor-17" 617 691 basechar 0
AnchorPoint: "Anchor-16" 425 878 basechar 0
AnchorPoint: "Anchor-15" 416 0 basechar 0
AnchorPoint: "Anchor-14" 303 0 basechar 0
LayerCount: 2
Fore
SplineSet
575 878 m 1,0,-1
 562 787 l 1,1,-1
 275 787 l 1,2,-1
 287 878 l 1,3,-1
 575 878 l 1,0,-1
270 -119 m 0,5,6
 270 -154 270 -154 316 -154 c 0,7,8
 341 -154 341 -154 378 -146 c 1,9,-1
 360 -232 l 1,10,11
 323 -239 323 -239 295 -239 c 0,12,13
 239 -239 239 -239 205 -211.5 c 128,-1,14
 171 -184 171 -184 171 -139 c 0,15,16
 171 -62 171 -62 253 -11 c 1,17,18
 156 4 156 4 102.5 75.5 c 128,-1,19
 49 147 49 147 49 266 c 0,20,21
 49 368 49 368 84 468.5 c 128,-1,22
 119 569 119 569 198 637.5 c 128,-1,23
 277 706 277 706 401 706 c 0,24,25
 522 706 522 706 590 632.5 c 128,-1,26
 658 559 658 559 658 424 c 0,27,28
 658 336 658 336 632.5 248 c 128,-1,29
 607 160 607 160 549 91 c 128,-1,30
 491 22 491 22 401 -3 c 1,31,4
 270 -55 270 -55 270 -119 c 0,5,6
313 86 m 0,33,34
 391 86 391 86 437.5 142.5 c 128,-1,35
 484 199 484 199 503 278.5 c 128,-1,36
 522 358 522 358 522 434 c 0,37,38
 522 523 522 523 489.5 564 c 128,-1,39
 457 605 457 605 393 605 c 0,40,41
 316 605 316 605 269 548.5 c 128,-1,42
 222 492 222 492 203 412.5 c 128,-1,43
 184 333 184 333 184 258 c 0,44,32
 184 86 184 86 313 86 c 0,33,34
EndSplineSet
Substitution2: "'c2sc' Capitals to Small Capitals lookup 27 subtable" uni01ED.sc
Substitution2: "'aalt' Access All Alternates lookup 0 subtable" uni01ED.sc
Position2: "'cpsp' Capital Spacing lookup 0 subtable" dx=5 dy=0 dh=10 dv=0
EndChar

StartChar: uni0186
Encoding: 390 390 211
Width: 560
GlyphClass: 2
Flags: W
AnchorPoint: "Anchor-18" 0 0 basechar 0
AnchorPoint: "Anchor-17" 0 0 basechar 0
AnchorPoint: "Anchor-16" 293 691 basechar 0
AnchorPoint: "Anchor-15" 0 0 basechar 0
AnchorPoint: "Anchor-14" 196 0 basechar 0
LayerCount: 2
Fore
SplineSet
467 632 m 128,-1,1
 533 558 533 558 533 423 c 0,2,3
 533 305 533 305 491 204.5 c 128,-1,4
 449 104 449 104 369.5 44.5 c 128,-1,5
 290 -15 290 -15 182 -15 c 0,6,7
 116 -15 116 -15 68.5 9 c 128,-1,8
 21 33 21 33 -16 71 c 1,9,-1
 53 146 l 1,10,11
 86 119 86 119 115.5 105 c 128,-1,12
 145 91 145 91 184 91 c 0,13,14
 256 91 256 91 304 140 c 128,-1,15
 352 189 352 189 374.5 265.5 c 128,-1,16
 397 342 397 342 397 425 c 0,17,18
 397 604 397 604 272 604 c 0,19,20
 234 604 234 604 199 591.5 c 128,-1,21
 164 579 164 579 126 553 c 1,22,-1
 69 635 l 1,23,24
 118 671 118 671 169.5 688.5 c 128,-1,25
 221 706 221 706 287 706 c 0,26,0
 401 706 401 706 467 632 c 128,-1,1
EndSplineSet
Substitution2: "'c2sc' Capitals to Small Capitals lookup 27 subtable" uni0254.sc
Substitution2: "'aalt' Access All Alternates lookup 0 subtable" uni0254.sc
Position2: "'cpsp' Capital Spacing lookup 0 subtable" dx=5 dy=0 dh=10 dv=0
EndChar

StartChar: Oslash
Encoding: 216 216 212
Width: 683
GlyphClass: 2
Flags: W
AnchorPoint: "Anchor-18" 0 0 basechar 0
AnchorPoint: "Anchor-17" 0 0 basechar 0
AnchorPoint: "Anchor-16" 403 717 basechar 0
AnchorPoint: "Anchor-15" 0 0 basechar 0
AnchorPoint: "Anchor-14" 304 0 basechar 0
LayerCount: 2
Fore
SplineSet
631 570 m 128,-1,1
 658 509 658 509 658 424 c 0,2,3
 658 321 658 321 623 220.5 c 128,-1,4
 588 120 588 120 509 52.5 c 128,-1,5
 430 -15 430 -15 306 -15 c 0,6,7
 279 -15 279 -15 247 -10 c 1,8,-1
 195 -131 l 1,9,-1
 95 -104 l 1,10,-1
 154 27 l 1,11,12
 103 61 103 61 76 121.5 c 128,-1,13
 49 182 49 182 49 266 c 0,14,15
 49 368 49 368 84 468.5 c 128,-1,16
 119 569 119 569 198 637.5 c 128,-1,17
 277 706 277 706 401 706 c 0,18,19
 429 706 429 706 457 701 c 1,20,-1
 512 824 l 1,21,-1
 611 796 l 1,22,-1
 552 665 l 1,23,0
 604 631 604 631 631 570 c 128,-1,1
268.5 548 m 128,-1,25
 221 491 221 491 201.5 410.5 c 128,-1,26
 182 330 182 330 182 252 c 0,27,28
 182 159 182 159 215 121 c 1,29,-1
 427 603 l 1,30,31
 405 605 405 605 393 605 c 0,32,24
 316 605 316 605 268.5 548 c 128,-1,25
438 143 m 128,-1,34
 485 200 485 200 504 281.5 c 128,-1,35
 523 363 523 363 523 443 c 0,36,37
 523 535 523 535 490 572 c 1,38,-1
 279 88 l 1,39,40
 299 86 299 86 313 86 c 0,41,33
 391 86 391 86 438 143 c 128,-1,34
EndSplineSet
Substitution2: "'c2sc' Capitals to Small Capitals lookup 27 subtable" oslash.sc
Substitution2: "'aalt' Access All Alternates lookup 0 subtable" oslash.sc
Position2: "'cpsp' Capital Spacing lookup 0 subtable" dx=5 dy=0 dh=10 dv=0
EndChar

StartChar: uni022C
Encoding: 556 556 216
Width: 683
GlyphClass: 2
Flags: W
AnchorPoint: "Anchor-18" 0 0 basechar 0
AnchorPoint: "Anchor-17" 617 691 basechar 0
AnchorPoint: "Anchor-16" 435 1020 basechar 0
AnchorPoint: "Anchor-15" 416 0 basechar 0
AnchorPoint: "Anchor-14" 303 0 basechar 0
LayerCount: 2
Fore
SplineSet
572 929 m 1,0,-1
 285 929 l 1,1,-1
 297 1020 l 1,2,-1
 585 1020 l 1,3,-1
 572 929 l 1,0,-1
435.5 763.5 m 128,-1,5
 420 771 420 771 401 785 c 0,6,7
 392 792 392 792 382 797.5 c 128,-1,8
 372 803 372 803 363 803 c 0,9,10
 345 803 345 803 331.5 791.5 c 128,-1,11
 318 780 318 780 301 756 c 1,12,-1
 238 793 l 1,13,14
 263 839 263 839 296.5 867.5 c 128,-1,15
 330 896 330 896 368 896 c 0,16,17
 390 896 390 896 405.5 888.5 c 128,-1,18
 421 881 421 881 438 868 c 0,19,20
 450 859 450 859 458 854.5 c 128,-1,21
 466 850 466 850 475 850 c 0,22,23
 491 850 491 850 505 861 c 128,-1,24
 519 872 519 872 535 895 c 1,25,-1
 600 858 l 1,26,27
 573 810 573 810 540 783 c 128,-1,28
 507 756 507 756 472 756 c 0,29,4
 451 756 451 756 435.5 763.5 c 128,-1,5
590 632.5 m 128,-1,31
 658 559 658 559 658 424 c 0,32,33
 658 321 658 321 623 220.5 c 128,-1,34
 588 120 588 120 509 52.5 c 128,-1,35
 430 -15 430 -15 306 -15 c 0,36,37
 185 -15 185 -15 117 58.5 c 128,-1,38
 49 132 49 132 49 266 c 0,39,40
 49 368 49 368 84 468.5 c 128,-1,41
 119 569 119 569 198 637.5 c 128,-1,42
 277 706 277 706 401 706 c 0,43,30
 522 706 522 706 590 632.5 c 128,-1,31
269 548.5 m 128,-1,45
 222 492 222 492 203 412.5 c 128,-1,46
 184 333 184 333 184 258 c 0,47,48
 184 86 184 86 313 86 c 0,49,50
 391 86 391 86 437.5 142.5 c 128,-1,51
 484 199 484 199 503 278.5 c 128,-1,52
 522 358 522 358 522 434 c 0,53,54
 522 523 522 523 489.5 564 c 128,-1,55
 457 605 457 605 393 605 c 0,56,44
 316 605 316 605 269 548.5 c 128,-1,45
EndSplineSet
Substitution2: "'c2sc' Capitals to Small Capitals lookup 27 subtable" uni022D.sc
Substitution2: "'aalt' Access All Alternates lookup 0 subtable" uni022D.sc
Position2: "'cpsp' Capital Spacing lookup 0 subtable" dx=5 dy=0 dh=10 dv=0
EndChar

StartChar: OE
Encoding: 338 338 217
Width: 889
GlyphClass: 2
Flags: W
AnchorPoint: "Anchor-18" 0 0 basechar 0
AnchorPoint: "Anchor-17" 0 0 basechar 0
AnchorPoint: "Anchor-16" 509 691 basechar 0
AnchorPoint: "Anchor-15" 0 0 basechar 0
AnchorPoint: "Anchor-14" 411 0 basechar 0
LayerCount: 2
Fore
SplineSet
875 593 m 1,0,-1
 588 593 l 1,1,2
 635 525 635 525 635 412 c 2,3,-1
 635 400 l 1,4,-1
 815 400 l 1,5,-1
 802 302 l 1,6,-1
 624 302 l 1,7,8
 600 178 600 178 522 99 c 1,9,-1
 823 99 l 1,10,-1
 809 0 l 1,11,-1
 379 0 l 1,12,13
 337 -15 337 -15 291 -15 c 0,14,15
 179 -15 179 -15 114 58.5 c 128,-1,16
 49 132 49 132 49 265 c 0,17,18
 49 365 49 365 83.5 466.5 c 128,-1,19
 118 568 118 568 194 637 c 128,-1,20
 270 706 270 706 385 706 c 0,21,22
 433 706 433 706 471 691 c 1,23,-1
 902 691 l 1,24,-1
 875 593 l 1,0,-1
215 126 m 128,-1,26
 246 86 246 86 303 86 c 0,27,28
 375 86 375 86 419.5 141.5 c 128,-1,29
 464 197 464 197 483 278.5 c 128,-1,30
 502 360 502 360 502 444 c 0,31,32
 502 605 502 605 383 605 c 0,33,34
 311 605 311 605 266.5 549.5 c 128,-1,35
 222 494 222 494 203 413.5 c 128,-1,36
 184 333 184 333 184 251 c 0,37,25
 184 166 184 166 215 126 c 128,-1,26
EndSplineSet
Substitution2: "'c2sc' Capitals to Small Capitals lookup 27 subtable" oe.sc
Substitution2: "'aalt' Access All Alternates lookup 0 subtable" oe.sc
Position2: "'cpsp' Capital Spacing lookup 0 subtable" dx=5 dy=0 dh=10 dv=0
EndChar

StartChar: P
Encoding: 80 80 218
Width: 583
GlyphClass: 2
Flags: W
AnchorPoint: "Anchor-18" 0 0 basechar 0
AnchorPoint: "Anchor-17" 0 0 basechar 0
AnchorPoint: "Anchor-16" 352 691 basechar 0
AnchorPoint: "Anchor-15" 0 0 basechar 0
AnchorPoint: "Anchor-14" 255 0 basechar 0
LayerCount: 2
Fore
SplineSet
524.5 643.5 m 128,-1,1
 590 596 590 596 590 503 c 0,2,3
 590 434 590 434 559.5 375 c 128,-1,4
 529 316 529 316 461.5 278.5 c 128,-1,5
 394 241 394 241 289 241 c 2,6,-1
 208 241 l 1,7,-1
 174 0 l 1,8,-1
 43 0 l 1,9,-1
 140 691 l 1,10,-1
 340 691 l 2,11,0
 459 691 459 691 524.5 643.5 c 128,-1,1
416 386 m 128,-1,13
 453 432 453 432 453 499 c 0,14,15
 453 549 453 549 421.5 571.5 c 128,-1,16
 390 594 390 594 329 594 c 2,17,-1
 257 594 l 1,18,-1
 222 340 l 1,19,-1
 289 340 l 2,20,12
 379 340 379 340 416 386 c 128,-1,13
EndSplineSet
Substitution2: "'c2sc' Capitals to Small Capitals lookup 27 subtable" p.sc
Substitution2: "'aalt' Access All Alternates lookup 0 subtable" p.sc
Position2: "'cpsp' Capital Spacing lookup 0 subtable" dx=5 dy=0 dh=10 dv=0
EndChar

StartChar: uni01A4
Encoding: 420 420 221
Width: 696
GlyphClass: 2
Flags: W
AnchorPoint: "Anchor-18" 0 0 basechar 0
AnchorPoint: "Anchor-17" 0 0 basechar 0
AnchorPoint: "Anchor-16" 465 691 basechar 0
AnchorPoint: "Anchor-15" 0 0 basechar 0
AnchorPoint: "Anchor-14" 368 0 basechar 0
LayerCount: 2
Fore
SplineSet
637.5 643.5 m 128,-1,1
 703 596 703 596 703 503 c 0,2,3
 703 434 703 434 672.5 375 c 128,-1,4
 642 316 642 316 574.5 278.5 c 128,-1,5
 507 241 507 241 402 241 c 2,6,-1
 321 241 l 1,7,-1
 287 0 l 1,8,-1
 156 0 l 1,9,-1
 239 593 l 1,10,-1
 213 593 l 2,11,12
 185 593 185 593 170 577 c 128,-1,13
 155 561 155 561 155 530 c 0,14,15
 155 507 155 507 164 479 c 1,16,-1
 72 442 l 1,17,18
 47 490 47 490 47 535 c 0,19,20
 47 607 47 607 95 649 c 128,-1,21
 143 691 143 691 226 691 c 2,22,-1
 453 691 l 2,23,0
 572 691 572 691 637.5 643.5 c 128,-1,1
529 386 m 128,-1,25
 566 432 566 432 566 499 c 0,26,27
 566 549 566 549 534.5 571.5 c 128,-1,28
 503 594 503 594 442 594 c 2,29,-1
 370 594 l 1,30,-1
 335 340 l 1,31,-1
 402 340 l 2,32,24
 492 340 492 340 529 386 c 128,-1,25
EndSplineSet
Substitution2: "'c2sc' Capitals to Small Capitals lookup 27 subtable" uni01A5.sc
Substitution2: "'aalt' Access All Alternates lookup 0 subtable" uni01A5.sc
Position2: "'cpsp' Capital Spacing lookup 0 subtable" dx=5 dy=0 dh=10 dv=0
EndChar

StartChar: Thorn
Encoding: 222 222 222
Width: 583
GlyphClass: 2
Flags: W
AnchorPoint: "Anchor-18" 0 0 basechar 0
AnchorPoint: "Anchor-17" 0 0 basechar 0
AnchorPoint: "Anchor-16" 352 691 basechar 0
AnchorPoint: "Anchor-15" 0 0 basechar 0
AnchorPoint: "Anchor-14" 255 0 basechar 0
LayerCount: 2
Fore
SplineSet
509 530 m 128,-1,1
 574 482 574 482 574 385 c 0,2,3
 574 319 574 319 545 259 c 128,-1,4
 516 199 516 199 448.5 159.5 c 128,-1,5
 381 120 381 120 272 120 c 2,6,-1
 191 120 l 1,7,-1
 174 0 l 1,8,-1
 43 0 l 1,9,-1
 140 691 l 1,10,-1
 271 691 l 1,11,-1
 255 578 l 1,12,-1
 324 578 l 2,13,0
 444 578 444 578 509 530 c 128,-1,1
399 267 m 128,-1,15
 437 315 437 315 437 383 c 0,16,17
 437 435 437 435 405.5 458 c 128,-1,18
 374 481 374 481 313 481 c 2,19,-1
 242 481 l 1,20,-1
 205 219 l 1,21,-1
 272 219 l 2,22,14
 361 219 361 219 399 267 c 128,-1,15
EndSplineSet
Substitution2: "'c2sc' Capitals to Small Capitals lookup 27 subtable" thorn.sc
Substitution2: "'aalt' Access All Alternates lookup 0 subtable" thorn.sc
Position2: "'cpsp' Capital Spacing lookup 0 subtable" dx=5 dy=0 dh=10 dv=0
EndChar

StartChar: Q
Encoding: 81 81 223
Width: 681
GlyphClass: 2
Flags: W
AnchorPoint: "Anchor-18" 0 0 basechar 0
AnchorPoint: "Anchor-17" 0 0 basechar 0
AnchorPoint: "Anchor-16" 401 691 basechar 0
AnchorPoint: "Anchor-15" 0 0 basechar 0
AnchorPoint: "Anchor-14" 303 0 basechar 0
LayerCount: 2
Fore
SplineSet
610.5 195 m 128,-1,1
 563 87 563 87 461 40 c 1,2,3
 520 38 520 38 563 21.5 c 128,-1,4
 606 5 606 5 642 -24 c 1,5,-1
 549 -128 l 1,6,7
 499 -69 499 -69 446.5 -42 c 128,-1,8
 394 -15 394 -15 306 -15 c 0,9,10
 185 -15 185 -15 117 58.5 c 128,-1,11
 49 132 49 132 49 266 c 0,12,13
 49 368 49 368 84 468.5 c 128,-1,14
 119 569 119 569 198 637.5 c 128,-1,15
 277 706 277 706 401 706 c 0,16,17
 522 706 522 706 590 632.5 c 128,-1,18
 658 559 658 559 658 424 c 0,19,0
 658 303 658 303 610.5 195 c 128,-1,1
313 86 m 0,21,22
 391 86 391 86 438 143 c 128,-1,23
 485 200 485 200 503.5 281.5 c 128,-1,24
 522 363 522 363 522 443 c 0,25,26
 522 605 522 605 393 605 c 0,27,28
 316 605 316 605 269 548 c 128,-1,29
 222 491 222 491 203 410.5 c 128,-1,30
 184 330 184 330 184 252 c 0,31,20
 184 86 184 86 313 86 c 0,21,22
EndSplineSet
Substitution2: "'c2sc' Capitals to Small Capitals lookup 27 subtable" q.sc
Substitution2: "'aalt' Access All Alternates lookup 0 subtable" q.sc
Position2: "'cpsp' Capital Spacing lookup 0 subtable" dx=5 dy=0 dh=10 dv=0
EndChar

StartChar: uni024A
Encoding: 586 586 224
Width: 666
GlyphClass: 2
Flags: W
AnchorPoint: "Anchor-18" 0 0 basechar 0
AnchorPoint: "Anchor-17" 0 0 basechar 0
AnchorPoint: "Anchor-16" 395 691 basechar 0
AnchorPoint: "Anchor-15" 0 0 basechar 0
AnchorPoint: "Anchor-14" 0 0 basechar 0
LayerCount: 2
Fore
SplineSet
694 -179 m 1,0,1
 636 -218 636 -218 563 -218 c 256,2,3
 490 -218 490 -218 448.5 -181.5 c 128,-1,4
 407 -145 407 -145 407 -76 c 0,5,6
 407 -53 407 -53 409 -41 c 2,7,-1
 415 0 l 1,8,-1
 421 45 l 1,9,10
 358 -15 358 -15 269 -15 c 0,11,12
 167 -15 167 -15 107 56 c 128,-1,13
 47 127 47 127 47 255 c 0,14,15
 47 368 47 368 86.5 472 c 128,-1,16
 126 576 126 576 199 641 c 128,-1,17
 272 706 272 706 367 706 c 0,18,19
 455 706 455 706 513 643 c 1,20,-1
 527 691 l 1,21,-1
 643 691 l 1,22,-1
 546 0 l 1,23,-1
 538 -54 l 2,24,25
 537 -60 537 -60 537 -71 c 0,26,27
 537 -118 537 -118 583 -118 c 0,28,29
 605 -118 605 -118 620.5 -113 c 128,-1,30
 636 -108 636 -108 657 -97 c 1,31,-1
 694 -179 l 1,0,1
435 140 m 1,33,-1
 493 556 l 1,34,35
 470 580 470 580 443 592.5 c 128,-1,36
 416 605 416 605 380 605 c 0,37,38
 316 605 316 605 271 551 c 128,-1,39
 226 497 226 497 204 415 c 128,-1,40
 182 333 182 333 182 249 c 0,41,42
 182 161 182 161 213.5 123 c 128,-1,43
 245 85 245 85 302 85 c 0,44,32
 374 85 374 85 435 140 c 1,33,-1
EndSplineSet
Substitution2: "'c2sc' Capitals to Small Capitals lookup 27 subtable" uni024B.sc
Substitution2: "'aalt' Access All Alternates lookup 0 subtable" uni024B.sc
Position2: "'cpsp' Capital Spacing lookup 0 subtable" dx=5 dy=0 dh=10 dv=0
EndChar

StartChar: R
Encoding: 82 82 225
Width: 603
GlyphClass: 2
Flags: W
AnchorPoint: "Anchor-18" 0 0 basechar 0
AnchorPoint: "Anchor-17" 0 0 basechar 0
AnchorPoint: "Anchor-16" 360 691 basechar 0
AnchorPoint: "Anchor-15" 0 0 basechar 0
AnchorPoint: "Anchor-14" 269 0 basechar 0
LayerCount: 2
Fore
SplineSet
549.5 386 m 128,-1,1
 511 329 511 329 422 298 c 1,2,-1
 557 0 l 1,3,-1
 413 0 l 1,4,-1
 299 277 l 1,5,-1
 213 277 l 1,6,-1
 174 0 l 1,7,-1
 43 0 l 1,8,-1
 140 691 l 1,9,-1
 342 691 l 2,10,11
 464 691 464 691 526 645.5 c 128,-1,12
 588 600 588 600 588 513 c 0,13,0
 588 443 588 443 549.5 386 c 128,-1,1
226 372 m 1,14,-1
 310 372 l 2,15,16
 385 372 385 372 418.5 412.5 c 128,-1,17
 452 453 452 453 452 508 c 0,18,19
 452 554 452 554 422.5 574.5 c 128,-1,20
 393 595 393 595 330 595 c 2,21,-1
 257 595 l 1,22,-1
 226 372 l 1,14,-1
EndSplineSet
Substitution2: "'c2sc' Capitals to Small Capitals lookup 27 subtable" r.sc
Substitution2: "'aalt' Access All Alternates lookup 0 subtable" r.sc
Position2: "'cpsp' Capital Spacing lookup 0 subtable" dx=5 dy=0 dh=10 dv=0
EndChar

StartChar: uni024C
Encoding: 588 588 232
Width: 615
GlyphClass: 2
Flags: W
AnchorPoint: "Anchor-18" 0 0 basechar 0
AnchorPoint: "Anchor-17" 0 0 basechar 0
AnchorPoint: "Anchor-16" 372 691 basechar 0
AnchorPoint: "Anchor-15" 0 0 basechar 0
AnchorPoint: "Anchor-14" 281 0 basechar 0
LayerCount: 2
Fore
SplineSet
561.5 386 m 128,-1,1
 523 329 523 329 434 298 c 1,2,-1
 569 0 l 1,3,-1
 425 0 l 1,4,-1
 311 277 l 1,5,-1
 225 277 l 1,6,-1
 186 0 l 1,7,-1
 55 0 l 1,8,-1
 94 277 l 1,9,-1
 17 277 l 1,10,-1
 30 372 l 1,11,-1
 107 372 l 1,12,-1
 152 691 l 1,13,-1
 354 691 l 2,14,15
 476 691 476 691 538 645.5 c 128,-1,16
 600 600 600 600 600 513 c 0,17,0
 600 443 600 443 561.5 386 c 128,-1,1
430.5 412.5 m 128,-1,19
 464 453 464 453 464 508 c 0,20,21
 464 554 464 554 434.5 574.5 c 128,-1,22
 405 595 405 595 342 595 c 2,23,-1
 269 595 l 1,24,-1
 238 372 l 1,25,-1
 322 372 l 2,26,18
 397 372 397 372 430.5 412.5 c 128,-1,19
EndSplineSet
Substitution2: "'c2sc' Capitals to Small Capitals lookup 27 subtable" uni024D.sc
Substitution2: "'aalt' Access All Alternates lookup 0 subtable" uni024D.sc
Position2: "'cpsp' Capital Spacing lookup 0 subtable" dx=5 dy=0 dh=10 dv=0
EndChar

StartChar: uni2C64
Encoding: 11364 11364 233
Width: 603
GlyphClass: 2
Flags: W
AnchorPoint: "Anchor-18" 0 0 basechar 0
AnchorPoint: "Anchor-17" 0 0 basechar 0
AnchorPoint: "Anchor-16" 360 691 basechar 0
AnchorPoint: "Anchor-15" 0 0 basechar 0
AnchorPoint: "Anchor-14" 269 0 basechar 0
LayerCount: 2
Fore
SplineSet
549.5 386 m 128,-1,1
 511 329 511 329 422 298 c 1,2,-1
 557 0 l 1,3,-1
 413 0 l 1,4,-1
 299 277 l 1,5,-1
 213 277 l 1,6,-1
 174 0 l 1,7,-1
 166 -54 l 2,8,9
 165 -60 165 -60 165 -71 c 0,10,11
 165 -118 165 -118 211 -118 c 0,12,13
 233 -118 233 -118 248.5 -113 c 128,-1,14
 264 -108 264 -108 285 -97 c 1,15,-1
 322 -179 l 1,16,17
 264 -218 264 -218 191 -218 c 256,18,19
 118 -218 118 -218 76.5 -181.5 c 128,-1,20
 35 -145 35 -145 35 -76 c 0,21,22
 35 -53 35 -53 37 -41 c 2,23,-1
 43 0 l 1,24,-1
 140 691 l 1,25,-1
 342 691 l 2,26,27
 464 691 464 691 526 645.5 c 128,-1,28
 588 600 588 600 588 513 c 0,29,0
 588 443 588 443 549.5 386 c 128,-1,1
226 372 m 1,30,-1
 310 372 l 2,31,32
 385 372 385 372 418.5 412.5 c 128,-1,33
 452 453 452 453 452 508 c 0,34,35
 452 554 452 554 422.5 574.5 c 128,-1,36
 393 595 393 595 330 595 c 2,37,-1
 257 595 l 1,38,-1
 226 372 l 1,30,-1
EndSplineSet
Substitution2: "'ss01' Style Set 1 lookup 34 subtable" uni2C64.ss01
Substitution2: "'salt' Stylistic Alternatives lookup 33 subtable" uni2C64.ss01
Substitution2: "'c2sc' Capitals to Small Capitals lookup 27 subtable" uni2C64.sc
AlternateSubs2: "'aalt' Access All Alternates lookup 1 subtable" uni2C64.sc uni2C64.ss01
Position2: "'cpsp' Capital Spacing lookup 0 subtable" dx=5 dy=0 dh=10 dv=0
EndChar

StartChar: S
Encoding: 83 83 234
Width: 552
GlyphClass: 2
Flags: W
AnchorPoint: "Anchor-18" 0 0 basechar 0
AnchorPoint: "Anchor-17" 0 0 basechar 0
AnchorPoint: "Anchor-16" 343 691 basechar 0
AnchorPoint: "Anchor-15" 0 0 basechar 0
AnchorPoint: "Anchor-14" 235 0 basechar 0
LayerCount: 2
Fore
SplineSet
550 619 m 1,1,-1
 476 547 l 1,2,3
 444 577 444 577 410 591 c 128,-1,4
 376 605 376 605 334 605 c 0,5,6
 280 605 280 605 246.5 580 c 128,-1,7
 213 555 213 555 213 512 c 0,8,9
 213 488 213 488 224 472 c 128,-1,10
 235 456 235 456 260.5 442 c 128,-1,11
 286 428 286 428 335 412 c 0,12,13
 422 385 422 385 468 341 c 128,-1,14
 514 297 514 297 514 219 c 0,15,16
 514 160 514 160 484 106.5 c 128,-1,17
 454 53 454 53 390 19 c 128,-1,18
 326 -15 326 -15 229 -15 c 0,19,20
 79 -15 79 -15 -9 82 c 1,21,-1
 69 158 l 1,22,23
 102 124 102 124 141.5 106.5 c 128,-1,24
 181 89 181 89 232 89 c 0,25,26
 299 89 299 89 337.5 119.5 c 128,-1,27
 376 150 376 150 376 203 c 0,28,29
 376 241 376 241 350.5 264.5 c 128,-1,30
 325 288 325 288 259 311 c 0,31,32
 164 343 164 343 120.5 386.5 c 128,-1,33
 77 430 77 430 77 499 c 0,34,35
 77 551 77 551 106 598.5 c 128,-1,36
 135 646 135 646 192.5 676 c 128,-1,37
 250 706 250 706 331 706 c 0,38,0
 465 706 465 706 550 619 c 1,1,-1
EndSplineSet
Substitution2: "'c2sc' Capitals to Small Capitals lookup 27 subtable" s.sc
Substitution2: "'aalt' Access All Alternates lookup 0 subtable" s.sc
Position2: "'cpsp' Capital Spacing lookup 0 subtable" dx=5 dy=0 dh=10 dv=0
EndChar

StartChar: uniA78B
Encoding: 42891 42891 236
Width: 229
GlyphClass: 2
Flags: W
LayerCount: 2
Fore
SplineSet
78 340 m 1,0,-1
 111 691 l 1,1,-1
 239 691 l 1,2,-1
 170 340 l 1,3,-1
 78 340 l 1,0,-1
EndSplineSet
Position2: "'cpsp' Capital Spacing lookup 0 subtable" dx=5 dy=0 dh=10 dv=0
EndChar

StartChar: Scedilla
Encoding: 350 350 238
Width: 552
GlyphClass: 2
Flags: W
AnchorPoint: "Anchor-18" 0 0 basechar 0
AnchorPoint: "Anchor-17" 0 0 basechar 0
AnchorPoint: "Anchor-16" 343 691 basechar 0
AnchorPoint: "Anchor-15" 0 0 basechar 0
AnchorPoint: "Anchor-14" 229 -253 basechar 0
LayerCount: 2
Fore
SplineSet
468 341 m 128,-1,1
 514 297 514 297 514 219 c 0,2,3
 514 164 514 164 488.5 114 c 128,-1,4
 463 64 463 64 408.5 29.5 c 128,-1,5
 354 -5 354 -5 272 -13 c 1,6,-1
 265 -52 l 1,7,8
 308 -56 308 -56 330 -79 c 128,-1,9
 352 -102 352 -102 352 -138 c 0,10,11
 352 -167 352 -167 336 -193.5 c 128,-1,12
 320 -220 320 -220 287 -236.5 c 128,-1,13
 254 -253 254 -253 206 -253 c 0,14,15
 146 -253 146 -253 105 -223 c 1,16,-1
 143 -162 l 1,17,18
 170 -178 170 -178 204 -178 c 0,19,20
 227 -178 227 -178 241.5 -168.5 c 128,-1,21
 256 -159 256 -159 257 -141 c 0,22,23
 257 -121 257 -121 238.5 -113.5 c 128,-1,24
 220 -106 220 -106 173 -106 c 1,25,-1
 196 -14 l 1,26,27
 69 -3 69 -3 -9 82 c 1,28,-1
 69 158 l 1,29,30
 102 124 102 124 141.5 106.5 c 128,-1,31
 181 89 181 89 232 89 c 0,32,33
 299 89 299 89 337.5 119.5 c 128,-1,34
 376 150 376 150 376 203 c 0,35,36
 376 241 376 241 350.5 264.5 c 128,-1,37
 325 288 325 288 259 311 c 0,38,39
 164 343 164 343 120.5 386.5 c 128,-1,40
 77 430 77 430 77 499 c 0,41,42
 77 551 77 551 106 598.5 c 128,-1,43
 135 646 135 646 192.5 676 c 128,-1,44
 250 706 250 706 331 706 c 0,45,46
 465 706 465 706 550 619 c 1,47,-1
 476 547 l 1,48,49
 444 577 444 577 410 591 c 128,-1,50
 376 605 376 605 334 605 c 0,51,52
 280 605 280 605 246.5 580 c 128,-1,53
 213 555 213 555 213 512 c 0,54,55
 213 488 213 488 224 472 c 128,-1,56
 235 456 235 456 260.5 442 c 128,-1,57
 286 428 286 428 335 412 c 0,58,0
 422 385 422 385 468 341 c 128,-1,1
EndSplineSet
Substitution2: "'c2sc' Capitals to Small Capitals lookup 27 subtable" scedilla.sc
Substitution2: "'locl' Localized Forms in Latin lookup 5 subtable" Scommaaccent
Substitution2: "'locl' Localized Forms in Latin lookup 4 subtable" Scommaaccent
AlternateSubs2: "'aalt' Access All Alternates lookup 1 subtable" Scommaaccent scedilla.sc
Position2: "'cpsp' Capital Spacing lookup 0 subtable" dx=5 dy=0 dh=10 dv=0
EndChar

StartChar: uni1E9E
Encoding: 7838 7838 243
Width: 654
GlyphClass: 2
Flags: W
LayerCount: 2
Fore
SplineSet
627 630 m 1,1,-1
 620 562 l 1,2,-1
 440 391 l 1,3,4
 522 379 522 379 567.5 337.5 c 128,-1,5
 613 296 613 296 613 223 c 0,6,7
 613 152 613 152 579.5 98 c 128,-1,8
 546 44 546 44 486.5 14.5 c 128,-1,9
 427 -15 427 -15 353 -15 c 0,10,11
 277 -15 277 -15 232 11 c 1,12,-1
 280 99 l 1,13,14
 305 88 305 88 347 88 c 0,15,16
 407 88 407 88 441.5 124.5 c 128,-1,17
 476 161 476 161 476 219 c 0,18,19
 476 269 476 269 435 293 c 128,-1,20
 394 317 394 317 310 319 c 1,21,-1
 319 400 l 1,22,-1
 501 579 l 1,23,24
 431 605 431 605 366 605 c 0,25,26
 258 605 258 605 242 487 c 2,27,-1
 174 0 l 1,28,-1
 43 0 l 1,29,-1
 111 489 l 2,30,31
 126 593 126 593 191.5 649.5 c 128,-1,32
 257 706 257 706 366 706 c 0,33,0
 496 706 496 706 627 630 c 1,1,-1
EndSplineSet
Substitution2: "'c2sc' Capitals to Small Capitals lookup 27 subtable" germandbls.sc
Substitution2: "'aalt' Access All Alternates lookup 0 subtable" germandbls.sc
Position2: "'cpsp' Capital Spacing lookup 0 subtable" dx=5 dy=0 dh=10 dv=0
EndChar

StartChar: T
Encoding: 84 84 245
Width: 522
GlyphClass: 2
Flags: W
AnchorPoint: "Anchor-18" 272 346 basechar 0
AnchorPoint: "Anchor-17" 0 0 basechar 0
AnchorPoint: "Anchor-16" 320 691 basechar 0
AnchorPoint: "Anchor-15" 0 0 basechar 0
AnchorPoint: "Anchor-14" 224 0 basechar 0
LayerCount: 2
Fore
SplineSet
578 691 m 1,0,-1
 549 586 l 1,1,-1
 371 586 l 1,2,-1
 289 0 l 1,3,-1
 158 0 l 1,4,-1
 240 586 l 1,5,-1
 56 586 l 1,6,-1
 71 691 l 1,7,-1
 578 691 l 1,0,-1
EndSplineSet
Substitution2: "'c2sc' Capitals to Small Capitals lookup 27 subtable" t.sc
Substitution2: "'aalt' Access All Alternates lookup 0 subtable" t.sc
Position2: "'cpsp' Capital Spacing lookup 0 subtable" dx=5 dy=0 dh=10 dv=0
EndChar

StartChar: Tbar
Encoding: 358 358 246
Width: 522
GlyphClass: 2
Flags: W
AnchorPoint: "Anchor-18" 272 346 basechar 0
AnchorPoint: "Anchor-17" 0 0 basechar 0
AnchorPoint: "Anchor-16" 320 691 basechar 0
AnchorPoint: "Anchor-15" 0 0 basechar 0
AnchorPoint: "Anchor-14" 224 0 basechar 0
LayerCount: 2
Fore
SplineSet
549 586 m 1,0,-1
 371 586 l 1,1,-1
 344 390 l 1,2,-1
 459 390 l 1,3,-1
 448 307 l 1,4,-1
 332 307 l 1,5,-1
 289 0 l 1,6,-1
 158 0 l 1,7,-1
 201 307 l 1,8,-1
 85 307 l 1,9,-1
 96 390 l 1,10,-1
 213 390 l 1,11,-1
 240 586 l 1,12,-1
 56 586 l 1,13,-1
 71 691 l 1,14,-1
 578 691 l 1,15,-1
 549 586 l 1,0,-1
EndSplineSet
Substitution2: "'c2sc' Capitals to Small Capitals lookup 27 subtable" tbar.sc
Substitution2: "'aalt' Access All Alternates lookup 0 subtable" tbar.sc
Position2: "'cpsp' Capital Spacing lookup 0 subtable" dx=5 dy=0 dh=10 dv=0
EndChar

StartChar: uni0162
Encoding: 354 354 248
Width: 522
GlyphClass: 2
Flags: W
AnchorPoint: "Anchor-18" 272 346 basechar 0
AnchorPoint: "Anchor-17" 0 0 basechar 0
AnchorPoint: "Anchor-16" 320 691 basechar 0
AnchorPoint: "Anchor-15" 0 0 basechar 0
AnchorPoint: "Anchor-14" 224 0 basechar 0
LayerCount: 2
Fore
SplineSet
578 691 m 1,0,-1
 549 586 l 1,1,-1
 371 586 l 1,2,-1
 289 0 l 1,3,-1
 288 0 l 1,4,-1
 280 -52 l 1,5,6
 323 -56 323 -56 344.5 -78 c 128,-1,7
 366 -100 366 -100 366 -135 c 0,8,9
 366 -163 366 -163 350.5 -190 c 128,-1,10
 335 -217 335 -217 302 -235 c 128,-1,11
 269 -253 269 -253 218 -253 c 0,12,13
 188 -253 188 -253 162 -244.5 c 128,-1,14
 136 -236 136 -236 119 -223 c 1,15,-1
 157 -162 l 1,16,17
 184 -178 184 -178 215 -178 c 0,18,19
 239 -178 239 -178 255 -168 c 128,-1,20
 271 -158 271 -158 271 -139 c 0,21,22
 271 -121 271 -121 252.5 -113.5 c 128,-1,23
 234 -106 234 -106 187 -106 c 1,24,-1
 213 0 l 1,25,-1
 158 0 l 1,26,-1
 240 586 l 1,27,-1
 56 586 l 1,28,-1
 71 691 l 1,29,-1
 578 691 l 1,0,-1
EndSplineSet
Substitution2: "'c2sc' Capitals to Small Capitals lookup 27 subtable" uni0163.sc
Substitution2: "'locl' Localized Forms in Latin lookup 5 subtable" uni021A
Substitution2: "'locl' Localized Forms in Latin lookup 4 subtable" uni021A
AlternateSubs2: "'aalt' Access All Alternates lookup 1 subtable" uni021A uni0163.sc
Position2: "'cpsp' Capital Spacing lookup 0 subtable" dx=5 dy=0 dh=10 dv=0
EndChar

StartChar: uni023E
Encoding: 574 574 251
Width: 522
GlyphClass: 2
Flags: W
AnchorPoint: "Anchor-18" 0 0 basechar 0
AnchorPoint: "Anchor-17" 0 0 basechar 0
AnchorPoint: "Anchor-16" 321 691 basechar 0
AnchorPoint: "Anchor-15" 0 0 basechar 0
AnchorPoint: "Anchor-14" 224 0 basechar 0
LayerCount: 2
Fore
SplineSet
550 589 m 1,0,-1
 456 589 l 1,1,-1
 333 356 l 1,2,-1
 283 0 l 1,3,-1
 164 0 l 1,4,-1
 171 49 l 1,5,-1
 107 -72 l 1,6,-1
 65 -53 l 1,7,-1
 189 182 l 1,8,-1
 246 589 l 1,9,-1
 56 589 l 1,10,-1
 71 691 l 1,11,-1
 459 691 l 1,12,-1
 492 753 l 1,13,-1
 533 734 l 1,14,-1
 510 691 l 1,15,-1
 578 691 l 1,16,-1
 550 589 l 1,0,-1
352 488 m 1,17,-1
 405 589 l 1,18,-1
 366 589 l 1,19,-1
 352 488 l 1,17,-1
EndSplineSet
Substitution2: "'c2sc' Capitals to Small Capitals lookup 27 subtable" uni2C66.sc
Substitution2: "'aalt' Access All Alternates lookup 0 subtable" uni2C66.sc
Position2: "'cpsp' Capital Spacing lookup 0 subtable" dx=5 dy=0 dh=10 dv=0
EndChar

StartChar: uni01AC
Encoding: 428 428 254
Width: 569
GlyphClass: 2
Flags: W
AnchorPoint: "Anchor-18" 0 0 basechar 0
AnchorPoint: "Anchor-17" 0 0 basechar 0
AnchorPoint: "Anchor-16" 344 691 basechar 0
AnchorPoint: "Anchor-15" 0 0 basechar 0
AnchorPoint: "Anchor-14" 271 0 basechar 0
LayerCount: 2
Fore
SplineSet
596 586 m 1,0,-1
 418 586 l 1,1,-1
 336 0 l 1,2,-1
 205 0 l 1,3,-1
 287 586 l 1,4,-1
 211 586 l 2,5,6
 183 586 183 586 169 570.5 c 128,-1,7
 155 555 155 555 155 528 c 0,8,9
 155 507 155 507 164 479 c 1,10,-1
 72 442 l 1,11,12
 47 490 47 490 47 535 c 0,13,14
 47 606 47 606 93.5 648.5 c 128,-1,15
 140 691 140 691 218 691 c 2,16,-1
 625 691 l 1,17,-1
 596 586 l 1,0,-1
EndSplineSet
Substitution2: "'c2sc' Capitals to Small Capitals lookup 27 subtable" uni01AD.sc
Substitution2: "'aalt' Access All Alternates lookup 0 subtable" uni01AD.sc
Position2: "'cpsp' Capital Spacing lookup 0 subtable" dx=5 dy=0 dh=10 dv=0
EndChar

StartChar: uni0184
Encoding: 388 388 257
Width: 584
GlyphClass: 2
Flags: W
AnchorPoint: "Anchor-18" 0 0 basechar 0
AnchorPoint: "Anchor-17" 0 0 basechar 0
AnchorPoint: "Anchor-16" 352 691 basechar 0
AnchorPoint: "Anchor-15" 0 0 basechar 0
AnchorPoint: "Anchor-14" 255 0 basechar 0
LayerCount: 2
Fore
SplineSet
500 397.5 m 128,-1,1
 563 348 563 348 563 253 c 0,2,3
 563 187 563 187 533 129.5 c 128,-1,4
 503 72 503 72 436 36 c 128,-1,5
 369 0 369 0 263 0 c 2,6,-1
 50 0 l 1,7,-1
 121 506 l 1,8,-1
 56 553 l 1,9,10
 117 609 117 609 167 691 c 1,11,-1
 278 691 l 1,12,-1
 244 447 l 1,13,-1
 322 447 l 2,14,0
 437 447 437 447 500 397.5 c 128,-1,1
390 142 m 128,-1,16
 425 185 425 185 425 247 c 0,17,18
 425 301 425 301 395.5 326 c 128,-1,19
 366 351 366 351 306 351 c 2,20,-1
 230 351 l 1,21,-1
 195 99 l 1,22,-1
 271 99 l 2,23,15
 355 99 355 99 390 142 c 128,-1,16
EndSplineSet
Substitution2: "'c2sc' Capitals to Small Capitals lookup 27 subtable" uni0185.sc
Substitution2: "'aalt' Access All Alternates lookup 0 subtable" uni0185.sc
Position2: "'cpsp' Capital Spacing lookup 0 subtable" dx=5 dy=0 dh=10 dv=0
EndChar

StartChar: uni01A7
Encoding: 423 423 258
Width: 543
GlyphClass: 2
Flags: W
AnchorPoint: "Anchor-18" 0 0 basechar 0
AnchorPoint: "Anchor-17" 0 0 basechar 0
AnchorPoint: "Anchor-16" 331 691 basechar 0
AnchorPoint: "Anchor-15" 0 0 basechar 0
AnchorPoint: "Anchor-14" 234 0 basechar 0
LayerCount: 2
Fore
SplineSet
489 661.5 m 128,-1,1
 545 617 545 617 545 541 c 0,2,3
 545 451 545 451 486.5 399.5 c 128,-1,4
 428 348 428 348 310 312 c 0,5,6
 249 294 249 294 215 274.5 c 128,-1,7
 181 255 181 255 167 230.5 c 128,-1,8
 153 206 153 206 153 170 c 0,9,10
 153 131 153 131 181 109.5 c 128,-1,11
 209 88 209 88 257 88 c 0,12,13
 348 88 348 88 441 157 c 1,14,-1
 500 78 l 1,15,16
 394 -15 394 -15 242 -15 c 0,17,18
 173 -15 173 -15 122.5 8 c 128,-1,19
 72 31 72 31 45 72.5 c 128,-1,20
 18 114 18 114 18 167 c 0,21,22
 18 261 18 261 75 318 c 128,-1,23
 132 375 132 375 248 410 c 0,24,25
 309 428 309 428 343 444 c 128,-1,26
 377 460 377 460 393.5 482 c 128,-1,27
 410 504 410 504 410 538 c 0,28,29
 410 605 410 605 324 605 c 0,30,31
 278 605 278 605 238 590.5 c 128,-1,32
 198 576 198 576 156 545 c 1,33,-1
 100 623 l 1,34,35
 154 665 154 665 212 685.5 c 128,-1,36
 270 706 270 706 340 706 c 0,37,0
 433 706 433 706 489 661.5 c 128,-1,1
EndSplineSet
Substitution2: "'c2sc' Capitals to Small Capitals lookup 27 subtable" uni01A8.sc
Substitution2: "'aalt' Access All Alternates lookup 0 subtable" uni01A8.sc
Position2: "'cpsp' Capital Spacing lookup 0 subtable" dx=5 dy=0 dh=10 dv=0
EndChar

StartChar: uni01AE
Encoding: 430 430 259
Width: 522
GlyphClass: 2
Flags: W
AnchorPoint: "Anchor-18" 272 346 basechar 0
AnchorPoint: "Anchor-17" 0 0 basechar 0
AnchorPoint: "Anchor-16" 320 691 basechar 0
AnchorPoint: "Anchor-15" 0 0 basechar 0
AnchorPoint: "Anchor-14" 224 0 basechar 0
LayerCount: 2
Fore
SplineSet
281 -54 m 2,0,1
 280 -60 280 -60 280 -71 c 0,2,3
 280 -118 280 -118 326 -118 c 0,4,5
 348 -118 348 -118 363.5 -113 c 128,-1,6
 379 -108 379 -108 400 -97 c 1,7,-1
 437 -179 l 1,8,9
 379 -218 379 -218 306 -218 c 256,10,11
 233 -218 233 -218 191.5 -181.5 c 128,-1,12
 150 -145 150 -145 150 -76 c 0,13,14
 150 -53 150 -53 152 -41 c 2,15,-1
 158 0 l 1,16,-1
 240 586 l 1,17,-1
 56 586 l 1,18,-1
 71 691 l 1,19,-1
 578 691 l 1,20,-1
 549 586 l 1,21,-1
 371 586 l 1,22,-1
 289 0 l 1,23,-1
 281 -54 l 2,0,1
EndSplineSet
Substitution2: "'c2sc' Capitals to Small Capitals lookup 27 subtable" uni0288.sc
Substitution2: "'aalt' Access All Alternates lookup 0 subtable" uni0288.sc
Position2: "'cpsp' Capital Spacing lookup 0 subtable" dx=5 dy=0 dh=10 dv=0
EndChar

StartChar: U
Encoding: 85 85 260
Width: 648
GlyphClass: 2
Flags: W
AnchorPoint: "Anchor-18" 0 0 basechar 0
AnchorPoint: "Anchor-17" 648 691 basechar 0
AnchorPoint: "Anchor-16" 384 691 basechar 0
AnchorPoint: "Anchor-15" 396 0 basechar 0
AnchorPoint: "Anchor-14" 287 0 basechar 0
LayerCount: 2
Fore
SplineSet
573 224 m 2,0,1
 558 116 558 116 482.5 50.5 c 128,-1,2
 407 -15 407 -15 287 -15 c 0,3,4
 177 -15 177 -15 119.5 38.5 c 128,-1,5
 62 92 62 92 62 184 c 0,6,7
 62 206 62 206 65 228 c 2,8,-1
 130 691 l 1,9,-1
 261 691 l 1,10,-1
 196 230 l 2,11,12
 193 208 193 208 193 189 c 0,13,14
 193 138 193 138 218 113 c 128,-1,15
 243 88 243 88 295 88 c 0,16,17
 360 88 360 88 396 125 c 128,-1,18
 432 162 432 162 443 235 c 2,19,-1
 507 691 l 1,20,-1
 638 691 l 1,21,-1
 573 224 l 2,0,1
EndSplineSet
Substitution2: "'c2sc' Capitals to Small Capitals lookup 27 subtable" u.sc
Substitution2: "'aalt' Access All Alternates lookup 0 subtable" u.sc
Position2: "'cpsp' Capital Spacing lookup 0 subtable" dx=5 dy=0 dh=10 dv=0
EndChar

StartChar: uni0244
Encoding: 580 580 262
Width: 682
GlyphClass: 2
Flags: W
AnchorPoint: "Anchor-18" 0 0 basechar 0
AnchorPoint: "Anchor-17" 664 691 basechar 0
AnchorPoint: "Anchor-16" 400 691 basechar 0
AnchorPoint: "Anchor-15" 412 0 basechar 0
AnchorPoint: "Anchor-14" 303 0 basechar 0
LayerCount: 2
Fore
SplineSet
690 504 m 1,0,-1
 628 504 l 1,1,-1
 589 224 l 2,2,3
 574 116 574 116 498.5 50.5 c 128,-1,4
 423 -15 423 -15 303 -15 c 0,5,6
 193 -15 193 -15 135.5 38.5 c 128,-1,7
 78 92 78 92 78 184 c 0,8,9
 78 206 78 206 81 228 c 2,10,-1
 120 504 l 1,11,-1
 58 504 l 1,12,-1
 69 585 l 1,13,-1
 131 585 l 1,14,-1
 146 691 l 1,15,-1
 277 691 l 1,16,-1
 262 585 l 1,17,-1
 508 585 l 1,18,-1
 523 691 l 1,19,-1
 654 691 l 1,20,-1
 639 585 l 1,21,-1
 701 585 l 1,22,-1
 690 504 l 1,0,-1
497 504 m 1,23,-1
 251 504 l 1,24,-1
 212 230 l 2,25,26
 209 208 209 208 209 189 c 0,27,28
 209 138 209 138 234 113 c 128,-1,29
 259 88 259 88 311 88 c 0,30,31
 376 88 376 88 412 125 c 128,-1,32
 448 162 448 162 459 235 c 2,33,-1
 497 504 l 1,23,-1
EndSplineSet
Substitution2: "'c2sc' Capitals to Small Capitals lookup 27 subtable" uni0289.sc
Substitution2: "'aalt' Access All Alternates lookup 0 subtable" uni0289.sc
Position2: "'cpsp' Capital Spacing lookup 0 subtable" dx=5 dy=0 dh=10 dv=0
EndChar

StartChar: Uhorn
Encoding: 431 431 275
Width: 690
GlyphClass: 2
Flags: W
AnchorPoint: "Anchor-18" 0 0 basechar 0
AnchorPoint: "Anchor-17" 700 691 basechar 0
AnchorPoint: "Anchor-16" 384 691 basechar 0
AnchorPoint: "Anchor-15" 396 0 basechar 0
AnchorPoint: "Anchor-14" 287 0 basechar 0
LayerCount: 2
Fore
SplineSet
733 609 m 128,-1,1
 694 572 694 572 621 569 c 1,2,-1
 573 224 l 2,3,4
 558 116 558 116 482.5 50.5 c 128,-1,5
 407 -15 407 -15 287 -15 c 0,6,7
 177 -15 177 -15 119.5 38.5 c 128,-1,8
 62 92 62 92 62 184 c 0,9,10
 62 206 62 206 65 228 c 2,11,-1
 130 691 l 1,12,-1
 261 691 l 1,13,-1
 196 230 l 2,14,15
 193 208 193 208 193 189 c 0,16,17
 193 138 193 138 218 113 c 128,-1,18
 243 88 243 88 295 88 c 0,19,20
 360 88 360 88 396 125 c 128,-1,21
 432 162 432 162 443 235 c 2,22,-1
 507 691 l 1,23,-1
 638 691 l 1,24,-1
 631 639 l 1,25,26
 680 650 680 650 680 714 c 0,27,28
 680 737 680 737 675 760 c 1,29,-1
 763 771 l 1,30,31
 772 746 772 746 772 714 c 0,32,0
 772 646 772 646 733 609 c 128,-1,1
EndSplineSet
Substitution2: "'c2sc' Capitals to Small Capitals lookup 27 subtable" uhorn.sc
Substitution2: "'aalt' Access All Alternates lookup 0 subtable" uhorn.sc
Position2: "'cpsp' Capital Spacing lookup 0 subtable" dx=5 dy=0 dh=10 dv=0
EndChar

StartChar: uni1EE8
Encoding: 7912 7912 276
Width: 690
GlyphClass: 2
Flags: W
AnchorPoint: "Anchor-18" 0 0 basechar 0
AnchorPoint: "Anchor-17" 700 691 basechar 0
AnchorPoint: "Anchor-16" 407 936 basechar 0
AnchorPoint: "Anchor-15" 396 0 basechar 0
AnchorPoint: "Anchor-14" 287 0 basechar 0
LayerCount: 2
Fore
SplineSet
538 831 m 1,0,-1
 304 751 l 1,1,-1
 277 816 l 1,2,-1
 498 931 l 1,3,-1
 538 831 l 1,0,-1
733 609 m 128,-1,5
 694 572 694 572 621 569 c 1,6,-1
 573 224 l 2,7,8
 558 116 558 116 482.5 50.5 c 128,-1,9
 407 -15 407 -15 287 -15 c 0,10,11
 177 -15 177 -15 119.5 38.5 c 128,-1,12
 62 92 62 92 62 184 c 0,13,14
 62 206 62 206 65 228 c 2,15,-1
 130 691 l 1,16,-1
 261 691 l 1,17,-1
 196 230 l 2,18,19
 193 208 193 208 193 189 c 0,20,21
 193 138 193 138 218 113 c 128,-1,22
 243 88 243 88 295 88 c 0,23,24
 360 88 360 88 396 125 c 128,-1,25
 432 162 432 162 443 235 c 2,26,-1
 507 691 l 1,27,-1
 638 691 l 1,28,-1
 631 639 l 1,29,30
 680 650 680 650 680 714 c 0,31,32
 680 737 680 737 675 760 c 1,33,-1
 763 771 l 1,34,35
 772 746 772 746 772 714 c 0,36,4
 772 646 772 646 733 609 c 128,-1,5
EndSplineSet
Substitution2: "'c2sc' Capitals to Small Capitals lookup 27 subtable" uni1EE9.sc
Substitution2: "'aalt' Access All Alternates lookup 0 subtable" uni1EE9.sc
Position2: "'cpsp' Capital Spacing lookup 0 subtable" dx=5 dy=0 dh=10 dv=0
EndChar

StartChar: uni1EF0
Encoding: 7920 7920 277
Width: 690
GlyphClass: 2
Flags: W
AnchorPoint: "Anchor-18" 0 0 basechar 0
AnchorPoint: "Anchor-17" 700 691 basechar 0
AnchorPoint: "Anchor-16" 384 691 basechar 0
AnchorPoint: "Anchor-15" 396 0 basechar 0
AnchorPoint: "Anchor-14" 263 -221 basechar 0
LayerCount: 2
Fore
SplineSet
733 609 m 128,-1,1
 694 572 694 572 621 569 c 1,2,-1
 573 224 l 2,3,4
 558 116 558 116 482.5 50.5 c 128,-1,5
 407 -15 407 -15 287 -15 c 0,6,7
 177 -15 177 -15 119.5 38.5 c 128,-1,8
 62 92 62 92 62 184 c 0,9,10
 62 206 62 206 65 228 c 2,11,-1
 130 691 l 1,12,-1
 261 691 l 1,13,-1
 196 230 l 2,14,15
 193 208 193 208 193 189 c 0,16,17
 193 138 193 138 218 113 c 128,-1,18
 243 88 243 88 295 88 c 0,19,20
 360 88 360 88 396 125 c 128,-1,21
 432 162 432 162 443 235 c 2,22,-1
 507 691 l 1,23,-1
 638 691 l 1,24,-1
 631 639 l 1,25,26
 680 650 680 650 680 714 c 0,27,28
 680 737 680 737 675 760 c 1,29,-1
 763 771 l 1,30,31
 772 746 772 746 772 714 c 0,32,0
 772 646 772 646 733 609 c 128,-1,1
327 -85.5 m 128,-1,34
 347 -105 347 -105 347 -135 c 0,35,36
 347 -172 347 -172 322 -196.5 c 128,-1,37
 297 -221 297 -221 260 -221 c 0,38,39
 228 -221 228 -221 208 -201.5 c 128,-1,40
 188 -182 188 -182 188 -151 c 0,41,42
 188 -115 188 -115 213 -90.5 c 128,-1,43
 238 -66 238 -66 275 -66 c 0,44,33
 307 -66 307 -66 327 -85.5 c 128,-1,34
EndSplineSet
Substitution2: "'c2sc' Capitals to Small Capitals lookup 27 subtable" uni1EF1.sc
Substitution2: "'aalt' Access All Alternates lookup 0 subtable" uni1EF1.sc
Position2: "'cpsp' Capital Spacing lookup 0 subtable" dx=5 dy=0 dh=10 dv=0
EndChar

StartChar: uni1EEA
Encoding: 7914 7914 278
Width: 690
GlyphClass: 2
Flags: W
AnchorPoint: "Anchor-18" 0 0 basechar 0
AnchorPoint: "Anchor-17" 700 691 basechar 0
AnchorPoint: "Anchor-16" 407 936 basechar 0
AnchorPoint: "Anchor-15" 396 0 basechar 0
AnchorPoint: "Anchor-14" 287 0 basechar 0
LayerCount: 2
Fore
SplineSet
532 815 m 1,0,-1
 496 751 l 1,1,-1
 284 830 l 1,2,-1
 339 930 l 1,3,-1
 532 815 l 1,0,-1
733 609 m 128,-1,5
 694 572 694 572 621 569 c 1,6,-1
 573 224 l 2,7,8
 558 116 558 116 482.5 50.5 c 128,-1,9
 407 -15 407 -15 287 -15 c 0,10,11
 177 -15 177 -15 119.5 38.5 c 128,-1,12
 62 92 62 92 62 184 c 0,13,14
 62 206 62 206 65 228 c 2,15,-1
 130 691 l 1,16,-1
 261 691 l 1,17,-1
 196 230 l 2,18,19
 193 208 193 208 193 189 c 0,20,21
 193 138 193 138 218 113 c 128,-1,22
 243 88 243 88 295 88 c 0,23,24
 360 88 360 88 396 125 c 128,-1,25
 432 162 432 162 443 235 c 2,26,-1
 507 691 l 1,27,-1
 638 691 l 1,28,-1
 631 639 l 1,29,30
 680 650 680 650 680 714 c 0,31,32
 680 737 680 737 675 760 c 1,33,-1
 763 771 l 1,34,35
 772 746 772 746 772 714 c 0,36,4
 772 646 772 646 733 609 c 128,-1,5
EndSplineSet
Substitution2: "'c2sc' Capitals to Small Capitals lookup 27 subtable" uni1EEB.sc
Substitution2: "'aalt' Access All Alternates lookup 0 subtable" uni1EEB.sc
Position2: "'cpsp' Capital Spacing lookup 0 subtable" dx=5 dy=0 dh=10 dv=0
EndChar

StartChar: uni1EEC
Encoding: 7916 7916 279
Width: 690
GlyphClass: 2
Flags: W
AnchorPoint: "Anchor-18" 0 0 basechar 0
AnchorPoint: "Anchor-17" 700 691 basechar 0
AnchorPoint: "Anchor-16" 431 995 basechar 0
AnchorPoint: "Anchor-15" 396 0 basechar 0
AnchorPoint: "Anchor-14" 287 0 basechar 0
LayerCount: 2
Fore
SplineSet
347 909 m 1,1,-1
 328 971 l 1,2,3
 374 995 374 995 428 995 c 0,4,5
 480 995 480 995 508 969.5 c 128,-1,6
 536 944 536 944 536 903 c 0,7,8
 536 824 536 824 442 808 c 1,9,-1
 436 763 l 1,10,-1
 354 763 l 1,11,-1
 364 850 l 1,12,13
 403 854 403 854 422.5 864.5 c 128,-1,14
 442 875 442 875 442 897 c 0,15,16
 442 924 442 924 407 924 c 0,17,0
 379 924 379 924 347 909 c 1,1,-1
733 609 m 128,-1,19
 694 572 694 572 621 569 c 1,20,-1
 573 224 l 2,21,22
 558 116 558 116 482.5 50.5 c 128,-1,23
 407 -15 407 -15 287 -15 c 0,24,25
 177 -15 177 -15 119.5 38.5 c 128,-1,26
 62 92 62 92 62 184 c 0,27,28
 62 206 62 206 65 228 c 2,29,-1
 130 691 l 1,30,-1
 261 691 l 1,31,-1
 196 230 l 2,32,33
 193 208 193 208 193 189 c 0,34,35
 193 138 193 138 218 113 c 128,-1,36
 243 88 243 88 295 88 c 0,37,38
 360 88 360 88 396 125 c 128,-1,39
 432 162 432 162 443 235 c 2,40,-1
 507 691 l 1,41,-1
 638 691 l 1,42,-1
 631 639 l 1,43,44
 680 650 680 650 680 714 c 0,45,46
 680 737 680 737 675 760 c 1,47,-1
 763 771 l 1,48,49
 772 746 772 746 772 714 c 0,50,18
 772 646 772 646 733 609 c 128,-1,19
EndSplineSet
Substitution2: "'c2sc' Capitals to Small Capitals lookup 27 subtable" uni1EED.sc
Substitution2: "'aalt' Access All Alternates lookup 0 subtable" uni1EED.sc
Position2: "'cpsp' Capital Spacing lookup 0 subtable" dx=5 dy=0 dh=10 dv=0
EndChar

StartChar: uni1EEE
Encoding: 7918 7918 280
Width: 690
GlyphClass: 2
Flags: W
AnchorPoint: "Anchor-18" 0 0 basechar 0
AnchorPoint: "Anchor-17" 700 691 basechar 0
AnchorPoint: "Anchor-16" 408 910 basechar 0
AnchorPoint: "Anchor-15" 396 0 basechar 0
AnchorPoint: "Anchor-14" 287 0 basechar 0
LayerCount: 2
Fore
SplineSet
317.5 805.5 m 128,-1,1
 304 794 304 794 287 770 c 1,2,-1
 224 807 l 1,3,4
 249 853 249 853 282.5 881.5 c 128,-1,5
 316 910 316 910 354 910 c 0,6,7
 376 910 376 910 391.5 902.5 c 128,-1,8
 407 895 407 895 424 882 c 0,9,10
 436 873 436 873 444 868.5 c 128,-1,11
 452 864 452 864 461 864 c 0,12,13
 477 864 477 864 491 875 c 128,-1,14
 505 886 505 886 521 909 c 1,15,-1
 586 872 l 1,16,17
 559 824 559 824 526 797 c 128,-1,18
 493 770 493 770 458 770 c 0,19,20
 437 770 437 770 421.5 777.5 c 128,-1,21
 406 785 406 785 387 799 c 0,22,23
 378 806 378 806 368 811.5 c 128,-1,24
 358 817 358 817 349 817 c 0,25,0
 331 817 331 817 317.5 805.5 c 128,-1,1
733 609 m 128,-1,27
 694 572 694 572 621 569 c 1,28,-1
 573 224 l 2,29,30
 558 116 558 116 482.5 50.5 c 128,-1,31
 407 -15 407 -15 287 -15 c 0,32,33
 177 -15 177 -15 119.5 38.5 c 128,-1,34
 62 92 62 92 62 184 c 0,35,36
 62 206 62 206 65 228 c 2,37,-1
 130 691 l 1,38,-1
 261 691 l 1,39,-1
 196 230 l 2,40,41
 193 208 193 208 193 189 c 0,42,43
 193 138 193 138 218 113 c 128,-1,44
 243 88 243 88 295 88 c 0,45,46
 360 88 360 88 396 125 c 128,-1,47
 432 162 432 162 443 235 c 2,48,-1
 507 691 l 1,49,-1
 638 691 l 1,50,-1
 631 639 l 1,51,52
 680 650 680 650 680 714 c 0,53,54
 680 737 680 737 675 760 c 1,55,-1
 763 771 l 1,56,57
 772 746 772 746 772 714 c 0,58,26
 772 646 772 646 733 609 c 128,-1,27
EndSplineSet
Substitution2: "'c2sc' Capitals to Small Capitals lookup 27 subtable" uni1EEF.sc
Substitution2: "'aalt' Access All Alternates lookup 0 subtable" uni1EEF.sc
Position2: "'cpsp' Capital Spacing lookup 0 subtable" dx=5 dy=0 dh=10 dv=0
EndChar

StartChar: Uogonek
Encoding: 370 370 284
Width: 648
GlyphClass: 2
Flags: W
AnchorPoint: "Anchor-18" 0 0 basechar 0
AnchorPoint: "Anchor-17" 648 691 basechar 0
AnchorPoint: "Anchor-16" 384 691 basechar 0
AnchorPoint: "Anchor-15" 396 0 basechar 0
AnchorPoint: "Anchor-14" 287 0 basechar 0
LayerCount: 2
Fore
SplineSet
638 691 m 1,0,-1
 573 224 l 2,1,2
 561 139 561 139 510.5 79 c 128,-1,3
 460 19 460 19 378 -3 c 1,4,5
 311 -31 311 -31 286 -57.5 c 128,-1,6
 261 -84 261 -84 261 -112 c 0,7,8
 261 -154 261 -154 313 -154 c 0,9,10
 341 -154 341 -154 375 -147 c 1,11,-1
 360 -232 l 1,12,13
 323 -239 323 -239 293 -239 c 0,14,15
 233 -239 233 -239 197 -210 c 128,-1,16
 161 -181 161 -181 161 -134 c 0,17,18
 161 -57 161 -57 256 -14 c 1,19,20
 161 -6 161 -6 111.5 46.5 c 128,-1,21
 62 99 62 99 62 183 c 0,22,23
 62 206 62 206 65 228 c 2,24,-1
 130 691 l 1,25,-1
 261 691 l 1,26,-1
 196 230 l 2,27,28
 193 208 193 208 193 189 c 0,29,30
 193 138 193 138 218 113 c 128,-1,31
 243 88 243 88 295 88 c 0,32,33
 360 88 360 88 396 125 c 128,-1,34
 432 162 432 162 443 235 c 2,35,-1
 507 691 l 1,36,-1
 638 691 l 1,0,-1
EndSplineSet
Substitution2: "'c2sc' Capitals to Small Capitals lookup 27 subtable" uogonek.sc
Substitution2: "'aalt' Access All Alternates lookup 0 subtable" uogonek.sc
Position2: "'cpsp' Capital Spacing lookup 0 subtable" dx=5 dy=0 dh=10 dv=0
EndChar

StartChar: uni01B1
Encoding: 433 433 285
Width: 683
GlyphClass: 2
Flags: W
AnchorPoint: "Anchor-18" 0 0 basechar 0
AnchorPoint: "Anchor-17" 0 0 basechar 0
AnchorPoint: "Anchor-16" 403 691 basechar 0
AnchorPoint: "Anchor-15" 0 0 basechar 0
AnchorPoint: "Anchor-14" 304 0 basechar 0
LayerCount: 2
Fore
SplineSet
166 18 m 128,-1,1
 107 51 107 51 76 111 c 128,-1,2
 45 171 45 171 45 249 c 0,3,4
 45 471 45 471 223 593 c 1,5,-1
 111 593 l 1,6,-1
 124 691 l 1,7,-1
 342 691 l 1,8,-1
 329 593 l 1,9,10
 254 528 254 528 218 439.5 c 128,-1,11
 182 351 182 351 182 247 c 0,12,13
 182 168 182 168 215.5 127 c 128,-1,14
 249 86 249 86 314 86 c 0,15,16
 382 86 382 86 427.5 128.5 c 128,-1,17
 473 171 473 171 495 241 c 128,-1,18
 517 311 517 311 517 392 c 0,19,20
 517 463 517 463 500.5 510 c 128,-1,21
 484 557 484 557 450 597 c 1,22,-1
 462 691 l 1,23,-1
 679 691 l 1,24,-1
 665 590 l 1,25,-1
 557 590 l 1,26,27
 601 554 601 554 626 503 c 128,-1,28
 651 452 651 452 651 376 c 0,29,30
 651 266 651 266 608 177 c 128,-1,31
 565 88 565 88 486.5 36.5 c 128,-1,32
 408 -15 408 -15 306 -15 c 0,33,0
 225 -15 225 -15 166 18 c 128,-1,1
EndSplineSet
Substitution2: "'c2sc' Capitals to Small Capitals lookup 27 subtable" uni01B1.sc
Substitution2: "'aalt' Access All Alternates lookup 0 subtable" uni01B1.sc
Position2: "'cpsp' Capital Spacing lookup 0 subtable" dx=5 dy=0 dh=10 dv=0
EndChar

StartChar: V
Encoding: 86 86 289
Width: 556
GlyphClass: 2
Flags: W
AnchorPoint: "Anchor-18" 0 0 basechar 0
AnchorPoint: "Anchor-17" 0 0 basechar 0
AnchorPoint: "Anchor-16" 338 691 basechar 0
AnchorPoint: "Anchor-15" 0 0 basechar 0
AnchorPoint: "Anchor-14" 240 0 basechar 0
LayerCount: 2
Fore
SplineSet
620 691 m 1,0,-1
 321 0 l 1,1,-1
 166 0 l 1,2,-1
 55 691 l 1,3,-1
 191 691 l 1,4,-1
 258 117 l 1,5,-1
 485 691 l 1,6,-1
 620 691 l 1,0,-1
EndSplineSet
Substitution2: "'c2sc' Capitals to Small Capitals lookup 27 subtable" v.sc
Substitution2: "'aalt' Access All Alternates lookup 0 subtable" v.sc
Position2: "'cpsp' Capital Spacing lookup 0 subtable" dx=5 dy=0 dh=10 dv=0
EndChar

StartChar: uni01B2
Encoding: 434 434 290
Width: 636
GlyphClass: 2
Flags: W
AnchorPoint: "Anchor-18" 0 0 basechar 0
AnchorPoint: "Anchor-17" 0 0 basechar 0
AnchorPoint: "Anchor-16" 368 691 basechar 0
AnchorPoint: "Anchor-15" 0 0 basechar 0
AnchorPoint: "Anchor-14" 271 0 basechar 0
LayerCount: 2
Fore
SplineSet
589 676 m 128,-1,1
 621 646 621 646 621 587 c 0,2,3
 621 571 621 571 618 551 c 2,4,-1
 583 294 l 2,5,6
 562 147 562 147 479 66 c 128,-1,7
 396 -15 396 -15 270 -15 c 0,8,9
 171 -15 171 -15 115.5 38.5 c 128,-1,10
 60 92 60 92 60 178 c 0,11,12
 60 196 60 196 63 215 c 2,13,-1
 130 691 l 1,14,-1
 261 691 l 1,15,-1
 194 213 l 2,16,17
 192 202 192 202 192 181 c 0,18,19
 192 88 192 88 279 88 c 0,20,21
 347 88 347 88 392 141 c 128,-1,22
 437 194 437 194 452 300 c 2,23,-1
 488 566 l 2,24,25
 489 571 489 571 489 579 c 0,26,27
 489 606 489 606 465 606 c 0,28,29
 449 606 449 606 432 600 c 1,30,-1
 415 689 l 1,31,32
 454 706 454 706 499 706 c 0,33,0
 557 706 557 706 589 676 c 128,-1,1
EndSplineSet
Substitution2: "'c2sc' Capitals to Small Capitals lookup 27 subtable" uni028B.sc
Substitution2: "'aalt' Access All Alternates lookup 0 subtable" uni028B.sc
Position2: "'cpsp' Capital Spacing lookup 0 subtable" dx=5 dy=0 dh=10 dv=0
EndChar

StartChar: W
Encoding: 87 87 292
Width: 829
GlyphClass: 2
Flags: W
AnchorPoint: "Anchor-18" 0 0 basechar 0
AnchorPoint: "Anchor-17" 0 0 basechar 0
AnchorPoint: "Anchor-16" 475 691 basechar 0
AnchorPoint: "Anchor-15" 0 0 basechar 0
AnchorPoint: "Anchor-14" 377 0 basechar 0
LayerCount: 2
Fore
SplineSet
872 691 m 1,0,-1
 650 0 l 1,1,-1
 480 0 l 1,2,-1
 454 551 l 1,3,-1
 270 0 l 1,4,-1
 105 0 l 1,5,-1
 78 691 l 1,6,-1
 205 691 l 1,7,-1
 210 105 l 1,8,-1
 404 691 l 1,9,-1
 543 691 l 1,10,-1
 570 105 l 1,11,-1
 748 691 l 1,12,-1
 872 691 l 1,0,-1
EndSplineSet
Substitution2: "'c2sc' Capitals to Small Capitals lookup 27 subtable" w.sc
Substitution2: "'aalt' Access All Alternates lookup 0 subtable" w.sc
Position2: "'cpsp' Capital Spacing lookup 0 subtable" dx=5 dy=0 dh=10 dv=0
EndChar

StartChar: uni2C72
Encoding: 11378 11378 297
Width: 877
GlyphClass: 2
Flags: W
AnchorPoint: "Anchor-18" 0 0 basechar 0
AnchorPoint: "Anchor-17" 0 0 basechar 0
AnchorPoint: "Anchor-16" 473 691 basechar 0
AnchorPoint: "Anchor-15" 0 0 basechar 0
AnchorPoint: "Anchor-14" 375 0 basechar 0
LayerCount: 2
Fore
SplineSet
270 0 m 1,0,-1
 454 551 l 1,1,-1
 480 0 l 1,2,-1
 648 0 l 1,3,-1
 813 553 l 2,4,5
 822 583 822 583 837 596 c 128,-1,6
 852 609 852 609 874 609 c 0,7,8
 901 609 901 609 928 591 c 1,9,-1
 977 665 l 1,10,11
 931 706 931 706 864 706 c 0,12,13
 800 706 800 706 761 674.5 c 128,-1,14
 722 643 722 643 701 566 c 2,15,-1
 570 105 l 1,16,-1
 543 691 l 1,17,-1
 404 691 l 1,18,-1
 210 106 l 1,19,-1
 205 691 l 1,20,-1
 78 691 l 1,21,-1
 105 0 l 1,22,-1
 270 0 l 1,0,-1
EndSplineSet
Substitution2: "'c2sc' Capitals to Small Capitals lookup 27 subtable" uni2C73.sc
Substitution2: "'aalt' Access All Alternates lookup 0 subtable" uni2C73.sc
Position2: "'cpsp' Capital Spacing lookup 0 subtable" dx=5 dy=0 dh=10 dv=0
EndChar

StartChar: uni01F7
Encoding: 503 503 298
Width: 583
GlyphClass: 2
Flags: W
AnchorPoint: "Anchor-18" 0 0 basechar 0
AnchorPoint: "Anchor-17" 0 0 basechar 0
AnchorPoint: "Anchor-16" 352 691 basechar 0
AnchorPoint: "Anchor-15" 0 0 basechar 0
AnchorPoint: "Anchor-14" 255 0 basechar 0
LayerCount: 2
Fore
SplineSet
547.5 661 m 128,-1,1
 595 616 595 616 595 538 c 0,2,3
 595 458 595 458 555 401 c 128,-1,4
 515 344 515 344 449 305 c 128,-1,5
 383 266 383 266 288 232 c 2,6,-1
 202 202 l 1,7,-1
 174 0 l 1,8,-1
 43 0 l 1,9,-1
 140 691 l 1,10,-1
 271 691 l 1,11,-1
 265 646 l 1,12,13
 334 706 334 706 426 706 c 0,14,0
 500 706 500 706 547.5 661 c 128,-1,1
410 411 m 128,-1,16
 458 461 458 461 458 527 c 0,17,18
 458 606 458 606 382 606 c 0,19,20
 313 606 313 606 252 555 c 1,21,-1
 216 300 l 1,22,-1
 278 326 l 2,23,15
 362 361 362 361 410 411 c 128,-1,16
EndSplineSet
Substitution2: "'c2sc' Capitals to Small Capitals lookup 27 subtable" uni01BF.sc
Substitution2: "'aalt' Access All Alternates lookup 0 subtable" uni01BF.sc
Position2: "'cpsp' Capital Spacing lookup 0 subtable" dx=5 dy=0 dh=10 dv=0
EndChar

StartChar: X
Encoding: 88 88 299
Width: 554
GlyphClass: 2
Flags: W
AnchorPoint: "Anchor-18" 0 0 basechar 0
AnchorPoint: "Anchor-17" 0 0 basechar 0
AnchorPoint: "Anchor-16" 337 691 basechar 0
AnchorPoint: "Anchor-15" 0 0 basechar 0
AnchorPoint: "Anchor-14" 239 0 basechar 0
LayerCount: 2
Fore
SplineSet
595 691 m 1,0,-1
 367 372 l 1,1,-1
 517 0 l 1,2,-1
 376 0 l 1,3,-1
 280 285 l 1,4,-1
 105 0 l 1,5,-1
 -38 0 l 1,6,-1
 212 368 l 1,7,-1
 76 691 l 1,8,-1
 217 691 l 1,9,-1
 298 449 l 1,10,-1
 453 691 l 1,11,-1
 595 691 l 1,0,-1
EndSplineSet
Substitution2: "'c2sc' Capitals to Small Capitals lookup 27 subtable" x.sc
Substitution2: "'aalt' Access All Alternates lookup 0 subtable" x.sc
Position2: "'cpsp' Capital Spacing lookup 0 subtable" dx=5 dy=0 dh=10 dv=0
EndChar

StartChar: Y
Encoding: 89 89 300
Width: 566
GlyphClass: 2
Flags: W
AnchorPoint: "Anchor-18" 0 0 basechar 0
AnchorPoint: "Anchor-17" 0 0 basechar 0
AnchorPoint: "Anchor-16" 345 691 basechar 0
AnchorPoint: "Anchor-15" 0 0 basechar 0
AnchorPoint: "Anchor-14" 246 0 basechar 0
LayerCount: 2
Fore
SplineSet
628 691 m 1,0,-1
 349 262 l 1,1,-1
 312 0 l 1,2,-1
 180 0 l 1,3,-1
 217 261 l 1,4,-1
 58 691 l 1,5,-1
 197 691 l 1,6,-1
 297 370 l 1,7,-1
 487 691 l 1,8,-1
 628 691 l 1,0,-1
EndSplineSet
Substitution2: "'c2sc' Capitals to Small Capitals lookup 27 subtable" y.sc
Substitution2: "'aalt' Access All Alternates lookup 0 subtable" y.sc
Position2: "'cpsp' Capital Spacing lookup 0 subtable" dx=5 dy=0 dh=10 dv=0
EndChar

StartChar: uni01B3
Encoding: 435 435 306
Width: 602
GlyphClass: 2
Flags: W
AnchorPoint: "Anchor-18" 0 0 basechar 0
AnchorPoint: "Anchor-17" 0 0 basechar 0
AnchorPoint: "Anchor-16" 361 691 basechar 0
AnchorPoint: "Anchor-15" 0 0 basechar 0
AnchorPoint: "Anchor-14" 246 0 basechar 0
LayerCount: 2
Fore
SplineSet
217 261 m 1,0,-1
 58 691 l 1,1,-1
 198 691 l 1,2,-1
 297 370 l 1,3,-1
 418 584 l 2,4,5
 454 653 454 653 491 679.5 c 128,-1,6
 528 706 528 706 588 706 c 0,7,8
 655 706 655 706 701 665 c 1,9,-1
 652 591 l 1,10,11
 627 609 627 609 599 609 c 0,12,13
 577 609 577 609 562 597 c 128,-1,14
 547 585 547 585 527 553 c 2,15,-1
 349 262 l 1,16,-1
 311 0 l 1,17,-1
 180 0 l 1,18,-1
 217 261 l 1,0,-1
EndSplineSet
Substitution2: "'c2sc' Capitals to Small Capitals lookup 27 subtable" uni01B4.sc
Substitution2: "'aalt' Access All Alternates lookup 0 subtable" uni01B4.sc
Position2: "'cpsp' Capital Spacing lookup 0 subtable" dx=5 dy=0 dh=10 dv=0
EndChar

StartChar: uni01A6
Encoding: 422 422 309
Width: 603
GlyphClass: 2
Flags: W
AnchorPoint: "Anchor-18" 0 0 basechar 0
AnchorPoint: "Anchor-17" 0 0 basechar 0
AnchorPoint: "Anchor-16" 362 691 basechar 0
AnchorPoint: "Anchor-15" 0 0 basechar 0
AnchorPoint: "Anchor-14" 0 0 basechar 0
LayerCount: 2
Fore
SplineSet
406 180 m 1,1,-1
 540 -118 l 1,2,-1
 398 -118 l 1,3,-1
 282 159 l 1,4,-1
 196 159 l 1,5,-1
 174 0 l 1,6,-1
 43 0 l 1,7,-1
 140 691 l 1,8,-1
 271 691 l 1,9,-1
 254 573 l 1,10,-1
 326 573 l 2,11,12
 571 573 571 573 571 400 c 0,13,0
 571 239 571 239 406 180 c 1,1,-1
210 254 m 1,14,-1
 294 254 l 2,15,16
 370 254 370 254 402.5 295 c 128,-1,17
 435 336 435 336 435 393 c 0,18,19
 435 438 435 438 406 457.5 c 128,-1,20
 377 477 377 477 314 477 c 2,21,-1
 241 477 l 1,22,-1
 210 254 l 1,14,-1
EndSplineSet
Substitution2: "'c2sc' Capitals to Small Capitals lookup 27 subtable" uni0280.sc
Substitution2: "'aalt' Access All Alternates lookup 0 subtable" uni0280.sc
Position2: "'cpsp' Capital Spacing lookup 0 subtable" dx=5 dy=0 dh=10 dv=0
EndChar

StartChar: uni024E
Encoding: 590 590 310
Width: 566
GlyphClass: 2
Flags: W
AnchorPoint: "Anchor-18" 0 0 basechar 0
AnchorPoint: "Anchor-17" 0 0 basechar 0
AnchorPoint: "Anchor-16" 343 691 basechar 0
AnchorPoint: "Anchor-15" 0 0 basechar 0
AnchorPoint: "Anchor-14" 246 0 basechar 0
LayerCount: 2
Fore
SplineSet
629 691 m 1,0,-1
 576 610 l 1,1,-1
 617 610 l 1,2,-1
 606 528 l 1,3,-1
 523 528 l 1,4,-1
 349 262 l 1,5,-1
 313 0 l 1,6,-1
 181 0 l 1,7,-1
 218 261 l 1,8,-1
 119 528 l 1,9,-1
 38 528 l 1,10,-1
 50 610 l 1,11,-1
 89 610 l 1,12,-1
 59 691 l 1,13,-1
 191 691 l 1,14,-1
 217 610 l 1,15,-1
 445 610 l 1,16,-1
 494 691 l 1,17,-1
 629 691 l 1,0,-1
297 363 m 1,18,-1
 396 528 l 1,19,-1
 244 528 l 1,20,-1
 297 363 l 1,18,-1
EndSplineSet
Substitution2: "'c2sc' Capitals to Small Capitals lookup 27 subtable" uni024F.sc
Substitution2: "'aalt' Access All Alternates lookup 0 subtable" uni024F.sc
Position2: "'cpsp' Capital Spacing lookup 0 subtable" dx=5 dy=0 dh=10 dv=0
EndChar

StartChar: Z
Encoding: 90 90 312
Width: 526
GlyphClass: 2
Flags: W
AnchorPoint: "Anchor-18" 0 0 basechar 0
AnchorPoint: "Anchor-17" 0 0 basechar 0
AnchorPoint: "Anchor-16" 330 691 basechar 0
AnchorPoint: "Anchor-15" 0 0 basechar 0
AnchorPoint: "Anchor-14" 213 0 basechar 0
LayerCount: 2
Fore
SplineSet
-15 0 m 1,0,-1
 -1 101 l 1,1,-1
 385 586 l 1,2,-1
 101 586 l 1,3,-1
 115 691 l 1,4,-1
 549 691 l 1,5,-1
 535 589 l 1,6,-1
 152 108 l 1,7,-1
 470 108 l 1,8,-1
 441 0 l 1,9,-1
 -15 0 l 1,0,-1
EndSplineSet
Substitution2: "'c2sc' Capitals to Small Capitals lookup 27 subtable" z.sc
Substitution2: "'aalt' Access All Alternates lookup 0 subtable" z.sc
Position2: "'cpsp' Capital Spacing lookup 0 subtable" dx=5 dy=0 dh=10 dv=0
EndChar

StartChar: uni0224
Encoding: 548 548 317
Width: 523
GlyphClass: 2
Flags: W
AnchorPoint: "Anchor-18" 0 0 basechar 0
AnchorPoint: "Anchor-17" 0 0 basechar 0
AnchorPoint: "Anchor-16" 321 691 basechar 0
AnchorPoint: "Anchor-15" 0 0 basechar 0
AnchorPoint: "Anchor-14" 0 0 basechar 0
LayerCount: 2
Fore
SplineSet
535 589 m 1,0,-1
 154 108 l 1,1,-1
 463 108 l 1,2,-1
 447 0 l 1,3,-1
 440 -48 l 2,4,5
 426 -133 426 -133 376.5 -175.5 c 128,-1,6
 327 -218 327 -218 249 -218 c 0,7,8
 176 -218 176 -218 124 -176 c 1,9,-1
 177 -99 l 1,10,11
 194 -110 194 -110 208.5 -115 c 128,-1,12
 223 -120 223 -120 244 -120 c 0,13,14
 302 -120 302 -120 314 -49 c 2,15,-1
 321 0 l 1,16,-1
 -15 0 l 1,17,-1
 -1 101 l 1,18,-1
 385 586 l 1,19,-1
 101 586 l 1,20,-1
 115 691 l 1,21,-1
 549 691 l 1,22,-1
 535 589 l 1,0,-1
EndSplineSet
Substitution2: "'c2sc' Capitals to Small Capitals lookup 27 subtable" uni0225.sc
Substitution2: "'aalt' Access All Alternates lookup 0 subtable" uni0225.sc
Position2: "'cpsp' Capital Spacing lookup 0 subtable" dx=5 dy=0 dh=10 dv=0
EndChar

StartChar: uni01B5
Encoding: 437 437 318
Width: 526
GlyphClass: 2
Flags: W
AnchorPoint: "Anchor-18" 0 0 basechar 0
AnchorPoint: "Anchor-17" 0 0 basechar 0
AnchorPoint: "Anchor-16" 323 691 basechar 0
AnchorPoint: "Anchor-15" 0 0 basechar 0
AnchorPoint: "Anchor-14" 226 0 basechar 0
LayerCount: 2
Fore
SplineSet
549 691 m 1,0,-1
 535 589 l 1,1,-1
 376 392 l 1,2,-1
 459 392 l 1,3,-1
 444 302 l 1,4,-1
 303 302 l 1,5,-1
 146 108 l 1,6,-1
 470 108 l 1,7,-1
 441 0 l 1,8,-1
 -15 0 l 1,9,-1
 -1 101 l 1,10,-1
 163 302 l 1,11,-1
 74 302 l 1,12,-1
 89 392 l 1,13,-1
 236 392 l 1,14,-1
 394 586 l 1,15,-1
 101 586 l 1,16,-1
 115 691 l 1,17,-1
 549 691 l 1,0,-1
EndSplineSet
Substitution2: "'c2sc' Capitals to Small Capitals lookup 27 subtable" uni01B6.sc
Substitution2: "'aalt' Access All Alternates lookup 0 subtable" uni01B6.sc
Position2: "'cpsp' Capital Spacing lookup 0 subtable" dx=5 dy=0 dh=10 dv=0
EndChar

StartChar: Eng.ss01
Encoding: 65542 -1 324
Width: 653
GlyphClass: 2
Flags: W
AnchorPoint: "Anchor-18" 0 0 basechar 0
AnchorPoint: "Anchor-17" 0 0 basechar 0
AnchorPoint: "Anchor-16" 386 691 basechar 0
AnchorPoint: "Anchor-15" 0 0 basechar 0
AnchorPoint: "Anchor-14" 0 0 basechar 0
LayerCount: 2
Fore
SplineSet
578 664 m 128,-1,1
 618 622 618 622 618 553 c 0,2,3
 618 535 618 535 615 515 c 2,4,-1
 544 0 l 1,5,-1
 543 0 l 1,6,-1
 537 -46 l 2,7,8
 524 -132 524 -132 472.5 -175 c 128,-1,9
 421 -218 421 -218 340 -218 c 0,10,11
 268 -218 268 -218 216 -176 c 1,12,-1
 270 -97 l 1,13,14
 287 -108 287 -108 301 -113 c 128,-1,15
 315 -118 315 -118 336 -118 c 0,16,17
 396 -118 396 -118 406 -49 c 2,18,-1
 413 0 l 1,19,-1
 482 496 l 2,20,21
 485 514 485 514 485 529 c 0,22,23
 485 567 485 567 467.5 585.5 c 128,-1,24
 450 604 450 604 413 604 c 0,25,26
 368 604 368 604 332.5 585 c 128,-1,27
 297 566 297 566 247 524 c 1,28,-1
 173 0 l 1,29,-1
 43 0 l 1,30,-1
 140 691 l 1,31,-1
 254 691 l 1,32,-1
 254 621 l 1,33,34
 303 664 303 664 351.5 685 c 128,-1,35
 400 706 400 706 459 706 c 0,36,0
 538 706 538 706 578 664 c 128,-1,1
EndSplineSet
Position2: "'cpsp' Capital Spacing lookup 0 subtable" dx=5 dy=0 dh=10 dv=0
EndChar

StartChar: uni019D.ss01
Encoding: 65543 -1 325
Width: 653
GlyphClass: 2
Flags: W
AnchorPoint: "Anchor-18" 0 0 basechar 0
AnchorPoint: "Anchor-17" 0 0 basechar 0
AnchorPoint: "Anchor-16" 386 691 basechar 0
AnchorPoint: "Anchor-15" 0 0 basechar 0
AnchorPoint: "Anchor-14" 0 0 basechar 0
LayerCount: 2
Fore
SplineSet
577 664 m 128,-1,1
 618 622 618 622 618 552 c 0,2,3
 618 533 618 533 615 513 c 2,4,-1
 544 0 l 1,5,-1
 414 0 l 1,6,-1
 483 496 l 2,7,8
 486 514 486 514 486 529 c 0,9,10
 486 568 486 568 468.5 586 c 128,-1,11
 451 604 451 604 413 604 c 0,12,13
 368 604 368 604 331.5 584 c 128,-1,14
 295 564 295 564 248 521 c 1,15,-1
 174 0 l 1,16,-1
 168 -46 l 2,17,18
 155 -132 155 -132 103.5 -175 c 128,-1,19
 52 -218 52 -218 -29 -218 c 0,20,21
 -101 -218 -101 -218 -153 -176 c 1,22,-1
 -99 -97 l 1,23,24
 -82 -108 -82 -108 -68 -113 c 128,-1,25
 -54 -118 -54 -118 -33 -118 c 0,26,27
 27 -118 27 -118 37 -49 c 2,28,-1
 44 0 l 1,29,-1
 141 691 l 1,30,-1
 254 691 l 1,31,-1
 255 620 l 1,32,33
 302 663 302 663 350.5 684.5 c 128,-1,34
 399 706 399 706 456 706 c 0,35,0
 536 706 536 706 577 664 c 128,-1,1
EndSplineSet
Position2: "'cpsp' Capital Spacing lookup 0 subtable" dx=5 dy=0 dh=10 dv=0
EndChar

StartChar: uni2C64.ss01
Encoding: 65544 -1 326
Width: 420
GlyphClass: 2
Flags: W
AnchorPoint: "Anchor-18" 0 0 basechar 0
AnchorPoint: "Anchor-17" 0 0 basechar 0
AnchorPoint: "Anchor-16" 270 691 basechar 0
AnchorPoint: "Anchor-15" 0 0 basechar 0
AnchorPoint: "Anchor-14" 0 0 basechar 0
LayerCount: 2
Fore
SplineSet
484 695 m 1,1,-1
 448 568 l 1,2,3
 419 577 419 577 391 577 c 0,4,5
 333 577 333 577 297 542 c 128,-1,6
 261 507 261 507 235 434 c 1,7,-1
 174 0 l 1,8,-1
 166 -54 l 2,9,10
 165 -60 165 -60 165 -71 c 0,11,12
 165 -118 165 -118 211 -118 c 0,13,14
 233 -118 233 -118 248.5 -113 c 128,-1,15
 264 -108 264 -108 285 -97 c 1,16,-1
 322 -179 l 1,17,18
 264 -218 264 -218 191 -218 c 256,19,20
 118 -218 118 -218 76.5 -181.5 c 128,-1,21
 35 -145 35 -145 35 -76 c 0,22,23
 35 -53 35 -53 37 -41 c 2,24,-1
 43 0 l 1,25,-1
 140 691 l 1,26,-1
 254 691 l 1,27,-1
 252 596 l 1,28,29
 281 651 281 651 320 678 c 128,-1,30
 359 705 359 705 417 705 c 0,31,0
 454 705 454 705 484 695 c 1,1,-1
EndSplineSet
Position2: "'cpsp' Capital Spacing lookup 0 subtable" dx=5 dy=0 dh=10 dv=0
EndChar

StartChar: uniA78D.ss02
Encoding: 65546 -1 328
Width: 593
GlyphClass: 2
Flags: W
AnchorPoint: "Anchor-18" 0 0 basechar 0
AnchorPoint: "Anchor-17" 0 0 basechar 0
AnchorPoint: "Anchor-16" 334 691 basechar 0
AnchorPoint: "Anchor-15" 0 0 basechar 0
AnchorPoint: "Anchor-14" 259 0 basechar 0
LayerCount: 2
Fore
SplineSet
475 0 m 1,0,-1
 345 0 l 1,1,-1
 381 255 l 1,2,-1
 34 255 l 1,3,-1
 95 691 l 1,4,-1
 226 691 l 1,5,-1
 180 361 l 1,6,-1
 396 361 l 1,7,-1
 442 691 l 1,8,-1
 572 691 l 1,9,-1
 475 0 l 1,0,-1
EndSplineSet
Position2: "'cpsp' Capital Spacing lookup 0 subtable" dx=5 dy=0 dh=10 dv=0
EndChar

StartChar: uni0299
Encoding: 665 665 329
Width: 536
GlyphClass: 2
Flags: W
AnchorPoint: "Anchor-18" 0 0 basechar 0
AnchorPoint: "Anchor-17" 0 0 basechar 0
AnchorPoint: "Anchor-16" 305 529 basechar 0
AnchorPoint: "Anchor-15" 0 0 basechar 0
AnchorPoint: "Anchor-14" 230 0 basechar 0
LayerCount: 2
Fore
SplineSet
496 182 m 0,1,2
 496 89 496 89 428 44.5 c 128,-1,3
 360 0 360 0 247 0 c 2,4,-1
 40 0 l 1,5,-1
 112 524 l 1,6,7
 222 544 222 544 303 544 c 0,8,9
 398 544 398 544 452 510.5 c 128,-1,10
 506 477 506 477 506 415 c 0,11,12
 505 315 505 315 380 288 c 1,13,0
 496 276 496 276 496 182 c 0,1,2
351.5 340.5 m 128,-1,15
 378 363 378 363 378 403 c 0,16,17
 378 431 378 431 358 444 c 128,-1,18
 338 457 338 457 297 457 c 0,19,20
 268 457 268 457 231 452 c 1,21,-1
 211 318 l 1,22,-1
 280 318 l 2,23,14
 325 318 325 318 351.5 340.5 c 128,-1,15
332 111 m 128,-1,25
 367 133 367 133 367 186 c 0,26,27
 367 218 367 218 345 230 c 128,-1,28
 323 242 323 242 280 242 c 2,29,-1
 200 242 l 1,30,-1
 178 89 l 1,31,-1
 244 89 l 2,32,24
 297 89 297 89 332 111 c 128,-1,25
EndSplineSet
EndChar

StartChar: uni0262
Encoding: 610 610 330
Width: 553
GlyphClass: 2
Flags: W
AnchorPoint: "Anchor-18" 0 0 basechar 0
AnchorPoint: "Anchor-17" 0 0 basechar 0
AnchorPoint: "Anchor-16" 335 529 basechar 0
AnchorPoint: "Anchor-15" 0 0 basechar 0
AnchorPoint: "Anchor-14" 260 0 basechar 0
LayerCount: 2
Fore
SplineSet
441.5 526 m 128,-1,1
 484 508 484 508 522 474 c 1,2,-1
 451 405 l 1,3,4
 424 428 424 428 397 438 c 128,-1,5
 370 448 370 448 336 448 c 0,6,7
 281 448 281 448 243 413 c 128,-1,8
 205 378 205 378 187 321 c 128,-1,9
 169 264 169 264 169 199 c 0,10,11
 169 135 169 135 193 108 c 128,-1,12
 217 81 217 81 265 81 c 0,13,14
 310 81 310 81 355 99 c 1,15,-1
 369 216 l 1,16,-1
 290 216 l 1,17,-1
 290 305 l 1,18,-1
 502 305 l 1,19,-1
 467 44 l 1,20,21
 367 -13 367 -13 254 -13 c 0,22,23
 149 -13 149 -13 93.5 41.5 c 128,-1,24
 38 96 38 96 38 201 c 0,25,26
 38 297 38 297 76 375.5 c 128,-1,27
 114 454 114 454 182 499 c 128,-1,28
 250 544 250 544 337 544 c 0,29,0
 399 544 399 544 441.5 526 c 128,-1,1
EndSplineSet
EndChar

StartChar: uni029B
Encoding: 667 667 331
Width: 559
GlyphClass: 2
Flags: W
AnchorPoint: "Anchor-18" 0 0 basechar 0
AnchorPoint: "Anchor-17" 0 0 basechar 0
AnchorPoint: "Anchor-16" 347 741 basechar 0
AnchorPoint: "Anchor-15" 0 0 basechar 0
AnchorPoint: "Anchor-14" 256 0 basechar 0
LayerCount: 2
Fore
SplineSet
721 715 m 1,1,-1
 671 638 l 1,2,3
 654 648 654 648 639.5 653 c 128,-1,4
 625 658 625 658 606 658 c 0,5,6
 577 658 577 658 559 640.5 c 128,-1,7
 541 623 541 623 537 588 c 2,8,-1
 521 474 l 1,9,-1
 460 415 l 1,10,11
 401 448 401 448 335 448 c 0,12,13
 253 448 253 448 211 374 c 128,-1,14
 169 300 169 300 169 195 c 0,15,16
 169 134 169 134 193 107.5 c 128,-1,17
 217 81 217 81 264 81 c 256,18,19
 311 81 311 81 354 99 c 1,20,-1
 369 216 l 1,21,-1
 289 216 l 1,22,-1
 289 305 l 1,23,-1
 501 305 l 1,24,-1
 466 44 l 1,25,26
 421 18 421 18 367 2.5 c 128,-1,27
 313 -13 313 -13 253 -13 c 0,28,29
 148 -13 148 -13 92.5 41.5 c 128,-1,30
 37 96 37 96 37 201 c 0,31,32
 37 296 37 296 75.5 374.5 c 128,-1,33
 114 453 114 453 180 498.5 c 128,-1,34
 246 544 246 544 325 544 c 0,35,36
 377 544 377 544 413 529 c 1,37,-1
 421 593 l 2,38,39
 433 672 433 672 478.5 713.5 c 128,-1,40
 524 755 524 755 599 755 c 0,41,0
 669 755 669 755 721 715 c 1,1,-1
EndSplineSet
EndChar

StartChar: uni026A
Encoding: 618 618 333
Width: 325
GlyphClass: 2
Flags: W
AnchorPoint: "Anchor-18" 0 0 basechar 0
AnchorPoint: "Anchor-17" 0 0 basechar 0
AnchorPoint: "Anchor-16" 200 529 basechar 0
AnchorPoint: "Anchor-15" 0 0 basechar 0
AnchorPoint: "Anchor-14" 125 0 basechar 0
LayerCount: 2
Fore
SplineSet
333 437 m 1,0,-1
 249 437 l 1,1,-1
 201 92 l 1,2,-1
 284 92 l 1,3,-1
 271 0 l 1,4,-1
 -21 0 l 1,5,-1
 -8 92 l 1,6,-1
 74 92 l 1,7,-1
 123 437 l 1,8,-1
 41 437 l 1,9,-1
 53 529 l 1,10,-1
 345 529 l 1,11,-1
 333 437 l 1,0,-1
EndSplineSet
EndChar

StartChar: uni029F
Encoding: 671 671 334
Width: 440
GlyphClass: 2
Flags: W
AnchorPoint: "Anchor-18" 0 0 basechar 0
AnchorPoint: "Anchor-17" 0 0 basechar 0
AnchorPoint: "Anchor-16" 176 529 basechar 0
AnchorPoint: "Anchor-15" 0 0 basechar 0
AnchorPoint: "Anchor-14" 205 0 basechar 0
LayerCount: 2
Fore
SplineSet
239 529 m 1,0,-1
 179 102 l 1,1,-1
 404 102 l 1,2,-1
 375 0 l 1,3,-1
 39 0 l 1,4,-1
 113 529 l 1,5,-1
 239 529 l 1,0,-1
EndSplineSet
EndChar

StartChar: uni0274
Encoding: 628 628 335
Width: 583
GlyphClass: 2
Flags: W
AnchorPoint: "Anchor-18" 0 0 basechar 0
AnchorPoint: "Anchor-17" 0 0 basechar 0
AnchorPoint: "Anchor-16" 329 529 basechar 0
AnchorPoint: "Anchor-15" 0 0 basechar 0
AnchorPoint: "Anchor-14" 255 0 basechar 0
LayerCount: 2
Fore
SplineSet
470 0 m 1,0,-1
 316 0 l 1,1,-1
 192 411 l 1,2,3
 192 288 192 288 177 175 c 2,4,-1
 152 0 l 1,5,-1
 39 0 l 1,6,-1
 113 529 l 1,7,-1
 266 529 l 1,8,-1
 391 117 l 1,9,10
 390 134 390 134 390 170 c 0,11,12
 390 232 390 232 400 306 c 2,13,-1
 431 529 l 1,14,-1
 544 529 l 1,15,-1
 470 0 l 1,0,-1
EndSplineSet
EndChar

StartChar: uni0276
Encoding: 630 630 336
Width: 751
GlyphClass: 2
Flags: W
AnchorPoint: "Anchor-18" 0 0 basechar 0
AnchorPoint: "Anchor-17" 0 0 basechar 0
AnchorPoint: "Anchor-16" 453 529 basechar 0
AnchorPoint: "Anchor-15" 0 0 basechar 0
AnchorPoint: "Anchor-14" 375 0 basechar 0
LayerCount: 2
Fore
SplineSet
495 438 m 1,0,1
 530 386 530 386 533 314 c 1,2,-1
 690 314 l 1,3,-1
 677 223 l 1,4,-1
 524 223 l 1,5,6
 505 146 505 146 449 92 c 1,7,-1
 700 92 l 1,8,-1
 687 0 l 1,9,-1
 335 0 l 1,10,11
 293 -15 293 -15 250 -15 c 0,12,13
 150 -15 150 -15 94.5 44.5 c 128,-1,14
 39 104 39 104 39 208 c 0,15,16
 39 286 39 286 67.5 363 c 128,-1,17
 96 440 96 440 159.5 492 c 128,-1,18
 223 544 223 544 323 544 c 0,19,20
 367 544 367 544 412 529 c 1,21,-1
 761 529 l 1,22,-1
 734 438 l 1,23,-1
 495 438 l 1,0,1
259 82 m 0,25,26
 314 82 314 82 347 123.5 c 128,-1,27
 380 165 380 165 393 223 c 128,-1,28
 406 281 406 281 406 336 c 0,29,30
 406 447 406 447 317 447 c 0,31,32
 262 447 262 447 229 406.5 c 128,-1,33
 196 366 196 366 182.5 309 c 128,-1,34
 169 252 169 252 169 198 c 0,35,24
 169 82 169 82 259 82 c 0,25,26
EndSplineSet
EndChar

StartChar: uni0280
Encoding: 640 640 337
Width: 526
GlyphClass: 2
Flags: W
AnchorPoint: "Anchor-18" 0 0 basechar 0
AnchorPoint: "Anchor-17" 0 0 basechar 0
AnchorPoint: "Anchor-16" 300 529 basechar 0
AnchorPoint: "Anchor-15" 0 0 basechar 0
AnchorPoint: "Anchor-14" 242 0 basechar 0
LayerCount: 2
Fore
SplineSet
359 213 m 1,1,-1
 466 0 l 1,2,-1
 334 0 l 1,3,-1
 248 192 l 1,4,-1
 189 192 l 1,5,-1
 162 0 l 1,6,-1
 39 0 l 1,7,-1
 113 529 l 1,8,-1
 278 529 l 2,9,10
 378 529 378 529 430 491.5 c 128,-1,11
 482 454 482 454 482 380 c 0,12,0
 482 261 482 261 359 213 c 1,1,-1
201 281 m 1,13,-1
 249 281 l 2,14,15
 300 281 300 281 327.5 306 c 128,-1,16
 355 331 355 331 355 375 c 0,17,18
 355 410 355 410 334 424 c 128,-1,19
 313 438 313 438 267 438 c 2,20,-1
 223 438 l 1,21,-1
 201 281 l 1,13,-1
EndSplineSet
Substitution2: "'smcp' Lowercase to Small Capitals lookup 28 subtable" uni0280.sc
Substitution2: "'aalt' Access All Alternates lookup 0 subtable" uni0280.sc
EndChar

StartChar: uni0281
Encoding: 641 641 338
Width: 527
GlyphClass: 2
Flags: W
LayerCount: 2
Fore
SplineSet
455 190 m 0,1,2
 455 96 455 96 388.5 48 c 128,-1,3
 322 0 322 0 208 0 c 2,4,-1
 39 0 l 1,5,-1
 113 529 l 1,6,-1
 236 529 l 1,7,-1
 209 338 l 1,8,-1
 271 338 l 1,9,-1
 409 529 l 1,10,-1
 541 529 l 1,11,-1
 375 316 l 1,12,0
 455 279 455 279 455 190 c 0,1,2
299 114.5 m 128,-1,14
 329 138 329 138 329 186 c 0,15,16
 329 249 329 249 246 249 c 2,17,-1
 196 249 l 1,18,-1
 174 91 l 1,19,-1
 214 91 l 2,20,13
 269 91 269 91 299 114.5 c 128,-1,14
EndSplineSet
EndChar

StartChar: uni028F
Encoding: 655 655 339
Width: 488
GlyphClass: 2
Flags: W
AnchorPoint: "Anchor-18" 0 0 basechar 0
AnchorPoint: "Anchor-17" 0 0 basechar 0
AnchorPoint: "Anchor-16" 281 529 basechar 0
AnchorPoint: "Anchor-15" 0 0 basechar 0
AnchorPoint: "Anchor-14" 206 0 basechar 0
LayerCount: 2
Fore
SplineSet
524 529 m 1,0,-1
 298 195 l 1,1,-1
 270 0 l 1,2,-1
 143 0 l 1,3,-1
 172 194 l 1,4,-1
 39 529 l 1,5,-1
 171 529 l 1,6,-1
 246 285 l 1,7,-1
 388 529 l 1,8,-1
 524 529 l 1,0,-1
EndSplineSet
EndChar

StartChar: a
Encoding: 97 97 340
Width: 571
GlyphClass: 2
Flags: W
AnchorPoint: "Anchor-18" 0 0 basechar 0
AnchorPoint: "Anchor-17" 0 0 basechar 0
AnchorPoint: "Anchor-16" 341 529 basechar 0
AnchorPoint: "Anchor-15" 482 -13 basechar 0
AnchorPoint: "Anchor-14" 276 0 basechar 0
LayerCount: 2
Fore
SplineSet
533 493 m 1,1,-1
 482 138 l 2,2,3
 480 120 480 120 480 115 c 0,4,5
 480 98 480 98 486.5 88 c 128,-1,6
 493 78 493 78 510 71 c 1,7,-1
 474 -13 l 1,8,9
 381 -3 381 -3 365 75 c 1,10,11
 299 -15 299 -15 207 -15 c 0,12,13
 126 -15 126 -15 81.5 41 c 128,-1,14
 37 97 37 97 37 192 c 0,15,16
 37 274 37 274 67.5 355 c 128,-1,17
 98 436 98 436 164 490 c 128,-1,18
 230 544 230 544 331 544 c 0,19,0
 435 544 435 544 533 493 c 1,1,-1
238 410.5 m 128,-1,21
 202 371 202 371 185.5 311.5 c 128,-1,22
 169 252 169 252 169 192 c 0,23,24
 169 82 169 82 242 82 c 0,25,26
 276 82 276 82 304 103.5 c 128,-1,27
 332 125 332 125 362 166 c 1,28,-1
 400 436 l 1,29,30
 368 450 368 450 329 450 c 0,31,20
 274 450 274 450 238 410.5 c 128,-1,21
EndSplineSet
Substitution2: "Single Substitution lookup 44 subtable" ordfeminine
Substitution2: "'smcp' Lowercase to Small Capitals lookup 28 subtable" a.sc
AlternateSubs2: "'aalt' Access All Alternates lookup 1 subtable" ordfeminine a.sc
EndChar

StartChar: uni1EAF
Encoding: 7855 7855 343
Width: 571
GlyphClass: 2
Flags: W
AnchorPoint: "Anchor-18" 0 0 basechar 0
AnchorPoint: "Anchor-17" 0 0 basechar 0
AnchorPoint: "Anchor-16" 375 760 basechar 0
AnchorPoint: "Anchor-15" 482 -13 basechar 0
AnchorPoint: "Anchor-14" 0 0 basechar 0
LayerCount: 2
Fore
SplineSet
463 951 m 1,0,-1
 528 881 l 1,1,-1
 365 747 l 1,2,-1
 319 792 l 1,3,-1
 463 951 l 1,0,-1
249 642 m 128,-1,5
 211 684 211 684 213 747 c 1,6,-1
 286 757 l 1,7,8
 299 692 299 692 361 692 c 0,9,10
 395 692 395 692 420.5 710.5 c 128,-1,11
 446 729 446 729 459 760 c 1,12,-1
 534 742 l 1,13,14
 519 680 519 680 470.5 640 c 128,-1,15
 422 600 422 600 355 600 c 0,16,4
 287 600 287 600 249 642 c 128,-1,5
533 493 m 1,18,-1
 482 138 l 2,19,20
 480 120 480 120 480 115 c 0,21,22
 480 98 480 98 486.5 88 c 128,-1,23
 493 78 493 78 510 71 c 1,24,-1
 474 -13 l 1,25,26
 381 -3 381 -3 365 75 c 1,27,28
 299 -15 299 -15 207 -15 c 0,29,30
 126 -15 126 -15 81.5 41 c 128,-1,31
 37 97 37 97 37 192 c 0,32,33
 37 274 37 274 67.5 355 c 128,-1,34
 98 436 98 436 164 490 c 128,-1,35
 230 544 230 544 331 544 c 0,36,17
 435 544 435 544 533 493 c 1,18,-1
238 410.5 m 128,-1,38
 202 371 202 371 185.5 311.5 c 128,-1,39
 169 252 169 252 169 192 c 0,40,41
 169 82 169 82 242 82 c 0,42,43
 276 82 276 82 304 103.5 c 128,-1,44
 332 125 332 125 362 166 c 1,45,-1
 400 436 l 1,46,47
 368 450 368 450 329 450 c 0,48,37
 274 450 274 450 238 410.5 c 128,-1,38
EndSplineSet
Substitution2: "'smcp' Lowercase to Small Capitals lookup 28 subtable" uni1EAF.sc
Substitution2: "'aalt' Access All Alternates lookup 0 subtable" uni1EAF.sc
EndChar

StartChar: uni1EB1
Encoding: 7857 7857 345
Width: 571
GlyphClass: 2
Flags: W
AnchorPoint: "Anchor-18" 0 0 basechar 0
AnchorPoint: "Anchor-17" 0 0 basechar 0
AnchorPoint: "Anchor-16" 375 760 basechar 0
AnchorPoint: "Anchor-15" 482 -13 basechar 0
AnchorPoint: "Anchor-14" 0 0 basechar 0
LayerCount: 2
Fore
SplineSet
313 949 m 1,0,-1
 415 788 l 1,1,-1
 363 747 l 1,2,-1
 235 884 l 1,3,-1
 313 949 l 1,0,-1
249 642 m 128,-1,5
 211 684 211 684 213 747 c 1,6,-1
 286 757 l 1,7,8
 299 692 299 692 361 692 c 0,9,10
 395 692 395 692 420.5 710.5 c 128,-1,11
 446 729 446 729 459 760 c 1,12,-1
 534 742 l 1,13,14
 519 680 519 680 470.5 640 c 128,-1,15
 422 600 422 600 355 600 c 0,16,4
 287 600 287 600 249 642 c 128,-1,5
533 493 m 1,18,-1
 482 138 l 2,19,20
 480 120 480 120 480 115 c 0,21,22
 480 98 480 98 486.5 88 c 128,-1,23
 493 78 493 78 510 71 c 1,24,-1
 474 -13 l 1,25,26
 381 -3 381 -3 365 75 c 1,27,28
 299 -15 299 -15 207 -15 c 0,29,30
 126 -15 126 -15 81.5 41 c 128,-1,31
 37 97 37 97 37 192 c 0,32,33
 37 274 37 274 67.5 355 c 128,-1,34
 98 436 98 436 164 490 c 128,-1,35
 230 544 230 544 331 544 c 0,36,17
 435 544 435 544 533 493 c 1,18,-1
238 410.5 m 128,-1,38
 202 371 202 371 185.5 311.5 c 128,-1,39
 169 252 169 252 169 192 c 0,40,41
 169 82 169 82 242 82 c 0,42,43
 276 82 276 82 304 103.5 c 128,-1,44
 332 125 332 125 362 166 c 1,45,-1
 400 436 l 1,46,47
 368 450 368 450 329 450 c 0,48,37
 274 450 274 450 238 410.5 c 128,-1,38
EndSplineSet
Substitution2: "'smcp' Lowercase to Small Capitals lookup 28 subtable" uni1EB1.sc
Substitution2: "'aalt' Access All Alternates lookup 0 subtable" uni1EB1.sc
EndChar

StartChar: uni1EB5
Encoding: 7861 7861 347
Width: 571
GlyphClass: 2
Flags: W
AnchorPoint: "Anchor-18" 0 0 basechar 0
AnchorPoint: "Anchor-17" 0 0 basechar 0
AnchorPoint: "Anchor-16" 387 918 basechar 0
AnchorPoint: "Anchor-15" 482 -13 basechar 0
AnchorPoint: "Anchor-14" 0 0 basechar 0
LayerCount: 2
Fore
SplineSet
401 790.5 m 128,-1,1
 385 798 385 798 367 811 c 0,2,3
 344 829 344 829 330 829 c 0,4,5
 313 829 313 829 299 818 c 128,-1,6
 285 807 285 807 268 783 c 1,7,-1
 205 819 l 1,8,9
 230 864 230 864 263.5 891 c 128,-1,10
 297 918 297 918 335 918 c 0,11,12
 356 918 356 918 371.5 911 c 128,-1,13
 387 904 387 904 404 891 c 0,14,15
 417 882 417 882 424.5 878 c 128,-1,16
 432 874 432 874 441 874 c 0,17,18
 458 874 458 874 471.5 884.5 c 128,-1,19
 485 895 485 895 500 917 c 1,20,-1
 565 882 l 1,21,22
 538 835 538 835 505.5 809 c 128,-1,23
 473 783 473 783 438 783 c 0,24,0
 417 783 417 783 401 790.5 c 128,-1,1
249 642 m 128,-1,26
 211 684 211 684 213 747 c 1,27,-1
 286 757 l 1,28,29
 299 692 299 692 361 692 c 0,30,31
 395 692 395 692 420.5 710.5 c 128,-1,32
 446 729 446 729 459 760 c 1,33,-1
 534 742 l 1,34,35
 519 680 519 680 470.5 640 c 128,-1,36
 422 600 422 600 355 600 c 0,37,25
 287 600 287 600 249 642 c 128,-1,26
533 493 m 1,39,-1
 482 138 l 2,40,41
 480 120 480 120 480 115 c 0,42,43
 480 98 480 98 486.5 88 c 128,-1,44
 493 78 493 78 510 71 c 1,45,-1
 474 -13 l 1,46,47
 381 -3 381 -3 365 75 c 1,48,49
 299 -15 299 -15 207 -15 c 0,50,51
 126 -15 126 -15 81.5 41 c 128,-1,52
 37 97 37 97 37 192 c 0,53,54
 37 274 37 274 67.5 355 c 128,-1,55
 98 436 98 436 164 490 c 128,-1,56
 230 544 230 544 331 544 c 0,57,38
 435 544 435 544 533 493 c 1,39,-1
238 410.5 m 128,-1,59
 202 371 202 371 185.5 311.5 c 128,-1,60
 169 252 169 252 169 192 c 0,61,62
 169 82 169 82 242 82 c 0,63,64
 276 82 276 82 304 103.5 c 128,-1,65
 332 125 332 125 362 166 c 1,66,-1
 400 436 l 1,67,68
 368 450 368 450 329 450 c 0,69,58
 274 450 274 450 238 410.5 c 128,-1,59
EndSplineSet
Substitution2: "'smcp' Lowercase to Small Capitals lookup 28 subtable" uni1EB5.sc
Substitution2: "'aalt' Access All Alternates lookup 0 subtable" uni1EB5.sc
EndChar

StartChar: uni1EA5
Encoding: 7845 7845 350
Width: 571
GlyphClass: 2
Flags: W
AnchorPoint: "Anchor-18" 0 0 basechar 0
AnchorPoint: "Anchor-17" 459 640 basechar 0
AnchorPoint: "Anchor-16" 369 763 basechar 0
AnchorPoint: "Anchor-15" 482 -13 basechar 0
AnchorPoint: "Anchor-14" 0 0 basechar 0
LayerCount: 2
Fore
SplineSet
601 928 m 1,0,-1
 666 858 l 1,1,-1
 503 724 l 1,2,-1
 457 769 l 1,3,-1
 601 928 l 1,0,-1
220 587 m 1,4,-1
 176 642 l 1,5,-1
 329 763 l 1,6,-1
 408 763 l 1,7,-1
 528 642 l 1,8,-1
 477 587 l 1,9,-1
 359 670 l 1,10,-1
 220 587 l 1,4,-1
533 493 m 1,12,-1
 482 138 l 2,13,14
 480 120 480 120 480 115 c 0,15,16
 480 98 480 98 486.5 88 c 128,-1,17
 493 78 493 78 510 71 c 1,18,-1
 474 -13 l 1,19,20
 381 -3 381 -3 365 75 c 1,21,22
 299 -15 299 -15 207 -15 c 0,23,24
 126 -15 126 -15 81.5 41 c 128,-1,25
 37 97 37 97 37 192 c 0,26,27
 37 274 37 274 67.5 355 c 128,-1,28
 98 436 98 436 164 490 c 128,-1,29
 230 544 230 544 331 544 c 0,30,11
 435 544 435 544 533 493 c 1,12,-1
238 410.5 m 128,-1,32
 202 371 202 371 185.5 311.5 c 128,-1,33
 169 252 169 252 169 192 c 0,34,35
 169 82 169 82 242 82 c 0,36,37
 276 82 276 82 304 103.5 c 128,-1,38
 332 125 332 125 362 166 c 1,39,-1
 400 436 l 1,40,41
 368 450 368 450 329 450 c 0,42,31
 274 450 274 450 238 410.5 c 128,-1,32
EndSplineSet
Substitution2: "'smcp' Lowercase to Small Capitals lookup 28 subtable" uni1EA5.sc
Substitution2: "'aalt' Access All Alternates lookup 0 subtable" uni1EA5.sc
EndChar

StartChar: uni1EA7
Encoding: 7847 7847 352
Width: 571
GlyphClass: 2
Flags: W
AnchorPoint: "Anchor-18" 0 0 basechar 0
AnchorPoint: "Anchor-17" 460 640 basechar 0
AnchorPoint: "Anchor-16" 370 763 basechar 0
AnchorPoint: "Anchor-15" 482 -13 basechar 0
AnchorPoint: "Anchor-14" 0 0 basechar 0
LayerCount: 2
Fore
SplineSet
172 926 m 1,0,-1
 274 765 l 1,1,-1
 222 724 l 1,2,-1
 94 861 l 1,3,-1
 172 926 l 1,0,-1
221 587 m 1,4,-1
 177 642 l 1,5,-1
 330 763 l 1,6,-1
 409 763 l 1,7,-1
 529 642 l 1,8,-1
 478 587 l 1,9,-1
 360 670 l 1,10,-1
 221 587 l 1,4,-1
533 493 m 1,12,-1
 482 138 l 2,13,14
 480 120 480 120 480 115 c 0,15,16
 480 98 480 98 486.5 88 c 128,-1,17
 493 78 493 78 510 71 c 1,18,-1
 474 -13 l 1,19,20
 381 -3 381 -3 365 75 c 1,21,22
 299 -15 299 -15 207 -15 c 0,23,24
 126 -15 126 -15 81.5 41 c 128,-1,25
 37 97 37 97 37 192 c 0,26,27
 37 274 37 274 67.5 355 c 128,-1,28
 98 436 98 436 164 490 c 128,-1,29
 230 544 230 544 331 544 c 0,30,11
 435 544 435 544 533 493 c 1,12,-1
238 410.5 m 128,-1,32
 202 371 202 371 185.5 311.5 c 128,-1,33
 169 252 169 252 169 192 c 0,34,35
 169 82 169 82 242 82 c 0,36,37
 276 82 276 82 304 103.5 c 128,-1,38
 332 125 332 125 362 166 c 1,39,-1
 400 436 l 1,40,41
 368 450 368 450 329 450 c 0,42,31
 274 450 274 450 238 410.5 c 128,-1,32
EndSplineSet
Substitution2: "'smcp' Lowercase to Small Capitals lookup 28 subtable" uni1EA7.sc
Substitution2: "'aalt' Access All Alternates lookup 0 subtable" uni1EA7.sc
EndChar

StartChar: uni1EAB
Encoding: 7851 7851 354
Width: 571
GlyphClass: 2
Flags: W
AnchorPoint: "Anchor-18" 0 0 basechar 0
AnchorPoint: "Anchor-17" 457 633 basechar 0
AnchorPoint: "Anchor-16" 388 918 basechar 0
AnchorPoint: "Anchor-15" 482 -13 basechar 0
AnchorPoint: "Anchor-14" 0 0 basechar 0
LayerCount: 2
Fore
SplineSet
402 790.5 m 128,-1,1
 386 798 386 798 368 811 c 0,2,3
 345 829 345 829 331 829 c 0,4,5
 314 829 314 829 300 818 c 128,-1,6
 286 807 286 807 269 783 c 1,7,-1
 206 819 l 1,8,9
 231 864 231 864 264.5 891 c 128,-1,10
 298 918 298 918 336 918 c 0,11,12
 357 918 357 918 372.5 911 c 128,-1,13
 388 904 388 904 405 891 c 0,14,15
 418 882 418 882 425.5 878 c 128,-1,16
 433 874 433 874 442 874 c 0,17,18
 459 874 459 874 472.5 884.5 c 128,-1,19
 486 895 486 895 501 917 c 1,20,-1
 566 882 l 1,21,22
 539 835 539 835 506.5 809 c 128,-1,23
 474 783 474 783 439 783 c 0,24,0
 418 783 418 783 402 790.5 c 128,-1,1
218 580 m 1,25,-1
 174 635 l 1,26,-1
 327 756 l 1,27,-1
 406 756 l 1,28,-1
 526 635 l 1,29,-1
 475 580 l 1,30,-1
 357 663 l 1,31,-1
 218 580 l 1,25,-1
533 493 m 1,33,-1
 482 138 l 2,34,35
 480 120 480 120 480 115 c 0,36,37
 480 98 480 98 486.5 88 c 128,-1,38
 493 78 493 78 510 71 c 1,39,-1
 474 -13 l 1,40,41
 381 -3 381 -3 365 75 c 1,42,43
 299 -15 299 -15 207 -15 c 0,44,45
 126 -15 126 -15 81.5 41 c 128,-1,46
 37 97 37 97 37 192 c 0,47,48
 37 274 37 274 67.5 355 c 128,-1,49
 98 436 98 436 164 490 c 128,-1,50
 230 544 230 544 331 544 c 0,51,32
 435 544 435 544 533 493 c 1,33,-1
238 410.5 m 128,-1,53
 202 371 202 371 185.5 311.5 c 128,-1,54
 169 252 169 252 169 192 c 0,55,56
 169 82 169 82 242 82 c 0,57,58
 276 82 276 82 304 103.5 c 128,-1,59
 332 125 332 125 362 166 c 1,60,-1
 400 436 l 1,61,62
 368 450 368 450 329 450 c 0,63,52
 274 450 274 450 238 410.5 c 128,-1,53
EndSplineSet
Substitution2: "'smcp' Lowercase to Small Capitals lookup 28 subtable" uni1EAB.sc
Substitution2: "'aalt' Access All Alternates lookup 0 subtable" uni1EAB.sc
EndChar

StartChar: uni0251
Encoding: 593 593 364
Width: 571
GlyphClass: 2
Flags: W
AnchorPoint: "Anchor-18" 0 0 basechar 0
AnchorPoint: "Anchor-17" 0 0 basechar 0
AnchorPoint: "Anchor-16" 323 529 basechar 0
AnchorPoint: "Anchor-15" 0 0 basechar 0
AnchorPoint: "Anchor-14" 249 0 basechar 0
LayerCount: 2
Fore
SplineSet
480 115 m 0,1,2
 480 98 480 98 486.5 88 c 128,-1,3
 493 78 493 78 510 71 c 1,4,-1
 474 -13 l 1,5,6
 381 -3 381 -3 365 75 c 1,7,8
 299 -15 299 -15 208 -15 c 0,9,10
 125 -15 125 -15 81 40.5 c 128,-1,11
 37 96 37 96 37 193 c 0,12,13
 37 279 37 279 69 360 c 128,-1,14
 101 441 101 441 161 492.5 c 128,-1,15
 221 544 221 544 300 544 c 0,16,17
 344 544 344 544 374 526.5 c 128,-1,18
 404 509 404 509 422 471 c 1,19,-1
 446 529 l 1,20,-1
 540 529 l 1,21,-1
 482 138 l 2,22,0
 480 120 480 120 480 115 c 0,1,2
393 376 m 1,23,24
 381 416 381 416 359 433 c 128,-1,25
 337 450 337 450 306 450 c 0,26,27
 263 450 263 450 232 413 c 128,-1,28
 201 376 201 376 185 317 c 128,-1,29
 169 258 169 258 169 193 c 0,30,31
 169 82 169 82 244 82 c 0,32,33
 276 82 276 82 304 103.5 c 128,-1,34
 332 125 332 125 362 166 c 1,35,-1
 393 376 l 1,23,24
EndSplineSet
Substitution2: "'smcp' Lowercase to Small Capitals lookup 28 subtable" uni0251.sc
Substitution2: "'aalt' Access All Alternates lookup 0 subtable" uni0251.sc
EndChar

StartChar: uni0252
Encoding: 594 594 365
Width: 571
GlyphClass: 2
Flags: W
AnchorPoint: "Anchor-18" 0 0 basechar 0
AnchorPoint: "Anchor-17" 0 0 basechar 0
AnchorPoint: "Anchor-16" 323 529 basechar 0
AnchorPoint: "Anchor-15" 0 0 basechar 0
AnchorPoint: "Anchor-14" 248 0 basechar 0
LayerCount: 2
Fore
SplineSet
490 488.5 m 128,-1,1
 534 433 534 433 534 336 c 0,2,3
 534 250 534 250 502 169 c 128,-1,4
 470 88 470 88 410 36.5 c 128,-1,5
 350 -15 350 -15 271 -15 c 0,6,7
 227 -15 227 -15 197 2.5 c 128,-1,8
 167 20 167 20 149 58 c 1,9,-1
 125 0 l 1,10,-1
 31 0 l 1,11,-1
 89 391 l 2,12,13
 91 409 91 409 91 414 c 0,14,15
 91 431 91 431 84.5 441 c 128,-1,16
 78 451 78 451 61 458 c 1,17,-1
 97 542 l 1,18,19
 190 532 190 532 206 454 c 1,20,21
 272 544 272 544 363 544 c 0,22,0
 446 544 446 544 490 488.5 c 128,-1,1
339 116 m 128,-1,24
 370 153 370 153 386 212 c 128,-1,25
 402 271 402 271 402 336 c 0,26,27
 402 447 402 447 327 447 c 0,28,29
 295 447 295 447 267 425.5 c 128,-1,30
 239 404 239 404 209 363 c 1,31,-1
 178 153 l 1,32,33
 190 113 190 113 212 96 c 128,-1,34
 234 79 234 79 265 79 c 0,35,23
 308 79 308 79 339 116 c 128,-1,24
EndSplineSet
EndChar

StartChar: aogonek
Encoding: 261 261 367
Width: 571
GlyphClass: 2
Flags: W
AnchorPoint: "Anchor-18" 0 0 basechar 0
AnchorPoint: "Anchor-17" 0 0 basechar 0
AnchorPoint: "Anchor-16" 341 529 basechar 0
AnchorPoint: "Anchor-15" 482 -13 basechar 0
AnchorPoint: "Anchor-14" 276 0 basechar 0
LayerCount: 2
Fore
SplineSet
480 115 m 0,1,2
 480 98 480 98 486.5 88 c 128,-1,3
 493 78 493 78 510 71 c 1,4,-1
 474 -13 l 1,5,6
 336 -67 336 -67 336 -132 c 0,7,8
 336 -167 336 -167 382 -167 c 0,9,10
 407 -167 407 -167 444 -159 c 1,11,-1
 426 -245 l 1,12,13
 389 -252 389 -252 361 -252 c 0,14,15
 305 -252 305 -252 271 -224.5 c 128,-1,16
 237 -197 237 -197 237 -152 c 0,17,18
 237 -44 237 -44 400 14 c 1,19,20
 374 36 374 36 365 75 c 1,21,22
 299 -15 299 -15 207 -15 c 0,23,24
 126 -15 126 -15 81.5 41 c 128,-1,25
 37 97 37 97 37 192 c 0,26,27
 37 274 37 274 67.5 355 c 128,-1,28
 98 436 98 436 164 490 c 128,-1,29
 230 544 230 544 331 544 c 0,30,31
 435 544 435 544 533 493 c 1,32,-1
 482 138 l 2,33,0
 480 120 480 120 480 115 c 0,1,2
400 436 m 1,34,35
 368 450 368 450 329 450 c 0,36,37
 274 450 274 450 238 410.5 c 128,-1,38
 202 371 202 371 185.5 311.5 c 128,-1,39
 169 252 169 252 169 192 c 0,40,41
 169 82 169 82 242 82 c 0,42,43
 276 82 276 82 304 103.5 c 128,-1,44
 332 125 332 125 362 166 c 1,45,-1
 400 436 l 1,34,35
EndSplineSet
Substitution2: "'smcp' Lowercase to Small Capitals lookup 28 subtable" aogonek.sc
Substitution2: "'aalt' Access All Alternates lookup 0 subtable" aogonek.sc
EndChar

StartChar: uni2C65
Encoding: 11365 11365 370
Width: 571
GlyphClass: 2
Flags: W
AnchorPoint: "Anchor-18" 0 0 basechar 0
AnchorPoint: "Anchor-17" 0 0 basechar 0
AnchorPoint: "Anchor-16" 323 529 basechar 0
AnchorPoint: "Anchor-15" 0 0 basechar 0
AnchorPoint: "Anchor-14" 248 0 basechar 0
LayerCount: 2
Fore
SplineSet
480 115 m 0,1,2
 480 98 480 98 486.5 88 c 128,-1,3
 493 78 493 78 510 71 c 1,4,-1
 474 -13 l 1,5,6
 381 -3 381 -3 365 75 c 1,7,8
 299 -15 299 -15 208 -15 c 0,9,10
 196 -15 196 -15 190 -14 c 1,11,-1
 166 -72 l 1,12,-1
 118 -60 l 1,13,-1
 141 -3 l 1,14,15
 90 17 90 17 63.5 68 c 128,-1,16
 37 119 37 119 37 192 c 0,17,18
 37 274 37 274 67.5 355 c 128,-1,19
 98 436 98 436 164 490 c 128,-1,20
 230 544 230 544 331 544 c 0,21,22
 355 544 355 544 366 543 c 1,23,-1
 389 598 l 1,24,-1
 436 586 l 1,25,-1
 415 536 l 1,26,27
 478 522 478 522 533 493 c 1,28,-1
 482 138 l 2,29,0
 480 120 480 120 480 115 c 0,1,2
186 104 m 1,31,-1
 329 453 l 1,32,33
 273 453 273 453 236 413 c 128,-1,34
 199 373 199 373 182.5 313.5 c 128,-1,35
 166 254 166 254 166 192 c 0,36,30
 166 132 166 132 186 104 c 1,31,-1
404 440 m 1,37,38
 388 446 388 446 379 448 c 1,39,-1
 228 79 l 1,40,41
 232 78 232 78 241 78 c 0,42,43
 276 78 276 78 306 100 c 128,-1,44
 336 122 336 122 364 163 c 1,45,-1
 404 440 l 1,37,38
EndSplineSet
Substitution2: "'smcp' Lowercase to Small Capitals lookup 28 subtable" uni2C65.sc
Substitution2: "'aalt' Access All Alternates lookup 0 subtable" uni2C65.sc
EndChar

StartChar: uni0250
Encoding: 592 592 372
Width: 535
GlyphClass: 2
Flags: W
AnchorPoint: "Anchor-18" 0 0 basechar 0
AnchorPoint: "Anchor-17" 0 0 basechar 0
AnchorPoint: "Anchor-16" 307 529 basechar 0
AnchorPoint: "Anchor-15" 0 0 basechar 0
AnchorPoint: "Anchor-14" 233 0 basechar 0
LayerCount: 2
Fore
SplineSet
183 172 m 2,0,1
 182 163 182 163 182 148 c 0,2,3
 182 111 182 111 200 96.5 c 128,-1,4
 218 82 218 82 263 82 c 0,5,6
 318 82 318 82 404 110 c 1,7,-1
 429 22 l 1,8,9
 331 -15 331 -15 236 -15 c 0,10,11
 147 -15 147 -15 101 22 c 128,-1,12
 55 59 55 59 55 131 c 0,13,14
 55 149 55 149 58 170 c 2,15,-1
 89 392 l 2,16,17
 91 408 91 408 91 415 c 0,18,19
 91 432 91 432 84 442 c 128,-1,20
 77 452 77 452 60 459 c 1,21,-1
 97 543 l 1,22,23
 140 538 140 538 166 520.5 c 128,-1,24
 192 503 192 503 202 466 c 1,25,26
 262 544 262 544 366 544 c 0,27,28
 436 544 436 544 477 505.5 c 128,-1,29
 518 467 518 467 518 401 c 0,30,31
 518 305 518 305 445.5 254.5 c 128,-1,32
 373 204 373 204 255 204 c 2,33,-1
 187 204 l 1,34,-1
 183 172 l 2,0,1
212 381 m 1,36,-1
 198 280 l 1,37,-1
 248 280 l 2,38,39
 316 280 316 280 352 308 c 128,-1,40
 388 336 388 336 388 392 c 0,41,42
 388 421 388 421 372 436 c 128,-1,43
 356 451 356 451 327 451 c 0,44,35
 259 451 259 451 212 381 c 1,36,-1
EndSplineSet
EndChar

StartChar: ae
Encoding: 230 230 373
Width: 826
GlyphClass: 2
Flags: W
AnchorPoint: "Anchor-18" 0 0 basechar 0
AnchorPoint: "Anchor-17" 0 0 basechar 0
AnchorPoint: "Anchor-16" 456 529 basechar 0
AnchorPoint: "Anchor-15" 0 0 basechar 0
AnchorPoint: "Anchor-14" 368 0 basechar 0
LayerCount: 2
Fore
SplineSet
387 524 m 128,-1,1
 425 504 425 504 446 467 c 1,2,3
 476 502 476 502 523 523 c 128,-1,4
 570 544 570 544 626 544 c 0,5,6
 684 544 684 544 725.5 525 c 128,-1,7
 767 506 767 506 788 474 c 128,-1,8
 809 442 809 442 809 404 c 0,9,10
 809 302 809 302 716 257 c 128,-1,11
 623 212 623 212 465 197 c 1,12,13
 466 136 466 136 494 110 c 128,-1,14
 522 84 522 84 571 84 c 0,15,16
 606 84 606 84 639 95.5 c 128,-1,17
 672 107 672 107 709 133 c 1,18,-1
 757 53 l 1,19,20
 662 -15 662 -15 556 -15 c 0,21,22
 491 -15 491 -15 444.5 8.5 c 128,-1,23
 398 32 398 32 372 76 c 1,24,25
 330 27 330 27 283 6 c 128,-1,26
 236 -15 236 -15 178 -15 c 0,27,28
 104 -15 104 -15 60.5 24 c 128,-1,29
 17 63 17 63 17 127 c 0,30,31
 17 208 17 208 79.5 261.5 c 128,-1,32
 142 315 142 315 284 315 c 2,33,-1
 353 315 l 1,34,35
 360 347 360 347 372 379 c 1,36,37
 368 410 368 410 340 428 c 128,-1,38
 312 446 312 446 268 446 c 0,39,40
 234 446 234 446 201.5 440 c 128,-1,41
 169 434 169 434 127 421 c 1,42,-1
 106 509 l 1,43,44
 200 544 200 544 287 544 c 0,45,0
 349 544 349 544 387 524 c 128,-1,1
519 403.5 m 128,-1,47
 483 354 483 354 471 281 c 1,48,49
 578 291 578 291 629 319.5 c 128,-1,50
 680 348 680 348 680 398 c 0,51,52
 680 420 680 420 665.5 436.5 c 128,-1,53
 651 453 651 453 618 453 c 0,54,46
 555 453 555 453 519 403.5 c 128,-1,47
290 237 m 2,55,56
 222 237 222 237 187.5 213 c 128,-1,57
 153 189 153 189 153 137 c 0,58,59
 153 78 153 78 215 78 c 0,60,61
 251 78 251 78 281.5 97 c 128,-1,62
 312 116 312 116 344 155 c 1,63,64
 342 166 342 166 341.5 192 c 128,-1,65
 341 218 341 218 342 237 c 1,66,-1
 290 237 l 2,55,56
EndSplineSet
Substitution2: "'smcp' Lowercase to Small Capitals lookup 28 subtable" ae.sc
Substitution2: "'aalt' Access All Alternates lookup 0 subtable" ae.sc
EndChar

StartChar: b
Encoding: 98 98 376
Width: 580
GlyphClass: 2
Flags: W
AnchorPoint: "Anchor-18" 0 0 basechar 0
AnchorPoint: "Anchor-17" 0 0 basechar 0
AnchorPoint: "Anchor-16" 376 741 basechar 0
AnchorPoint: "Anchor-15" 0 0 basechar 0
AnchorPoint: "Anchor-14" 253 0 basechar 0
LayerCount: 2
Fore
SplineSet
500.5 490 m 128,-1,1
 543 436 543 436 543 337 c 0,2,3
 543 252 543 252 514.5 172 c 128,-1,4
 486 92 486 92 419 38.5 c 128,-1,5
 352 -15 352 -15 245 -15 c 0,6,7
 194 -15 194 -15 146.5 -5.5 c 128,-1,8
 99 4 99 4 42 25 c 1,9,-1
 143 741 l 1,10,-1
 270 755 l 1,11,-1
 232 481 l 1,12,13
 300 544 300 544 381 544 c 0,14,0
 458 544 458 544 500.5 490 c 128,-1,1
275 430 m 128,-1,16
 247 412 247 412 218 380 c 1,17,-1
 179 95 l 1,18,19
 219 81 219 81 257 81 c 0,20,21
 310 81 310 81 345 121 c 128,-1,22
 380 161 380 161 396 220 c 128,-1,23
 412 279 412 279 412 339 c 0,24,25
 412 448 412 448 336 448 c 0,26,15
 303 448 303 448 275 430 c 128,-1,16
EndSplineSet
Substitution2: "'smcp' Lowercase to Small Capitals lookup 28 subtable" b.sc
Substitution2: "'aalt' Access All Alternates lookup 0 subtable" b.sc
EndChar

StartChar: uni0253
Encoding: 595 595 380
Width: 580
GlyphClass: 2
Flags: W
AnchorPoint: "Anchor-18" 0 0 basechar 0
AnchorPoint: "Anchor-17" 0 0 basechar 0
AnchorPoint: "Anchor-16" 358 741 basechar 0
AnchorPoint: "Anchor-15" 0 0 basechar 0
AnchorPoint: "Anchor-14" 253 0 basechar 0
LayerCount: 2
Fore
SplineSet
501 490 m 128,-1,1
 543 436 543 436 543 337 c 0,2,3
 543 252 543 252 514.5 172 c 128,-1,4
 486 92 486 92 419 38.5 c 128,-1,5
 352 -15 352 -15 245 -15 c 0,6,7
 194 -15 194 -15 146.5 -5.5 c 128,-1,8
 99 4 99 4 42 25 c 1,9,-1
 113 528 l 1,10,-1
 122 590 l 2,11,12
 132 664 132 664 185 709.5 c 128,-1,13
 238 755 238 755 324 755 c 0,14,15
 395 755 395 755 457 723 c 1,16,-1
 412 639 l 1,17,18
 374 658 374 658 330 658 c 0,19,20
 292 658 292 658 272.5 639.5 c 128,-1,21
 253 621 253 621 247 582 c 2,22,-1
 240 528 l 1,23,-1
 233 481 l 1,24,25
 265 511 265 511 303 527.5 c 128,-1,26
 341 544 341 544 381 544 c 0,27,0
 459 544 459 544 501 490 c 128,-1,1
345 121 m 128,-1,29
 380 161 380 161 396 220 c 128,-1,30
 412 279 412 279 412 339 c 0,31,32
 412 448 412 448 335 448 c 0,33,34
 303 448 303 448 275 430 c 128,-1,35
 247 412 247 412 218 380 c 1,36,-1
 179 95 l 1,37,38
 219 81 219 81 257 81 c 0,39,28
 310 81 310 81 345 121 c 128,-1,29
EndSplineSet
Substitution2: "'smcp' Lowercase to Small Capitals lookup 28 subtable" uni0253.sc
Substitution2: "'aalt' Access All Alternates lookup 0 subtable" uni0253.sc
EndChar

StartChar: uni02AD
Encoding: 685 685 381
Width: 354
GlyphClass: 2
Flags: W
AnchorPoint: "Anchor-18" 0 0 basechar 0
AnchorPoint: "Anchor-17" 0 0 basechar 0
AnchorPoint: "Anchor-16" 161 156 basechar 0
AnchorPoint: "Anchor-15" 0 0 basechar 0
AnchorPoint: "Anchor-14" 0 0 basechar 0
LayerCount: 2
Fore
SplineSet
341 399 m 1,0,-1
 262 399 l 1,1,-1
 274 485 l 1,2,-1
 143 485 l 1,3,-1
 130 399 l 1,4,-1
 51 399 l 1,5,-1
 73 556 l 1,6,-1
 363 556 l 1,7,-1
 341 399 l 1,0,-1
284 -1 m 1,8,-1
 205 -1 l 1,9,-1
 217 85 l 1,10,-1
 86 85 l 1,11,-1
 73 -1 l 1,12,-1
 -6 -1 l 1,13,-1
 16 156 l 1,14,-1
 306 156 l 1,15,-1
 284 -1 l 1,8,-1
EndSplineSet
EndChar

StartChar: uni0298
Encoding: 664 664 382
Width: 786
GlyphClass: 2
Flags: W
AnchorPoint: "Anchor-18" 0 0 basechar 0
AnchorPoint: "Anchor-17" 0 0 basechar 0
AnchorPoint: "Anchor-16" 453 691 basechar 0
AnchorPoint: "Anchor-15" 0 0 basechar 0
AnchorPoint: "Anchor-14" 356 0 basechar 0
LayerCount: 2
Fore
SplineSet
614 670.5 m 128,-1,1
 683 635 683 635 721 568 c 128,-1,2
 759 501 759 501 759 409 c 0,3,4
 759 290 759 290 709 193 c 128,-1,5
 659 96 659 96 567.5 40.5 c 128,-1,6
 476 -15 476 -15 358 -15 c 0,7,8
 265 -15 265 -15 195.5 20.5 c 128,-1,9
 126 56 126 56 88 123.5 c 128,-1,10
 50 191 50 191 50 283 c 0,11,12
 50 402 50 402 101 498.5 c 128,-1,13
 152 595 152 595 243.5 650.5 c 128,-1,14
 335 706 335 706 452 706 c 0,15,0
 545 706 545 706 614 670.5 c 128,-1,1
296.5 567.5 m 128,-1,17
 235 523 235 523 204 447.5 c 128,-1,18
 173 372 173 372 172 279 c 0,19,20
 172 178 172 178 223 128.5 c 128,-1,21
 274 79 274 79 364 79 c 0,22,23
 452 79 452 79 513.5 123.5 c 128,-1,24
 575 168 575 168 606 243 c 128,-1,25
 637 318 637 318 637 410 c 0,26,27
 637 512 637 512 586.5 562 c 128,-1,28
 536 612 536 612 446 612 c 0,29,16
 358 612 358 612 296.5 567.5 c 128,-1,17
352.5 292.5 m 128,-1,31
 334 311 334 311 334 339 c 0,32,33
 334 373 334 373 357.5 396 c 128,-1,34
 381 419 381 419 415 419 c 0,35,36
 445 419 445 419 463.5 400.5 c 128,-1,37
 482 382 482 382 482 354 c 0,38,39
 482 320 482 320 458.5 297 c 128,-1,40
 435 274 435 274 401 274 c 0,41,30
 371 274 371 274 352.5 292.5 c 128,-1,31
EndSplineSet
EndChar

StartChar: uni0180
Encoding: 384 384 384
Width: 590
GlyphClass: 2
Flags: W
AnchorPoint: "Anchor-18" 0 0 basechar 0
AnchorPoint: "Anchor-17" 0 0 basechar 0
AnchorPoint: "Anchor-16" 386 741 basechar 0
AnchorPoint: "Anchor-15" 0 0 basechar 0
AnchorPoint: "Anchor-14" 263 0 basechar 0
LayerCount: 2
Fore
SplineSet
510.5 490 m 128,-1,1
 553 436 553 436 553 337 c 0,2,3
 553 252 553 252 524.5 172 c 128,-1,4
 496 92 496 92 429 38.5 c 128,-1,5
 362 -15 362 -15 255 -15 c 0,6,7
 204 -15 204 -15 156.5 -5.5 c 128,-1,8
 109 4 109 4 52 25 c 1,9,-1
 133 601 l 1,10,-1
 63 601 l 1,11,-1
 75 683 l 1,12,-1
 145 683 l 1,13,-1
 153 741 l 1,14,-1
 280 755 l 1,15,-1
 270 683 l 1,16,-1
 414 683 l 1,17,-1
 391 601 l 1,18,-1
 259 601 l 1,19,-1
 242 481 l 1,20,21
 310 544 310 544 391 544 c 0,22,0
 468 544 468 544 510.5 490 c 128,-1,1
355 121 m 128,-1,24
 390 161 390 161 406 220 c 128,-1,25
 422 279 422 279 422 339 c 0,26,27
 422 448 422 448 346 448 c 0,28,29
 313 448 313 448 285 430 c 128,-1,30
 257 412 257 412 228 380 c 1,31,-1
 189 95 l 1,32,33
 229 81 229 81 267 81 c 0,34,23
 320 81 320 81 355 121 c 128,-1,24
EndSplineSet
Substitution2: "'smcp' Lowercase to Small Capitals lookup 28 subtable" uni0180.sc
Substitution2: "'aalt' Access All Alternates lookup 0 subtable" uni0180.sc
EndChar

StartChar: uni0183
Encoding: 387 387 385
Width: 581
GlyphClass: 2
Flags: W
AnchorPoint: "Anchor-18" 0 0 basechar 0
AnchorPoint: "Anchor-17" 0 0 basechar 0
AnchorPoint: "Anchor-16" 357 741 basechar 0
AnchorPoint: "Anchor-15" 0 0 basechar 0
AnchorPoint: "Anchor-14" 253 0 basechar 0
LayerCount: 2
Fore
SplineSet
501 483.5 m 128,-1,1
 543 430 543 430 543 330 c 0,2,3
 543 249 543 249 514 170 c 128,-1,4
 485 91 485 91 418.5 38 c 128,-1,5
 352 -15 352 -15 245 -15 c 0,6,7
 194 -15 194 -15 146.5 -5.5 c 128,-1,8
 99 4 99 4 42 25 c 1,9,-1
 143 741 l 1,10,-1
 489 741 l 1,11,-1
 460 647 l 1,12,-1
 255 647 l 1,13,-1
 231 474 l 1,14,15
 299 537 299 537 382 537 c 0,16,0
 459 537 459 537 501 483.5 c 128,-1,1
345 120.5 m 128,-1,18
 380 160 380 160 396 217.5 c 128,-1,19
 412 275 412 275 412 331 c 0,20,21
 412 441 412 441 335 441 c 0,22,23
 276 441 276 441 218 373 c 1,24,-1
 179 95 l 1,25,26
 219 81 219 81 257 81 c 0,27,17
 310 81 310 81 345 120.5 c 128,-1,18
EndSplineSet
Substitution2: "'smcp' Lowercase to Small Capitals lookup 28 subtable" uni0183.sc
Substitution2: "'aalt' Access All Alternates lookup 0 subtable" uni0183.sc
EndChar

